<mxfile host="app.diagrams.net" agent="Mozilla/5.0 (Windows NT 10.0; Win64; x64) AppleWebKit/537.36 (KHTML, like Gecko) Chrome/135.0.0.0 Safari/537.36 Edg/135.0.0.0" version="26.2.8">
  <diagram name="Page-1" id="WykbW2VhOh-OU126FUSZ">
    <mxGraphModel dx="4373" dy="2153" grid="0" gridSize="10" guides="1" tooltips="1" connect="1" arrows="1" fold="1" page="0" pageScale="1" pageWidth="850" pageHeight="1100" background="#ffffff" math="0" shadow="0">
      <root>
        <mxCell id="0" />
        <mxCell id="1" parent="0" />
        <mxCell id="RcrwvDNwSDzIbEaf6MxV-284" value="&lt;font face=&quot;Spline Sans Mono SemiBold&quot; color=&quot;#333e4b&quot;&gt;&lt;span style=&quot;font-size: 15px;&quot;&gt;Transaction Sales&lt;/span&gt;&lt;/font&gt;" style="verticalLabelPosition=top;verticalAlign=bottom;html=1;shape=mxgraph.basic.rect;fillColor2=none;strokeWidth=1;size=20;indent=5;dashed=1;dashPattern=8 8;align=left;labelPosition=center;strokeColor=#9AC7BF;" vertex="1" parent="1">
          <mxGeometry x="243" y="-42" width="660" height="606" as="geometry" />
        </mxCell>
        <mxCell id="RcrwvDNwSDzIbEaf6MxV-279" value="&lt;font face=&quot;Spline Sans Mono SemiBold&quot; data-font-src=&quot;https://fonts.googleapis.com/css?family=Spline+Sans+Mono+SemiBold&quot; style=&quot;line-height: 110%; color: rgb(51, 62, 75); font-size: 15px;&quot;&gt;Discounts/Promotions&lt;/font&gt;" style="verticalLabelPosition=top;verticalAlign=bottom;html=1;shape=mxgraph.basic.rect;fillColor2=none;strokeWidth=1;size=20;indent=5;dashed=1;dashPattern=8 8;align=left;labelPosition=center;strokeColor=#9AC7BF;" vertex="1" parent="1">
          <mxGeometry x="308" y="708" width="852" height="306" as="geometry" />
        </mxCell>
        <mxCell id="RcrwvDNwSDzIbEaf6MxV-278" value="&lt;font face=&quot;Spline Sans Mono SemiBold&quot; data-font-src=&quot;https://fonts.googleapis.com/css?family=Spline+Sans+Mono+SemiBold&quot; style=&quot;line-height: 110%; color: rgb(51, 62, 75); font-size: 15px;&quot;&gt;Discounts/Promotions&lt;/font&gt;" style="verticalLabelPosition=top;verticalAlign=bottom;html=1;shape=mxgraph.basic.rect;fillColor2=none;strokeWidth=1;size=20;indent=5;dashed=1;dashPattern=8 8;align=left;labelPosition=center;strokeColor=#9AC7BF;" vertex="1" parent="1">
          <mxGeometry x="-444" y="850" width="334" height="298" as="geometry" />
        </mxCell>
        <mxCell id="RcrwvDNwSDzIbEaf6MxV-150" value="&lt;span&gt;&lt;/span&gt;&lt;span&gt;&lt;/span&gt;&lt;span style=&quot;white-space-collapse: preserve;&quot;&gt;&lt;font data-font-src=&quot;https://fonts.googleapis.com/css?family=Spline+Sans+Mono+SemiBold&quot; style=&quot;&quot;&gt;promotions&lt;/font&gt;&lt;/span&gt;" style="shape=table;startSize=30;container=1;collapsible=1;childLayout=tableLayout;fixedRows=1;rowLines=0;fontStyle=1;align=center;resizeLast=1;html=1;whiteSpace=wrap;fillStyle=solid;fillColor=#7FD1AE;strokeColor=none;fontFamily=Spline Sans Mono SemiBold;fontSource=https%3A%2F%2Ffonts.googleapis.com%2Fcss%3Ffamily%3DSpline%2BSans%2BMono%2BSemiBold;labelBackgroundColor=none;fontColor=#333E4B;" vertex="1" parent="1">
          <mxGeometry x="-415" y="882" width="270" height="210" as="geometry" />
        </mxCell>
        <mxCell id="RcrwvDNwSDzIbEaf6MxV-151" value="" style="shape=tableRow;horizontal=0;startSize=0;swimlaneHead=0;swimlaneBody=0;fillColor=#E6F4F1;collapsible=0;dropTarget=0;points=[[0,0.5],[1,0.5]];portConstraint=eastwest;top=0;left=0;right=0;bottom=0;html=1;strokeColor=inherit;fontFamily=Spline Sans Mono ;fontSource=https%3A%2F%2Ffonts.googleapis.com%2Fcss%3Ffamily%3DSpline%2BSans%2BMono%2B;fontColor=#333E4B;fontStyle=0;labelBackgroundColor=none;" vertex="1" parent="RcrwvDNwSDzIbEaf6MxV-150">
          <mxGeometry y="30" width="270" height="30" as="geometry" />
        </mxCell>
        <mxCell id="RcrwvDNwSDzIbEaf6MxV-152" value="PK" style="shape=partialRectangle;connectable=0;fillColor=#E6F4F1;top=0;left=0;bottom=0;right=0;fontStyle=0;overflow=hidden;html=1;whiteSpace=wrap;strokeColor=inherit;fontFamily=Spline Sans Mono ;fontSource=https%3A%2F%2Ffonts.googleapis.com%2Fcss%3Ffamily%3DSpline%2BSans%2BMono%2B;fontColor=#333E4B;labelBackgroundColor=none;" vertex="1" parent="RcrwvDNwSDzIbEaf6MxV-151">
          <mxGeometry width="60" height="30" as="geometry">
            <mxRectangle width="60" height="30" as="alternateBounds" />
          </mxGeometry>
        </mxCell>
        <mxCell id="RcrwvDNwSDzIbEaf6MxV-153" value="&lt;span&gt;&lt;/span&gt;&lt;span&gt;&lt;/span&gt;&lt;span style=&quot;white-space-collapse: preserve;&quot;&gt;promotion id&lt;/span&gt;" style="shape=partialRectangle;connectable=0;fillColor=#E6F4F1;top=0;left=0;bottom=0;right=0;align=left;spacingLeft=6;fontStyle=4;overflow=hidden;html=1;whiteSpace=wrap;strokeColor=inherit;fontFamily=Spline Sans Mono ;fontSource=https%3A%2F%2Ffonts.googleapis.com%2Fcss%3Ffamily%3DSpline%2BSans%2BMono%2B;fontColor=#333E4B;labelBackgroundColor=none;" vertex="1" parent="RcrwvDNwSDzIbEaf6MxV-151">
          <mxGeometry x="60" width="210" height="30" as="geometry">
            <mxRectangle width="210" height="30" as="alternateBounds" />
          </mxGeometry>
        </mxCell>
        <mxCell id="RcrwvDNwSDzIbEaf6MxV-154" value="" style="shape=tableRow;horizontal=0;startSize=0;swimlaneHead=0;swimlaneBody=0;fillColor=#E6F4F1;collapsible=0;dropTarget=0;points=[[0,0.5],[1,0.5]];portConstraint=eastwest;top=0;left=0;right=0;bottom=0;html=1;strokeColor=inherit;fontFamily=Spline Sans Mono ;fontSource=https%3A%2F%2Ffonts.googleapis.com%2Fcss%3Ffamily%3DSpline%2BSans%2BMono%2B;fontColor=#333E4B;fontStyle=0;labelBackgroundColor=none;" vertex="1" parent="RcrwvDNwSDzIbEaf6MxV-150">
          <mxGeometry y="60" width="270" height="30" as="geometry" />
        </mxCell>
        <mxCell id="RcrwvDNwSDzIbEaf6MxV-155" value="" style="shape=partialRectangle;connectable=0;fillColor=#E6F4F1;top=0;left=0;bottom=0;right=0;editable=1;overflow=hidden;html=1;whiteSpace=wrap;strokeColor=inherit;fontFamily=Spline Sans Mono ;fontSource=https%3A%2F%2Ffonts.googleapis.com%2Fcss%3Ffamily%3DSpline%2BSans%2BMono%2B;fontColor=#333E4B;fontStyle=0;labelBackgroundColor=none;" vertex="1" parent="RcrwvDNwSDzIbEaf6MxV-154">
          <mxGeometry width="60" height="30" as="geometry">
            <mxRectangle width="60" height="30" as="alternateBounds" />
          </mxGeometry>
        </mxCell>
        <mxCell id="RcrwvDNwSDzIbEaf6MxV-156" value="&lt;span&gt;&lt;/span&gt;&lt;span style=&quot;white-space-collapse: preserve;&quot;&gt;promotion_type&lt;/span&gt;&amp;nbsp;" style="shape=partialRectangle;connectable=0;fillColor=#E6F4F1;top=0;left=0;bottom=0;right=0;align=left;spacingLeft=6;overflow=hidden;html=1;whiteSpace=wrap;strokeColor=inherit;fontFamily=Spline Sans Mono ;fontSource=https%3A%2F%2Ffonts.googleapis.com%2Fcss%3Ffamily%3DSpline%2BSans%2BMono%2B;fontColor=#333E4B;fontStyle=0;labelBackgroundColor=none;" vertex="1" parent="RcrwvDNwSDzIbEaf6MxV-154">
          <mxGeometry x="60" width="210" height="30" as="geometry">
            <mxRectangle width="210" height="30" as="alternateBounds" />
          </mxGeometry>
        </mxCell>
        <mxCell id="RcrwvDNwSDzIbEaf6MxV-206" style="shape=tableRow;horizontal=0;startSize=0;swimlaneHead=0;swimlaneBody=0;fillColor=#E6F4F1;collapsible=0;dropTarget=0;points=[[0,0.5],[1,0.5]];portConstraint=eastwest;top=0;left=0;right=0;bottom=0;html=1;strokeColor=inherit;fontFamily=Spline Sans Mono ;fontSource=https%3A%2F%2Ffonts.googleapis.com%2Fcss%3Ffamily%3DSpline%2BSans%2BMono%2B;fontColor=#333E4B;fontStyle=0;labelBackgroundColor=none;" vertex="1" parent="RcrwvDNwSDzIbEaf6MxV-150">
          <mxGeometry y="90" width="270" height="30" as="geometry" />
        </mxCell>
        <mxCell id="RcrwvDNwSDzIbEaf6MxV-207" style="shape=partialRectangle;connectable=0;fillColor=#E6F4F1;top=0;left=0;bottom=0;right=0;editable=1;overflow=hidden;html=1;whiteSpace=wrap;strokeColor=inherit;fontFamily=Spline Sans Mono ;fontSource=https%3A%2F%2Ffonts.googleapis.com%2Fcss%3Ffamily%3DSpline%2BSans%2BMono%2B;fontColor=#333E4B;fontStyle=0;labelBackgroundColor=none;" vertex="1" parent="RcrwvDNwSDzIbEaf6MxV-206">
          <mxGeometry width="60" height="30" as="geometry">
            <mxRectangle width="60" height="30" as="alternateBounds" />
          </mxGeometry>
        </mxCell>
        <mxCell id="RcrwvDNwSDzIbEaf6MxV-208" value="description" style="shape=partialRectangle;connectable=0;fillColor=#E6F4F1;top=0;left=0;bottom=0;right=0;align=left;spacingLeft=6;overflow=hidden;html=1;whiteSpace=wrap;strokeColor=inherit;fontFamily=Spline Sans Mono ;fontSource=https%3A%2F%2Ffonts.googleapis.com%2Fcss%3Ffamily%3DSpline%2BSans%2BMono%2B;fontColor=#333E4B;fontStyle=0;labelBackgroundColor=none;" vertex="1" parent="RcrwvDNwSDzIbEaf6MxV-206">
          <mxGeometry x="60" width="210" height="30" as="geometry">
            <mxRectangle width="210" height="30" as="alternateBounds" />
          </mxGeometry>
        </mxCell>
        <mxCell id="RcrwvDNwSDzIbEaf6MxV-203" style="shape=tableRow;horizontal=0;startSize=0;swimlaneHead=0;swimlaneBody=0;fillColor=#E6F4F1;collapsible=0;dropTarget=0;points=[[0,0.5],[1,0.5]];portConstraint=eastwest;top=0;left=0;right=0;bottom=0;html=1;strokeColor=inherit;fontFamily=Spline Sans Mono ;fontSource=https%3A%2F%2Ffonts.googleapis.com%2Fcss%3Ffamily%3DSpline%2BSans%2BMono%2B;fontColor=#333E4B;fontStyle=0;labelBackgroundColor=none;" vertex="1" parent="RcrwvDNwSDzIbEaf6MxV-150">
          <mxGeometry y="120" width="270" height="30" as="geometry" />
        </mxCell>
        <mxCell id="RcrwvDNwSDzIbEaf6MxV-204" style="shape=partialRectangle;connectable=0;fillColor=#E6F4F1;top=0;left=0;bottom=0;right=0;editable=1;overflow=hidden;html=1;whiteSpace=wrap;strokeColor=inherit;fontFamily=Spline Sans Mono ;fontSource=https%3A%2F%2Ffonts.googleapis.com%2Fcss%3Ffamily%3DSpline%2BSans%2BMono%2B;fontColor=#333E4B;fontStyle=0;labelBackgroundColor=none;" vertex="1" parent="RcrwvDNwSDzIbEaf6MxV-203">
          <mxGeometry width="60" height="30" as="geometry">
            <mxRectangle width="60" height="30" as="alternateBounds" />
          </mxGeometry>
        </mxCell>
        <mxCell id="RcrwvDNwSDzIbEaf6MxV-205" value="valid_from" style="shape=partialRectangle;connectable=0;fillColor=#E6F4F1;top=0;left=0;bottom=0;right=0;align=left;spacingLeft=6;overflow=hidden;html=1;whiteSpace=wrap;strokeColor=inherit;fontFamily=Spline Sans Mono ;fontSource=https%3A%2F%2Ffonts.googleapis.com%2Fcss%3Ffamily%3DSpline%2BSans%2BMono%2B;fontColor=#333E4B;fontStyle=0;labelBackgroundColor=none;" vertex="1" parent="RcrwvDNwSDzIbEaf6MxV-203">
          <mxGeometry x="60" width="210" height="30" as="geometry">
            <mxRectangle width="210" height="30" as="alternateBounds" />
          </mxGeometry>
        </mxCell>
        <mxCell id="RcrwvDNwSDzIbEaf6MxV-209" style="shape=tableRow;horizontal=0;startSize=0;swimlaneHead=0;swimlaneBody=0;fillColor=#E6F4F1;collapsible=0;dropTarget=0;points=[[0,0.5],[1,0.5]];portConstraint=eastwest;top=0;left=0;right=0;bottom=0;html=1;strokeColor=inherit;fontFamily=Spline Sans Mono ;fontSource=https%3A%2F%2Ffonts.googleapis.com%2Fcss%3Ffamily%3DSpline%2BSans%2BMono%2B;fontColor=#333E4B;fontStyle=0;labelBackgroundColor=none;" vertex="1" parent="RcrwvDNwSDzIbEaf6MxV-150">
          <mxGeometry y="150" width="270" height="30" as="geometry" />
        </mxCell>
        <mxCell id="RcrwvDNwSDzIbEaf6MxV-210" style="shape=partialRectangle;connectable=0;fillColor=#E6F4F1;top=0;left=0;bottom=0;right=0;editable=1;overflow=hidden;html=1;whiteSpace=wrap;strokeColor=inherit;fontFamily=Spline Sans Mono ;fontSource=https%3A%2F%2Ffonts.googleapis.com%2Fcss%3Ffamily%3DSpline%2BSans%2BMono%2B;fontColor=#333E4B;fontStyle=0;labelBackgroundColor=none;" vertex="1" parent="RcrwvDNwSDzIbEaf6MxV-209">
          <mxGeometry width="60" height="30" as="geometry">
            <mxRectangle width="60" height="30" as="alternateBounds" />
          </mxGeometry>
        </mxCell>
        <mxCell id="RcrwvDNwSDzIbEaf6MxV-211" value="valid_to" style="shape=partialRectangle;connectable=0;fillColor=#E6F4F1;top=0;left=0;bottom=0;right=0;align=left;spacingLeft=6;overflow=hidden;html=1;whiteSpace=wrap;strokeColor=inherit;fontFamily=Spline Sans Mono ;fontSource=https%3A%2F%2Ffonts.googleapis.com%2Fcss%3Ffamily%3DSpline%2BSans%2BMono%2B;fontColor=#333E4B;fontStyle=0;labelBackgroundColor=none;" vertex="1" parent="RcrwvDNwSDzIbEaf6MxV-209">
          <mxGeometry x="60" width="210" height="30" as="geometry">
            <mxRectangle width="210" height="30" as="alternateBounds" />
          </mxGeometry>
        </mxCell>
        <mxCell id="RcrwvDNwSDzIbEaf6MxV-212" style="shape=tableRow;horizontal=0;startSize=0;swimlaneHead=0;swimlaneBody=0;fillColor=#E6F4F1;collapsible=0;dropTarget=0;points=[[0,0.5],[1,0.5]];portConstraint=eastwest;top=0;left=0;right=0;bottom=0;html=1;strokeColor=inherit;fontFamily=Spline Sans Mono ;fontSource=https%3A%2F%2Ffonts.googleapis.com%2Fcss%3Ffamily%3DSpline%2BSans%2BMono%2B;fontColor=#333E4B;fontStyle=0;labelBackgroundColor=none;" vertex="1" parent="RcrwvDNwSDzIbEaf6MxV-150">
          <mxGeometry y="180" width="270" height="30" as="geometry" />
        </mxCell>
        <mxCell id="RcrwvDNwSDzIbEaf6MxV-213" style="shape=partialRectangle;connectable=0;fillColor=#E6F4F1;top=0;left=0;bottom=0;right=0;editable=1;overflow=hidden;html=1;whiteSpace=wrap;strokeColor=inherit;fontFamily=Spline Sans Mono ;fontSource=https%3A%2F%2Ffonts.googleapis.com%2Fcss%3Ffamily%3DSpline%2BSans%2BMono%2B;fontColor=#333E4B;fontStyle=0;labelBackgroundColor=none;" vertex="1" parent="RcrwvDNwSDzIbEaf6MxV-212">
          <mxGeometry width="60" height="30" as="geometry">
            <mxRectangle width="60" height="30" as="alternateBounds" />
          </mxGeometry>
        </mxCell>
        <mxCell id="RcrwvDNwSDzIbEaf6MxV-214" value="eligibility_criteria" style="shape=partialRectangle;connectable=0;fillColor=#E6F4F1;top=0;left=0;bottom=0;right=0;align=left;spacingLeft=6;overflow=hidden;html=1;whiteSpace=wrap;strokeColor=inherit;fontFamily=Spline Sans Mono ;fontSource=https%3A%2F%2Ffonts.googleapis.com%2Fcss%3Ffamily%3DSpline%2BSans%2BMono%2B;fontColor=#333E4B;fontStyle=0;labelBackgroundColor=none;" vertex="1" parent="RcrwvDNwSDzIbEaf6MxV-212">
          <mxGeometry x="60" width="210" height="30" as="geometry">
            <mxRectangle width="210" height="30" as="alternateBounds" />
          </mxGeometry>
        </mxCell>
        <mxCell id="RcrwvDNwSDzIbEaf6MxV-276" value="&lt;font face=&quot;Spline Sans Mono SemiBold&quot; data-font-src=&quot;https://fonts.googleapis.com/css?family=Spline+Sans+Mono+SemiBold&quot; style=&quot;line-height: 110%; color: rgb(51, 62, 75); font-size: 15px;&quot;&gt;Customer Information&lt;/font&gt;" style="verticalLabelPosition=top;verticalAlign=bottom;html=1;shape=mxgraph.basic.rect;fillColor2=none;strokeWidth=1;size=20;indent=5;dashed=1;dashPattern=8 8;align=left;labelPosition=center;strokeColor=#9AC7BF;fillColor=#FAFFFE;fillStyle=solid;" vertex="1" parent="1">
          <mxGeometry x="-848" y="108" width="730" height="652" as="geometry" />
        </mxCell>
        <mxCell id="RcrwvDNwSDzIbEaf6MxV-229" value="&lt;font face=&quot;Spline Sans Mono SemiBold&quot; data-font-src=&quot;https://fonts.googleapis.com/css?family=Spline+Sans+Mono+SemiBold&quot; style=&quot;line-height: 110%; color: rgb(51, 62, 75); font-size: 15px;&quot;&gt;Product Inventory&lt;/font&gt;" style="verticalLabelPosition=top;verticalAlign=bottom;html=1;shape=mxgraph.basic.rect;fillColor2=none;strokeWidth=1;size=20;indent=5;dashed=1;dashPattern=8 8;align=left;labelPosition=center;strokeColor=#9AC7BF;" vertex="1" parent="1">
          <mxGeometry x="921" y="-88" width="660" height="606" as="geometry" />
        </mxCell>
        <mxCell id="Fx5C9bnQ34uH0TO9ncKX-2" value="&lt;p style=&quot;margin-top: 0pt; margin-bottom: 0pt; margin-left: 0in; direction: ltr; unicode-bidi: embed; word-break: normal;&quot;&gt;&lt;span style=&quot;color: rgb(89, 89, 89);&quot;&gt;Superstore: Real Time Data Pipeline&amp;nbsp;&lt;/span&gt;&lt;/p&gt;" style="verticalLabelPosition=middle;verticalAlign=middle;html=1;shape=mxgraph.basic.patternFillRect;fillStyle=hor;step=5;fillStrokeWidth=0.2;fillStrokeColor=#dddddd;labelPosition=center;align=left;fontFamily=Spline Sans Mono SemiBold;fontSource=https%3A%2F%2Ffonts.googleapis.com%2Fcss%3Ffamily%3DSpline%2BSans%2BMono%2BSemiBold;fontSize=16;spacingRight=0;spacing=12;strokeColor=light-dark(#ffffff, #ededed);fillColor=default;" parent="1" vertex="1">
          <mxGeometry x="-850" width="850" height="60" as="geometry" />
        </mxCell>
        <mxCell id="Fx5C9bnQ34uH0TO9ncKX-3" value="&lt;span&gt;&lt;/span&gt;&lt;span&gt;&lt;/span&gt;&lt;span style=&quot;white-space-collapse: preserve;&quot;&gt;&lt;font data-font-src=&quot;https://fonts.googleapis.com/css?family=Spline+Sans+Mono+SemiBold&quot; style=&quot;&quot;&gt;sales_transactions&lt;/font&gt;&lt;/span&gt;" style="shape=table;startSize=30;container=1;collapsible=1;childLayout=tableLayout;fixedRows=1;rowLines=0;fontStyle=1;align=center;resizeLast=1;html=1;whiteSpace=wrap;fillStyle=solid;fillColor=#83C6CC;strokeColor=none;fontFamily=Spline Sans Mono SemiBold;fontSource=https%3A%2F%2Ffonts.googleapis.com%2Fcss%3Ffamily%3DSpline%2BSans%2BMono%2BSemiBold;labelBackgroundColor=none;fontColor=#333E4B;" parent="1" vertex="1">
          <mxGeometry x="273" y="-13" width="180" height="270" as="geometry" />
        </mxCell>
        <mxCell id="Fx5C9bnQ34uH0TO9ncKX-4" value="" style="shape=tableRow;horizontal=0;startSize=0;swimlaneHead=0;swimlaneBody=0;fillColor=#DEEEEB;collapsible=0;dropTarget=0;points=[[0,0.5],[1,0.5]];portConstraint=eastwest;top=0;left=0;right=0;bottom=0;html=1;strokeColor=inherit;fontFamily=Spline Sans Mono ;fontSource=https%3A%2F%2Ffonts.googleapis.com%2Fcss%3Ffamily%3DSpline%2BSans%2BMono%2B;fontColor=#333E4B;fontStyle=0;labelBackgroundColor=none;" parent="Fx5C9bnQ34uH0TO9ncKX-3" vertex="1">
          <mxGeometry y="30" width="180" height="30" as="geometry" />
        </mxCell>
        <mxCell id="Fx5C9bnQ34uH0TO9ncKX-5" value="PK" style="shape=partialRectangle;connectable=0;fillColor=#DEEEEB;top=0;left=0;bottom=0;right=0;fontStyle=0;overflow=hidden;html=1;whiteSpace=wrap;strokeColor=inherit;fontFamily=Spline Sans Mono ;fontSource=https%3A%2F%2Ffonts.googleapis.com%2Fcss%3Ffamily%3DSpline%2BSans%2BMono%2B;fontColor=#333E4B;labelBackgroundColor=none;" parent="Fx5C9bnQ34uH0TO9ncKX-4" vertex="1">
          <mxGeometry width="60" height="30" as="geometry">
            <mxRectangle width="60" height="30" as="alternateBounds" />
          </mxGeometry>
        </mxCell>
        <mxCell id="Fx5C9bnQ34uH0TO9ncKX-6" value="&lt;span&gt;&lt;/span&gt;&lt;span&gt;&lt;/span&gt;&lt;span style=&quot;white-space-collapse: preserve;&quot;&gt;transaction_id&lt;/span&gt;" style="shape=partialRectangle;connectable=0;fillColor=#DEEEEB;top=0;left=0;bottom=0;right=0;align=left;spacingLeft=6;fontStyle=4;overflow=hidden;html=1;whiteSpace=wrap;strokeColor=inherit;fontFamily=Spline Sans Mono ;fontSource=https%3A%2F%2Ffonts.googleapis.com%2Fcss%3Ffamily%3DSpline%2BSans%2BMono%2B;fontColor=#333E4B;labelBackgroundColor=none;" parent="Fx5C9bnQ34uH0TO9ncKX-4" vertex="1">
          <mxGeometry x="60" width="120" height="30" as="geometry">
            <mxRectangle width="120" height="30" as="alternateBounds" />
          </mxGeometry>
        </mxCell>
        <mxCell id="Fx5C9bnQ34uH0TO9ncKX-10" value="" style="shape=tableRow;horizontal=0;startSize=0;swimlaneHead=0;swimlaneBody=0;fillColor=#DEEEEB;collapsible=0;dropTarget=0;points=[[0,0.5],[1,0.5]];portConstraint=eastwest;top=0;left=0;right=0;bottom=0;html=1;strokeColor=inherit;fontFamily=Spline Sans Mono ;fontSource=https%3A%2F%2Ffonts.googleapis.com%2Fcss%3Ffamily%3DSpline%2BSans%2BMono%2B;fontColor=#333E4B;fontStyle=0;labelBackgroundColor=none;" parent="Fx5C9bnQ34uH0TO9ncKX-3" vertex="1">
          <mxGeometry y="60" width="180" height="30" as="geometry" />
        </mxCell>
        <mxCell id="Fx5C9bnQ34uH0TO9ncKX-11" value="" style="shape=partialRectangle;connectable=0;fillColor=#DEEEEB;top=0;left=0;bottom=0;right=0;editable=1;overflow=hidden;html=1;whiteSpace=wrap;strokeColor=inherit;fontFamily=Spline Sans Mono ;fontSource=https%3A%2F%2Ffonts.googleapis.com%2Fcss%3Ffamily%3DSpline%2BSans%2BMono%2B;fontColor=#333E4B;fontStyle=0;labelBackgroundColor=none;" parent="Fx5C9bnQ34uH0TO9ncKX-10" vertex="1">
          <mxGeometry width="60" height="30" as="geometry">
            <mxRectangle width="60" height="30" as="alternateBounds" />
          </mxGeometry>
        </mxCell>
        <mxCell id="Fx5C9bnQ34uH0TO9ncKX-12" value="&lt;span&gt;&lt;/span&gt;&lt;span&gt;&lt;/span&gt;&lt;span style=&quot;white-space-collapse: preserve;&quot;&gt;timestamp&lt;/span&gt;" style="shape=partialRectangle;connectable=0;fillColor=#DEEEEB;top=0;left=0;bottom=0;right=0;align=left;spacingLeft=6;overflow=hidden;html=1;whiteSpace=wrap;strokeColor=inherit;fontFamily=Spline Sans Mono ;fontSource=https%3A%2F%2Ffonts.googleapis.com%2Fcss%3Ffamily%3DSpline%2BSans%2BMono%2B;fontColor=#333E4B;fontStyle=0;labelBackgroundColor=none;" parent="Fx5C9bnQ34uH0TO9ncKX-10" vertex="1">
          <mxGeometry x="60" width="120" height="30" as="geometry">
            <mxRectangle width="120" height="30" as="alternateBounds" />
          </mxGeometry>
        </mxCell>
        <mxCell id="Fx5C9bnQ34uH0TO9ncKX-7" value="" style="shape=tableRow;horizontal=0;startSize=0;swimlaneHead=0;swimlaneBody=0;fillColor=#DEEEEB;collapsible=0;dropTarget=0;points=[[0,0.5],[1,0.5]];portConstraint=eastwest;top=0;left=0;right=0;bottom=1;html=1;strokeColor=inherit;fontFamily=Spline Sans Mono ;fontSource=https%3A%2F%2Ffonts.googleapis.com%2Fcss%3Ffamily%3DSpline%2BSans%2BMono%2B;fontColor=#333E4B;fontStyle=0;labelBackgroundColor=none;" parent="Fx5C9bnQ34uH0TO9ncKX-3" vertex="1">
          <mxGeometry y="90" width="180" height="30" as="geometry" />
        </mxCell>
        <mxCell id="Fx5C9bnQ34uH0TO9ncKX-8" value="FK" style="shape=partialRectangle;connectable=0;fillColor=#DEEEEB;top=0;left=0;bottom=0;right=0;fontStyle=0;overflow=hidden;html=1;whiteSpace=wrap;strokeColor=inherit;fontFamily=Spline Sans Mono ;fontSource=https%3A%2F%2Ffonts.googleapis.com%2Fcss%3Ffamily%3DSpline%2BSans%2BMono%2B;fontColor=#333E4B;labelBackgroundColor=none;" parent="Fx5C9bnQ34uH0TO9ncKX-7" vertex="1">
          <mxGeometry width="60" height="30" as="geometry">
            <mxRectangle width="60" height="30" as="alternateBounds" />
          </mxGeometry>
        </mxCell>
        <mxCell id="Fx5C9bnQ34uH0TO9ncKX-9" value="&lt;span&gt;&lt;/span&gt;&lt;span&gt;&lt;/span&gt;&lt;span style=&quot;white-space-collapse: preserve;&quot;&gt;order_id&lt;/span&gt;" style="shape=partialRectangle;connectable=0;fillColor=#DEEEEB;top=0;left=0;bottom=0;right=0;align=left;spacingLeft=6;fontStyle=4;overflow=hidden;html=1;whiteSpace=wrap;strokeColor=inherit;fontFamily=Spline Sans Mono ;fontSource=https%3A%2F%2Ffonts.googleapis.com%2Fcss%3Ffamily%3DSpline%2BSans%2BMono%2B;fontColor=#333E4B;labelBackgroundColor=none;" parent="Fx5C9bnQ34uH0TO9ncKX-7" vertex="1">
          <mxGeometry x="60" width="120" height="30" as="geometry">
            <mxRectangle width="120" height="30" as="alternateBounds" />
          </mxGeometry>
        </mxCell>
        <mxCell id="Fx5C9bnQ34uH0TO9ncKX-31" style="shape=tableRow;horizontal=0;startSize=0;swimlaneHead=0;swimlaneBody=0;fillColor=#DEEEEB;collapsible=0;dropTarget=0;points=[[0,0.5],[1,0.5]];portConstraint=eastwest;top=0;left=0;right=0;bottom=0;html=1;strokeColor=inherit;fontFamily=Spline Sans Mono ;fontSource=https%3A%2F%2Ffonts.googleapis.com%2Fcss%3Ffamily%3DSpline%2BSans%2BMono%2B;fontColor=#333E4B;fontStyle=0;labelBackgroundColor=none;" parent="Fx5C9bnQ34uH0TO9ncKX-3" vertex="1">
          <mxGeometry y="120" width="180" height="30" as="geometry" />
        </mxCell>
        <mxCell id="Fx5C9bnQ34uH0TO9ncKX-32" value="FK" style="shape=partialRectangle;connectable=0;fillColor=#DEEEEB;top=0;left=0;bottom=0;right=0;fontStyle=0;overflow=hidden;html=1;whiteSpace=wrap;strokeColor=inherit;fontFamily=Spline Sans Mono ;fontSource=https%3A%2F%2Ffonts.googleapis.com%2Fcss%3Ffamily%3DSpline%2BSans%2BMono%2B;fontColor=#333E4B;labelBackgroundColor=none;" parent="Fx5C9bnQ34uH0TO9ncKX-31" vertex="1">
          <mxGeometry width="60" height="30" as="geometry">
            <mxRectangle width="60" height="30" as="alternateBounds" />
          </mxGeometry>
        </mxCell>
        <mxCell id="Fx5C9bnQ34uH0TO9ncKX-33" value="&lt;span&gt;&lt;/span&gt;&lt;span&gt;&lt;/span&gt;&lt;span style=&quot;white-space-collapse: preserve;&quot;&gt;customer_id&lt;/span&gt;" style="shape=partialRectangle;connectable=0;fillColor=#DEEEEB;top=0;left=0;bottom=0;right=0;align=left;spacingLeft=6;fontStyle=4;overflow=hidden;html=1;whiteSpace=wrap;strokeColor=inherit;fontFamily=Spline Sans Mono ;fontSource=https%3A%2F%2Ffonts.googleapis.com%2Fcss%3Ffamily%3DSpline%2BSans%2BMono%2B;fontColor=#333E4B;labelBackgroundColor=none;" parent="Fx5C9bnQ34uH0TO9ncKX-31" vertex="1">
          <mxGeometry x="60" width="120" height="30" as="geometry">
            <mxRectangle width="120" height="30" as="alternateBounds" />
          </mxGeometry>
        </mxCell>
        <mxCell id="Fx5C9bnQ34uH0TO9ncKX-25" style="shape=tableRow;horizontal=0;startSize=0;swimlaneHead=0;swimlaneBody=0;fillColor=#DEEEEB;collapsible=0;dropTarget=0;points=[[0,0.5],[1,0.5]];portConstraint=eastwest;top=0;left=0;right=0;bottom=1;html=1;strokeColor=inherit;fontFamily=Spline Sans Mono ;fontSource=https%3A%2F%2Ffonts.googleapis.com%2Fcss%3Ffamily%3DSpline%2BSans%2BMono%2B;fontColor=#333E4B;fontStyle=0;labelBackgroundColor=none;" parent="Fx5C9bnQ34uH0TO9ncKX-3" vertex="1">
          <mxGeometry y="150" width="180" height="30" as="geometry" />
        </mxCell>
        <mxCell id="Fx5C9bnQ34uH0TO9ncKX-26" value="FK" style="shape=partialRectangle;connectable=0;fillColor=#DEEEEB;top=0;left=0;bottom=0;right=0;fontStyle=0;overflow=hidden;html=1;whiteSpace=wrap;strokeColor=inherit;fontFamily=Spline Sans Mono ;fontSource=https%3A%2F%2Ffonts.googleapis.com%2Fcss%3Ffamily%3DSpline%2BSans%2BMono%2B;fontColor=#333E4B;labelBackgroundColor=none;" parent="Fx5C9bnQ34uH0TO9ncKX-25" vertex="1">
          <mxGeometry width="60" height="30" as="geometry">
            <mxRectangle width="60" height="30" as="alternateBounds" />
          </mxGeometry>
        </mxCell>
        <mxCell id="Fx5C9bnQ34uH0TO9ncKX-27" value="&lt;span&gt;&lt;/span&gt;&lt;span&gt;&lt;/span&gt;&lt;span style=&quot;white-space-collapse: preserve;&quot;&gt;shop_id&lt;/span&gt;" style="shape=partialRectangle;connectable=0;fillColor=#DEEEEB;top=0;left=0;bottom=0;right=0;align=left;spacingLeft=6;fontStyle=4;overflow=hidden;html=1;whiteSpace=wrap;strokeColor=inherit;fontFamily=Spline Sans Mono ;fontSource=https%3A%2F%2Ffonts.googleapis.com%2Fcss%3Ffamily%3DSpline%2BSans%2BMono%2B;fontColor=#333E4B;labelBackgroundColor=none;" parent="Fx5C9bnQ34uH0TO9ncKX-25" vertex="1">
          <mxGeometry x="60" width="120" height="30" as="geometry">
            <mxRectangle width="120" height="30" as="alternateBounds" />
          </mxGeometry>
        </mxCell>
        <mxCell id="Fx5C9bnQ34uH0TO9ncKX-22" style="shape=tableRow;horizontal=0;startSize=0;swimlaneHead=0;swimlaneBody=0;fillColor=#DEEEEB;collapsible=0;dropTarget=0;points=[[0,0.5],[1,0.5]];portConstraint=eastwest;top=0;left=0;right=0;bottom=1;html=1;strokeColor=inherit;fontFamily=Spline Sans Mono ;fontSource=https%3A%2F%2Ffonts.googleapis.com%2Fcss%3Ffamily%3DSpline%2BSans%2BMono%2B;fontColor=#333E4B;fontStyle=0;labelBackgroundColor=none;" parent="Fx5C9bnQ34uH0TO9ncKX-3" vertex="1">
          <mxGeometry y="180" width="180" height="30" as="geometry" />
        </mxCell>
        <mxCell id="Fx5C9bnQ34uH0TO9ncKX-23" value="FK" style="shape=partialRectangle;connectable=0;fillColor=#DEEEEB;top=0;left=0;bottom=0;right=0;fontStyle=0;overflow=hidden;html=1;whiteSpace=wrap;strokeColor=inherit;fontFamily=Spline Sans Mono ;fontSource=https%3A%2F%2Ffonts.googleapis.com%2Fcss%3Ffamily%3DSpline%2BSans%2BMono%2B;fontColor=#333E4B;labelBackgroundColor=none;" parent="Fx5C9bnQ34uH0TO9ncKX-22" vertex="1">
          <mxGeometry width="60" height="30" as="geometry">
            <mxRectangle width="60" height="30" as="alternateBounds" />
          </mxGeometry>
        </mxCell>
        <mxCell id="Fx5C9bnQ34uH0TO9ncKX-24" value="&lt;span&gt;&lt;/span&gt;&lt;span&gt;&lt;/span&gt;&lt;span style=&quot;white-space-collapse: preserve;&quot;&gt;loyality_id&lt;/span&gt;" style="shape=partialRectangle;connectable=0;fillColor=#DEEEEB;top=0;left=0;bottom=0;right=0;align=left;spacingLeft=6;fontStyle=4;overflow=hidden;html=1;whiteSpace=wrap;strokeColor=inherit;fontFamily=Spline Sans Mono ;fontSource=https%3A%2F%2Ffonts.googleapis.com%2Fcss%3Ffamily%3DSpline%2BSans%2BMono%2B;fontColor=#333E4B;labelBackgroundColor=none;" parent="Fx5C9bnQ34uH0TO9ncKX-22" vertex="1">
          <mxGeometry x="60" width="120" height="30" as="geometry">
            <mxRectangle width="120" height="30" as="alternateBounds" />
          </mxGeometry>
        </mxCell>
        <mxCell id="Fx5C9bnQ34uH0TO9ncKX-19" style="shape=tableRow;horizontal=0;startSize=0;swimlaneHead=0;swimlaneBody=0;fillColor=#DEEEEB;collapsible=0;dropTarget=0;points=[[0,0.5],[1,0.5]];portConstraint=eastwest;top=0;left=0;right=0;bottom=1;html=1;strokeColor=inherit;fontFamily=Spline Sans Mono ;fontSource=https%3A%2F%2Ffonts.googleapis.com%2Fcss%3Ffamily%3DSpline%2BSans%2BMono%2B;fontColor=#333E4B;fontStyle=0;labelBackgroundColor=none;" parent="Fx5C9bnQ34uH0TO9ncKX-3" vertex="1">
          <mxGeometry y="210" width="180" height="30" as="geometry" />
        </mxCell>
        <mxCell id="Fx5C9bnQ34uH0TO9ncKX-20" value="FK" style="shape=partialRectangle;connectable=0;fillColor=#DEEEEB;top=0;left=0;bottom=0;right=0;fontStyle=0;overflow=hidden;html=1;whiteSpace=wrap;strokeColor=inherit;fontFamily=Spline Sans Mono ;fontSource=https%3A%2F%2Ffonts.googleapis.com%2Fcss%3Ffamily%3DSpline%2BSans%2BMono%2B;fontColor=#333E4B;labelBackgroundColor=none;" parent="Fx5C9bnQ34uH0TO9ncKX-19" vertex="1">
          <mxGeometry width="60" height="30" as="geometry">
            <mxRectangle width="60" height="30" as="alternateBounds" />
          </mxGeometry>
        </mxCell>
        <mxCell id="Fx5C9bnQ34uH0TO9ncKX-21" value="&lt;span&gt;&lt;/span&gt;&lt;span&gt;&lt;/span&gt;&lt;span style=&quot;white-space-collapse: preserve;&quot;&gt;promotion_id&lt;/span&gt;" style="shape=partialRectangle;connectable=0;fillColor=#DEEEEB;top=0;left=0;bottom=0;right=0;align=left;spacingLeft=6;fontStyle=4;overflow=hidden;html=1;whiteSpace=wrap;strokeColor=inherit;fontFamily=Spline Sans Mono ;fontSource=https%3A%2F%2Ffonts.googleapis.com%2Fcss%3Ffamily%3DSpline%2BSans%2BMono%2B;fontColor=#333E4B;labelBackgroundColor=none;" parent="Fx5C9bnQ34uH0TO9ncKX-19" vertex="1">
          <mxGeometry x="60" width="120" height="30" as="geometry">
            <mxRectangle width="120" height="30" as="alternateBounds" />
          </mxGeometry>
        </mxCell>
        <mxCell id="Fx5C9bnQ34uH0TO9ncKX-13" value="" style="shape=tableRow;horizontal=0;startSize=0;swimlaneHead=0;swimlaneBody=0;fillColor=#DEEEEB;collapsible=0;dropTarget=0;points=[[0,0.5],[1,0.5]];portConstraint=eastwest;top=0;left=0;right=0;bottom=0;html=1;strokeColor=inherit;fontFamily=Spline Sans Mono ;fontSource=https%3A%2F%2Ffonts.googleapis.com%2Fcss%3Ffamily%3DSpline%2BSans%2BMono%2B;fontColor=#333E4B;fontStyle=0;labelBackgroundColor=none;" parent="Fx5C9bnQ34uH0TO9ncKX-3" vertex="1">
          <mxGeometry y="240" width="180" height="30" as="geometry" />
        </mxCell>
        <mxCell id="Fx5C9bnQ34uH0TO9ncKX-14" value="" style="shape=partialRectangle;connectable=0;fillColor=#DEEEEB;top=0;left=0;bottom=0;right=0;editable=1;overflow=hidden;html=1;whiteSpace=wrap;strokeColor=inherit;fontFamily=Spline Sans Mono ;fontSource=https%3A%2F%2Ffonts.googleapis.com%2Fcss%3Ffamily%3DSpline%2BSans%2BMono%2B;fontColor=#333E4B;fontStyle=0;labelBackgroundColor=none;" parent="Fx5C9bnQ34uH0TO9ncKX-13" vertex="1">
          <mxGeometry width="60" height="30" as="geometry">
            <mxRectangle width="60" height="30" as="alternateBounds" />
          </mxGeometry>
        </mxCell>
        <mxCell id="Fx5C9bnQ34uH0TO9ncKX-15" value="&lt;span&gt;&lt;/span&gt;&lt;span&gt;&lt;/span&gt;&lt;span style=&quot;white-space-collapse: preserve;&quot;&gt;total_price&lt;/span&gt;" style="shape=partialRectangle;connectable=0;fillColor=#DEEEEB;top=0;left=0;bottom=0;right=0;align=left;spacingLeft=6;overflow=hidden;html=1;whiteSpace=wrap;strokeColor=inherit;fontFamily=Spline Sans Mono ;fontSource=https%3A%2F%2Ffonts.googleapis.com%2Fcss%3Ffamily%3DSpline%2BSans%2BMono%2B;fontColor=#333E4B;fontStyle=0;labelBackgroundColor=none;" parent="Fx5C9bnQ34uH0TO9ncKX-13" vertex="1">
          <mxGeometry x="60" width="120" height="30" as="geometry">
            <mxRectangle width="120" height="30" as="alternateBounds" />
          </mxGeometry>
        </mxCell>
        <mxCell id="Fx5C9bnQ34uH0TO9ncKX-34" value="&lt;span&gt;&lt;/span&gt;&lt;span&gt;&lt;/span&gt;&lt;span&gt;&lt;/span&gt;&lt;span style=&quot;white-space-collapse: preserve;&quot;&gt;&lt;font style=&quot;&quot; data-font-src=&quot;https://fonts.googleapis.com/css?family=Spline+Sans+Mono+SemiBold&quot;&gt;inventory_movements&lt;/font&gt;&lt;/span&gt;" style="shape=table;startSize=30;container=1;collapsible=1;childLayout=tableLayout;fixedRows=1;rowLines=0;fontStyle=1;align=center;resizeLast=1;html=1;whiteSpace=wrap;fillStyle=solid;fillColor=#83C6CC;strokeColor=none;fontFamily=Spline Sans Mono SemiBold;fontSource=https%3A%2F%2Ffonts.googleapis.com%2Fcss%3Ffamily%3DSpline%2BSans%2BMono%2BSemiBold;labelBackgroundColor=none;fontColor=#333E4B;" parent="1" vertex="1">
          <mxGeometry x="974" y="167" width="230" height="240" as="geometry" />
        </mxCell>
        <mxCell id="Fx5C9bnQ34uH0TO9ncKX-35" value="" style="shape=tableRow;horizontal=0;startSize=0;swimlaneHead=0;swimlaneBody=0;fillColor=#DEEEEB;collapsible=0;dropTarget=0;points=[[0,0.5],[1,0.5]];portConstraint=eastwest;top=0;left=0;right=0;bottom=0;html=1;strokeColor=inherit;fontFamily=Spline Sans Mono ;fontSource=https%3A%2F%2Ffonts.googleapis.com%2Fcss%3Ffamily%3DSpline%2BSans%2BMono%2B;fontColor=#333E4B;fontStyle=0;labelBackgroundColor=none;" parent="Fx5C9bnQ34uH0TO9ncKX-34" vertex="1">
          <mxGeometry y="30" width="230" height="30" as="geometry" />
        </mxCell>
        <mxCell id="Fx5C9bnQ34uH0TO9ncKX-36" value="PK" style="shape=partialRectangle;connectable=0;fillColor=#DEEEEB;top=0;left=0;bottom=0;right=0;fontStyle=0;overflow=hidden;html=1;whiteSpace=wrap;strokeColor=inherit;fontFamily=Spline Sans Mono ;fontSource=https%3A%2F%2Ffonts.googleapis.com%2Fcss%3Ffamily%3DSpline%2BSans%2BMono%2B;fontColor=#333E4B;labelBackgroundColor=none;" parent="Fx5C9bnQ34uH0TO9ncKX-35" vertex="1">
          <mxGeometry width="60" height="30" as="geometry">
            <mxRectangle width="60" height="30" as="alternateBounds" />
          </mxGeometry>
        </mxCell>
        <mxCell id="Fx5C9bnQ34uH0TO9ncKX-37" value="&lt;span&gt;&lt;/span&gt;&lt;span style=&quot;white-space-collapse: preserve;&quot;&gt;movement_id&lt;/span&gt;&amp;nbsp;" style="shape=partialRectangle;connectable=0;fillColor=#DEEEEB;top=0;left=0;bottom=0;right=0;align=left;spacingLeft=6;fontStyle=4;overflow=hidden;html=1;whiteSpace=wrap;strokeColor=inherit;fontFamily=Spline Sans Mono ;fontSource=https%3A%2F%2Ffonts.googleapis.com%2Fcss%3Ffamily%3DSpline%2BSans%2BMono%2B;fontColor=#333E4B;labelBackgroundColor=none;" parent="Fx5C9bnQ34uH0TO9ncKX-35" vertex="1">
          <mxGeometry x="60" width="170" height="30" as="geometry">
            <mxRectangle width="170" height="30" as="alternateBounds" />
          </mxGeometry>
        </mxCell>
        <mxCell id="Fx5C9bnQ34uH0TO9ncKX-38" value="" style="shape=tableRow;horizontal=0;startSize=0;swimlaneHead=0;swimlaneBody=0;fillColor=#DEEEEB;collapsible=0;dropTarget=0;points=[[0,0.5],[1,0.5]];portConstraint=eastwest;top=0;left=0;right=0;bottom=0;html=1;strokeColor=inherit;fontFamily=Spline Sans Mono ;fontSource=https%3A%2F%2Ffonts.googleapis.com%2Fcss%3Ffamily%3DSpline%2BSans%2BMono%2B;fontColor=#333E4B;fontStyle=0;labelBackgroundColor=none;" parent="Fx5C9bnQ34uH0TO9ncKX-34" vertex="1">
          <mxGeometry y="60" width="230" height="30" as="geometry" />
        </mxCell>
        <mxCell id="Fx5C9bnQ34uH0TO9ncKX-39" value="" style="shape=partialRectangle;connectable=0;fillColor=#DEEEEB;top=0;left=0;bottom=0;right=0;editable=1;overflow=hidden;html=1;whiteSpace=wrap;strokeColor=inherit;fontFamily=Spline Sans Mono ;fontSource=https%3A%2F%2Ffonts.googleapis.com%2Fcss%3Ffamily%3DSpline%2BSans%2BMono%2B;fontColor=#333E4B;fontStyle=0;labelBackgroundColor=none;" parent="Fx5C9bnQ34uH0TO9ncKX-38" vertex="1">
          <mxGeometry width="60" height="30" as="geometry">
            <mxRectangle width="60" height="30" as="alternateBounds" />
          </mxGeometry>
        </mxCell>
        <mxCell id="Fx5C9bnQ34uH0TO9ncKX-40" value="&lt;span&gt;&lt;/span&gt;&lt;span&gt;&lt;/span&gt;&lt;span style=&quot;white-space-collapse: preserve;&quot;&gt;movement_timestamp&lt;/span&gt;" style="shape=partialRectangle;connectable=0;fillColor=#DEEEEB;top=0;left=0;bottom=0;right=0;align=left;spacingLeft=6;overflow=hidden;html=1;whiteSpace=wrap;strokeColor=inherit;fontFamily=Spline Sans Mono ;fontSource=https%3A%2F%2Ffonts.googleapis.com%2Fcss%3Ffamily%3DSpline%2BSans%2BMono%2B;fontColor=#333E4B;fontStyle=0;labelBackgroundColor=none;" parent="Fx5C9bnQ34uH0TO9ncKX-38" vertex="1">
          <mxGeometry x="60" width="170" height="30" as="geometry">
            <mxRectangle width="170" height="30" as="alternateBounds" />
          </mxGeometry>
        </mxCell>
        <mxCell id="Fx5C9bnQ34uH0TO9ncKX-41" value="" style="shape=tableRow;horizontal=0;startSize=0;swimlaneHead=0;swimlaneBody=0;fillColor=#DEEEEB;collapsible=0;dropTarget=0;points=[[0,0.5],[1,0.5]];portConstraint=eastwest;top=0;left=0;right=0;bottom=1;html=1;strokeColor=inherit;fontFamily=Spline Sans Mono ;fontSource=https%3A%2F%2Ffonts.googleapis.com%2Fcss%3Ffamily%3DSpline%2BSans%2BMono%2B;fontColor=#333E4B;fontStyle=0;labelBackgroundColor=none;" parent="Fx5C9bnQ34uH0TO9ncKX-34" vertex="1">
          <mxGeometry y="90" width="230" height="30" as="geometry" />
        </mxCell>
        <mxCell id="Fx5C9bnQ34uH0TO9ncKX-42" value="FK" style="shape=partialRectangle;connectable=0;fillColor=#DEEEEB;top=0;left=0;bottom=0;right=0;fontStyle=0;overflow=hidden;html=1;whiteSpace=wrap;strokeColor=inherit;fontFamily=Spline Sans Mono ;fontSource=https%3A%2F%2Ffonts.googleapis.com%2Fcss%3Ffamily%3DSpline%2BSans%2BMono%2B;fontColor=#333E4B;labelBackgroundColor=none;" parent="Fx5C9bnQ34uH0TO9ncKX-41" vertex="1">
          <mxGeometry width="60" height="30" as="geometry">
            <mxRectangle width="60" height="30" as="alternateBounds" />
          </mxGeometry>
        </mxCell>
        <mxCell id="Fx5C9bnQ34uH0TO9ncKX-43" value="&lt;span&gt;&lt;/span&gt;&lt;span style=&quot;white-space-collapse: preserve;&quot;&gt;store_id&lt;/span&gt;&amp;nbsp;" style="shape=partialRectangle;connectable=0;fillColor=#DEEEEB;top=0;left=0;bottom=0;right=0;align=left;spacingLeft=6;fontStyle=4;overflow=hidden;html=1;whiteSpace=wrap;strokeColor=inherit;fontFamily=Spline Sans Mono ;fontSource=https%3A%2F%2Ffonts.googleapis.com%2Fcss%3Ffamily%3DSpline%2BSans%2BMono%2B;fontColor=#333E4B;labelBackgroundColor=none;" parent="Fx5C9bnQ34uH0TO9ncKX-41" vertex="1">
          <mxGeometry x="60" width="170" height="30" as="geometry">
            <mxRectangle width="170" height="30" as="alternateBounds" />
          </mxGeometry>
        </mxCell>
        <mxCell id="Fx5C9bnQ34uH0TO9ncKX-44" style="shape=tableRow;horizontal=0;startSize=0;swimlaneHead=0;swimlaneBody=0;fillColor=#DEEEEB;collapsible=0;dropTarget=0;points=[[0,0.5],[1,0.5]];portConstraint=eastwest;top=0;left=0;right=0;bottom=0;html=1;strokeColor=inherit;fontFamily=Spline Sans Mono ;fontSource=https%3A%2F%2Ffonts.googleapis.com%2Fcss%3Ffamily%3DSpline%2BSans%2BMono%2B;fontColor=#333E4B;fontStyle=0;labelBackgroundColor=none;" parent="Fx5C9bnQ34uH0TO9ncKX-34" vertex="1">
          <mxGeometry y="120" width="230" height="30" as="geometry" />
        </mxCell>
        <mxCell id="Fx5C9bnQ34uH0TO9ncKX-45" value="FK" style="shape=partialRectangle;connectable=0;fillColor=#DEEEEB;top=0;left=0;bottom=0;right=0;fontStyle=0;overflow=hidden;html=1;whiteSpace=wrap;strokeColor=inherit;fontFamily=Spline Sans Mono ;fontSource=https%3A%2F%2Ffonts.googleapis.com%2Fcss%3Ffamily%3DSpline%2BSans%2BMono%2B;fontColor=#333E4B;labelBackgroundColor=none;" parent="Fx5C9bnQ34uH0TO9ncKX-44" vertex="1">
          <mxGeometry width="60" height="30" as="geometry">
            <mxRectangle width="60" height="30" as="alternateBounds" />
          </mxGeometry>
        </mxCell>
        <mxCell id="Fx5C9bnQ34uH0TO9ncKX-46" value="&lt;span&gt;&lt;/span&gt;&lt;span&gt;&lt;/span&gt;&lt;span&gt;&lt;/span&gt;&lt;span style=&quot;white-space-collapse: preserve;&quot;&gt;product_id&lt;/span&gt;" style="shape=partialRectangle;connectable=0;fillColor=#DEEEEB;top=0;left=0;bottom=0;right=0;align=left;spacingLeft=6;fontStyle=4;overflow=hidden;html=1;whiteSpace=wrap;strokeColor=inherit;fontFamily=Spline Sans Mono ;fontSource=https%3A%2F%2Ffonts.googleapis.com%2Fcss%3Ffamily%3DSpline%2BSans%2BMono%2B;fontColor=#333E4B;labelBackgroundColor=none;" parent="Fx5C9bnQ34uH0TO9ncKX-44" vertex="1">
          <mxGeometry x="60" width="170" height="30" as="geometry">
            <mxRectangle width="170" height="30" as="alternateBounds" />
          </mxGeometry>
        </mxCell>
        <mxCell id="RcrwvDNwSDzIbEaf6MxV-194" style="shape=tableRow;horizontal=0;startSize=0;swimlaneHead=0;swimlaneBody=0;fillColor=#DEEEEB;collapsible=0;dropTarget=0;points=[[0,0.5],[1,0.5]];portConstraint=eastwest;top=0;left=0;right=0;bottom=0;html=1;strokeColor=inherit;fontFamily=Spline Sans Mono ;fontSource=https%3A%2F%2Ffonts.googleapis.com%2Fcss%3Ffamily%3DSpline%2BSans%2BMono%2B;fontColor=#333E4B;fontStyle=0;labelBackgroundColor=none;" vertex="1" parent="Fx5C9bnQ34uH0TO9ncKX-34">
          <mxGeometry y="150" width="230" height="30" as="geometry" />
        </mxCell>
        <mxCell id="RcrwvDNwSDzIbEaf6MxV-195" value="FK" style="shape=partialRectangle;connectable=0;fillColor=#DEEEEB;top=0;left=0;bottom=0;right=0;fontStyle=0;overflow=hidden;html=1;whiteSpace=wrap;strokeColor=inherit;fontFamily=Spline Sans Mono ;fontSource=https%3A%2F%2Ffonts.googleapis.com%2Fcss%3Ffamily%3DSpline%2BSans%2BMono%2B;fontColor=#333E4B;labelBackgroundColor=none;" vertex="1" parent="RcrwvDNwSDzIbEaf6MxV-194">
          <mxGeometry width="60" height="30" as="geometry">
            <mxRectangle width="60" height="30" as="alternateBounds" />
          </mxGeometry>
        </mxCell>
        <mxCell id="RcrwvDNwSDzIbEaf6MxV-196" value="reference_id" style="shape=partialRectangle;connectable=0;fillColor=#DEEEEB;top=0;left=0;bottom=0;right=0;align=left;spacingLeft=6;fontStyle=4;overflow=hidden;html=1;whiteSpace=wrap;strokeColor=inherit;fontFamily=Spline Sans Mono ;fontSource=https%3A%2F%2Ffonts.googleapis.com%2Fcss%3Ffamily%3DSpline%2BSans%2BMono%2B;fontColor=#333E4B;labelBackgroundColor=none;" vertex="1" parent="RcrwvDNwSDzIbEaf6MxV-194">
          <mxGeometry x="60" width="170" height="30" as="geometry">
            <mxRectangle width="170" height="30" as="alternateBounds" />
          </mxGeometry>
        </mxCell>
        <mxCell id="RcrwvDNwSDzIbEaf6MxV-191" style="shape=tableRow;horizontal=0;startSize=0;swimlaneHead=0;swimlaneBody=0;fillColor=#DEEEEB;collapsible=0;dropTarget=0;points=[[0,0.5],[1,0.5]];portConstraint=eastwest;top=0;left=0;right=0;bottom=0;html=1;strokeColor=inherit;fontFamily=Spline Sans Mono ;fontSource=https%3A%2F%2Ffonts.googleapis.com%2Fcss%3Ffamily%3DSpline%2BSans%2BMono%2B;fontColor=#333E4B;fontStyle=0;labelBackgroundColor=none;" vertex="1" parent="Fx5C9bnQ34uH0TO9ncKX-34">
          <mxGeometry y="180" width="230" height="30" as="geometry" />
        </mxCell>
        <mxCell id="RcrwvDNwSDzIbEaf6MxV-192" style="shape=partialRectangle;connectable=0;fillColor=#DEEEEB;top=0;left=0;bottom=0;right=0;editable=1;overflow=hidden;html=1;whiteSpace=wrap;strokeColor=inherit;fontFamily=Spline Sans Mono ;fontSource=https%3A%2F%2Ffonts.googleapis.com%2Fcss%3Ffamily%3DSpline%2BSans%2BMono%2B;fontColor=#333E4B;fontStyle=0;labelBackgroundColor=none;" vertex="1" parent="RcrwvDNwSDzIbEaf6MxV-191">
          <mxGeometry width="60" height="30" as="geometry">
            <mxRectangle width="60" height="30" as="alternateBounds" />
          </mxGeometry>
        </mxCell>
        <mxCell id="RcrwvDNwSDzIbEaf6MxV-193" value="movement_type" style="shape=partialRectangle;connectable=0;fillColor=#DEEEEB;top=0;left=0;bottom=0;right=0;align=left;spacingLeft=6;overflow=hidden;html=1;whiteSpace=wrap;strokeColor=inherit;fontFamily=Spline Sans Mono ;fontSource=https%3A%2F%2Ffonts.googleapis.com%2Fcss%3Ffamily%3DSpline%2BSans%2BMono%2B;fontColor=#333E4B;fontStyle=0;labelBackgroundColor=none;" vertex="1" parent="RcrwvDNwSDzIbEaf6MxV-191">
          <mxGeometry x="60" width="170" height="30" as="geometry">
            <mxRectangle width="170" height="30" as="alternateBounds" />
          </mxGeometry>
        </mxCell>
        <mxCell id="Fx5C9bnQ34uH0TO9ncKX-59" value="" style="shape=tableRow;horizontal=0;startSize=0;swimlaneHead=0;swimlaneBody=0;fillColor=#DEEEEB;collapsible=0;dropTarget=0;points=[[0,0.5],[1,0.5]];portConstraint=eastwest;top=0;left=0;right=0;bottom=0;html=1;strokeColor=inherit;fontFamily=Spline Sans Mono ;fontSource=https%3A%2F%2Ffonts.googleapis.com%2Fcss%3Ffamily%3DSpline%2BSans%2BMono%2B;fontColor=#333E4B;fontStyle=0;labelBackgroundColor=none;" parent="Fx5C9bnQ34uH0TO9ncKX-34" vertex="1">
          <mxGeometry y="210" width="230" height="30" as="geometry" />
        </mxCell>
        <mxCell id="Fx5C9bnQ34uH0TO9ncKX-60" value="" style="shape=partialRectangle;connectable=0;fillColor=#DEEEEB;top=0;left=0;bottom=0;right=0;editable=1;overflow=hidden;html=1;whiteSpace=wrap;strokeColor=inherit;fontFamily=Spline Sans Mono ;fontSource=https%3A%2F%2Ffonts.googleapis.com%2Fcss%3Ffamily%3DSpline%2BSans%2BMono%2B;fontColor=#333E4B;fontStyle=0;labelBackgroundColor=none;" parent="Fx5C9bnQ34uH0TO9ncKX-59" vertex="1">
          <mxGeometry width="60" height="30" as="geometry">
            <mxRectangle width="60" height="30" as="alternateBounds" />
          </mxGeometry>
        </mxCell>
        <mxCell id="Fx5C9bnQ34uH0TO9ncKX-61" value="&lt;span&gt;&lt;/span&gt;&lt;span style=&quot;white-space-collapse: preserve;&quot;&gt;quantity_change&lt;/span&gt;&amp;nbsp;" style="shape=partialRectangle;connectable=0;fillColor=#DEEEEB;top=0;left=0;bottom=0;right=0;align=left;spacingLeft=6;overflow=hidden;html=1;whiteSpace=wrap;strokeColor=inherit;fontFamily=Spline Sans Mono ;fontSource=https%3A%2F%2Ffonts.googleapis.com%2Fcss%3Ffamily%3DSpline%2BSans%2BMono%2B;fontColor=#333E4B;fontStyle=0;labelBackgroundColor=none;" parent="Fx5C9bnQ34uH0TO9ncKX-59" vertex="1">
          <mxGeometry x="60" width="170" height="30" as="geometry">
            <mxRectangle width="170" height="30" as="alternateBounds" />
          </mxGeometry>
        </mxCell>
        <mxCell id="Fx5C9bnQ34uH0TO9ncKX-74" value="&lt;span&gt;&lt;/span&gt;&lt;span&gt;&lt;/span&gt;&lt;span&gt;&lt;/span&gt;&lt;span style=&quot;white-space-collapse: preserve;&quot;&gt;&lt;font style=&quot;&quot; data-font-src=&quot;https://fonts.googleapis.com/css?family=Spline+Sans+Mono+SemiBold&quot;&gt;transaction_items&lt;/font&gt;&lt;/span&gt;" style="shape=table;startSize=30;container=1;collapsible=1;childLayout=tableLayout;fixedRows=1;rowLines=0;fontStyle=1;align=center;resizeLast=1;html=1;whiteSpace=wrap;fillStyle=solid;fillColor=#83C6CC;strokeColor=none;fontFamily=Spline Sans Mono SemiBold;fontSource=https%3A%2F%2Ffonts.googleapis.com%2Fcss%3Ffamily%3DSpline%2BSans%2BMono%2BSemiBold;labelBackgroundColor=none;fontColor=#333E4B;" parent="1" vertex="1">
          <mxGeometry x="535" y="223" width="230" height="240" as="geometry" />
        </mxCell>
        <mxCell id="Fx5C9bnQ34uH0TO9ncKX-75" value="" style="shape=tableRow;horizontal=0;startSize=0;swimlaneHead=0;swimlaneBody=0;fillColor=#DEEEEB;collapsible=0;dropTarget=0;points=[[0,0.5],[1,0.5]];portConstraint=eastwest;top=0;left=0;right=0;bottom=0;html=1;strokeColor=inherit;fontFamily=Spline Sans Mono ;fontSource=https%3A%2F%2Ffonts.googleapis.com%2Fcss%3Ffamily%3DSpline%2BSans%2BMono%2B;fontColor=#333E4B;fontStyle=0;labelBackgroundColor=none;" parent="Fx5C9bnQ34uH0TO9ncKX-74" vertex="1">
          <mxGeometry y="30" width="230" height="30" as="geometry" />
        </mxCell>
        <mxCell id="Fx5C9bnQ34uH0TO9ncKX-76" value="PK" style="shape=partialRectangle;connectable=0;fillColor=#DEEEEB;top=0;left=0;bottom=0;right=0;fontStyle=0;overflow=hidden;html=1;whiteSpace=wrap;strokeColor=inherit;fontFamily=Spline Sans Mono ;fontSource=https%3A%2F%2Ffonts.googleapis.com%2Fcss%3Ffamily%3DSpline%2BSans%2BMono%2B;fontColor=#333E4B;labelBackgroundColor=none;" parent="Fx5C9bnQ34uH0TO9ncKX-75" vertex="1">
          <mxGeometry width="60" height="30" as="geometry">
            <mxRectangle width="60" height="30" as="alternateBounds" />
          </mxGeometry>
        </mxCell>
        <mxCell id="Fx5C9bnQ34uH0TO9ncKX-77" value="&lt;span&gt;&lt;/span&gt;&lt;span&gt;&lt;/span&gt;&lt;span&gt;&lt;/span&gt;&lt;span style=&quot;white-space-collapse: preserve;&quot;&gt;transaction_item_id&lt;/span&gt;" style="shape=partialRectangle;connectable=0;fillColor=#DEEEEB;top=0;left=0;bottom=0;right=0;align=left;spacingLeft=6;fontStyle=4;overflow=hidden;html=1;whiteSpace=wrap;strokeColor=inherit;fontFamily=Spline Sans Mono ;fontSource=https%3A%2F%2Ffonts.googleapis.com%2Fcss%3Ffamily%3DSpline%2BSans%2BMono%2B;fontColor=#333E4B;labelBackgroundColor=none;" parent="Fx5C9bnQ34uH0TO9ncKX-75" vertex="1">
          <mxGeometry x="60" width="170" height="30" as="geometry">
            <mxRectangle width="170" height="30" as="alternateBounds" />
          </mxGeometry>
        </mxCell>
        <mxCell id="Fx5C9bnQ34uH0TO9ncKX-78" value="" style="shape=tableRow;horizontal=0;startSize=0;swimlaneHead=0;swimlaneBody=0;fillColor=#DEEEEB;collapsible=0;dropTarget=0;points=[[0,0.5],[1,0.5]];portConstraint=eastwest;top=0;left=0;right=0;bottom=0;html=1;strokeColor=inherit;fontFamily=Spline Sans Mono ;fontSource=https%3A%2F%2Ffonts.googleapis.com%2Fcss%3Ffamily%3DSpline%2BSans%2BMono%2B;fontColor=#333E4B;fontStyle=0;labelBackgroundColor=none;" parent="Fx5C9bnQ34uH0TO9ncKX-74" vertex="1">
          <mxGeometry y="60" width="230" height="30" as="geometry" />
        </mxCell>
        <mxCell id="Fx5C9bnQ34uH0TO9ncKX-79" value="" style="shape=partialRectangle;connectable=0;fillColor=#DEEEEB;top=0;left=0;bottom=0;right=0;editable=1;overflow=hidden;html=1;whiteSpace=wrap;strokeColor=inherit;fontFamily=Spline Sans Mono ;fontSource=https%3A%2F%2Ffonts.googleapis.com%2Fcss%3Ffamily%3DSpline%2BSans%2BMono%2B;fontColor=#333E4B;fontStyle=0;labelBackgroundColor=none;" parent="Fx5C9bnQ34uH0TO9ncKX-78" vertex="1">
          <mxGeometry width="60" height="30" as="geometry">
            <mxRectangle width="60" height="30" as="alternateBounds" />
          </mxGeometry>
        </mxCell>
        <mxCell id="Fx5C9bnQ34uH0TO9ncKX-80" value="&lt;span&gt;&lt;/span&gt;&lt;span&gt;&lt;/span&gt;&lt;span style=&quot;white-space-collapse: preserve;&quot;&gt;timestamp&lt;/span&gt;" style="shape=partialRectangle;connectable=0;fillColor=#DEEEEB;top=0;left=0;bottom=0;right=0;align=left;spacingLeft=6;overflow=hidden;html=1;whiteSpace=wrap;strokeColor=inherit;fontFamily=Spline Sans Mono ;fontSource=https%3A%2F%2Ffonts.googleapis.com%2Fcss%3Ffamily%3DSpline%2BSans%2BMono%2B;fontColor=#333E4B;fontStyle=0;labelBackgroundColor=none;" parent="Fx5C9bnQ34uH0TO9ncKX-78" vertex="1">
          <mxGeometry x="60" width="170" height="30" as="geometry">
            <mxRectangle width="170" height="30" as="alternateBounds" />
          </mxGeometry>
        </mxCell>
        <mxCell id="Fx5C9bnQ34uH0TO9ncKX-81" value="" style="shape=tableRow;horizontal=0;startSize=0;swimlaneHead=0;swimlaneBody=0;fillColor=#DEEEEB;collapsible=0;dropTarget=0;points=[[0,0.5],[1,0.5]];portConstraint=eastwest;top=0;left=0;right=0;bottom=1;html=1;strokeColor=inherit;fontFamily=Spline Sans Mono ;fontSource=https%3A%2F%2Ffonts.googleapis.com%2Fcss%3Ffamily%3DSpline%2BSans%2BMono%2B;fontColor=#333E4B;fontStyle=0;labelBackgroundColor=none;" parent="Fx5C9bnQ34uH0TO9ncKX-74" vertex="1">
          <mxGeometry y="90" width="230" height="30" as="geometry" />
        </mxCell>
        <mxCell id="Fx5C9bnQ34uH0TO9ncKX-82" value="FK" style="shape=partialRectangle;connectable=0;fillColor=#DEEEEB;top=0;left=0;bottom=0;right=0;fontStyle=0;overflow=hidden;html=1;whiteSpace=wrap;strokeColor=inherit;fontFamily=Spline Sans Mono ;fontSource=https%3A%2F%2Ffonts.googleapis.com%2Fcss%3Ffamily%3DSpline%2BSans%2BMono%2B;fontColor=#333E4B;labelBackgroundColor=none;" parent="Fx5C9bnQ34uH0TO9ncKX-81" vertex="1">
          <mxGeometry width="60" height="30" as="geometry">
            <mxRectangle width="60" height="30" as="alternateBounds" />
          </mxGeometry>
        </mxCell>
        <mxCell id="Fx5C9bnQ34uH0TO9ncKX-83" value="&lt;span&gt;&lt;/span&gt;&lt;span&gt;&lt;/span&gt;&lt;span&gt;&lt;/span&gt;&lt;span style=&quot;white-space-collapse: preserve;&quot;&gt;transaction_id&lt;/span&gt;" style="shape=partialRectangle;connectable=0;fillColor=#DEEEEB;top=0;left=0;bottom=0;right=0;align=left;spacingLeft=6;fontStyle=4;overflow=hidden;html=1;whiteSpace=wrap;strokeColor=inherit;fontFamily=Spline Sans Mono ;fontSource=https%3A%2F%2Ffonts.googleapis.com%2Fcss%3Ffamily%3DSpline%2BSans%2BMono%2B;fontColor=#333E4B;labelBackgroundColor=none;" parent="Fx5C9bnQ34uH0TO9ncKX-81" vertex="1">
          <mxGeometry x="60" width="170" height="30" as="geometry">
            <mxRectangle width="170" height="30" as="alternateBounds" />
          </mxGeometry>
        </mxCell>
        <mxCell id="Fx5C9bnQ34uH0TO9ncKX-84" style="shape=tableRow;horizontal=0;startSize=0;swimlaneHead=0;swimlaneBody=0;fillColor=#DEEEEB;collapsible=0;dropTarget=0;points=[[0,0.5],[1,0.5]];portConstraint=eastwest;top=0;left=0;right=0;bottom=0;html=1;strokeColor=inherit;fontFamily=Spline Sans Mono ;fontSource=https%3A%2F%2Ffonts.googleapis.com%2Fcss%3Ffamily%3DSpline%2BSans%2BMono%2B;fontColor=#333E4B;fontStyle=0;labelBackgroundColor=none;" parent="Fx5C9bnQ34uH0TO9ncKX-74" vertex="1">
          <mxGeometry y="120" width="230" height="30" as="geometry" />
        </mxCell>
        <mxCell id="Fx5C9bnQ34uH0TO9ncKX-85" value="FK" style="shape=partialRectangle;connectable=0;fillColor=#DEEEEB;top=0;left=0;bottom=0;right=0;fontStyle=0;overflow=hidden;html=1;whiteSpace=wrap;strokeColor=inherit;fontFamily=Spline Sans Mono ;fontSource=https%3A%2F%2Ffonts.googleapis.com%2Fcss%3Ffamily%3DSpline%2BSans%2BMono%2B;fontColor=#333E4B;labelBackgroundColor=none;" parent="Fx5C9bnQ34uH0TO9ncKX-84" vertex="1">
          <mxGeometry width="60" height="30" as="geometry">
            <mxRectangle width="60" height="30" as="alternateBounds" />
          </mxGeometry>
        </mxCell>
        <mxCell id="Fx5C9bnQ34uH0TO9ncKX-86" value="&lt;span&gt;&lt;/span&gt;&lt;span&gt;&lt;/span&gt;&lt;span&gt;&lt;/span&gt;&lt;span style=&quot;white-space-collapse: preserve;&quot;&gt;product_id&lt;/span&gt;" style="shape=partialRectangle;connectable=0;fillColor=#DEEEEB;top=0;left=0;bottom=0;right=0;align=left;spacingLeft=6;fontStyle=4;overflow=hidden;html=1;whiteSpace=wrap;strokeColor=inherit;fontFamily=Spline Sans Mono ;fontSource=https%3A%2F%2Ffonts.googleapis.com%2Fcss%3Ffamily%3DSpline%2BSans%2BMono%2B;fontColor=#333E4B;labelBackgroundColor=none;" parent="Fx5C9bnQ34uH0TO9ncKX-84" vertex="1">
          <mxGeometry x="60" width="170" height="30" as="geometry">
            <mxRectangle width="170" height="30" as="alternateBounds" />
          </mxGeometry>
        </mxCell>
        <mxCell id="Fx5C9bnQ34uH0TO9ncKX-87" value="" style="shape=tableRow;horizontal=0;startSize=0;swimlaneHead=0;swimlaneBody=0;fillColor=#DEEEEB;collapsible=0;dropTarget=0;points=[[0,0.5],[1,0.5]];portConstraint=eastwest;top=0;left=0;right=0;bottom=0;html=1;strokeColor=inherit;fontFamily=Spline Sans Mono ;fontSource=https%3A%2F%2Ffonts.googleapis.com%2Fcss%3Ffamily%3DSpline%2BSans%2BMono%2B;fontColor=#333E4B;fontStyle=0;labelBackgroundColor=none;" parent="Fx5C9bnQ34uH0TO9ncKX-74" vertex="1">
          <mxGeometry y="150" width="230" height="30" as="geometry" />
        </mxCell>
        <mxCell id="Fx5C9bnQ34uH0TO9ncKX-88" value="" style="shape=partialRectangle;connectable=0;fillColor=#DEEEEB;top=0;left=0;bottom=0;right=0;editable=1;overflow=hidden;html=1;whiteSpace=wrap;strokeColor=inherit;fontFamily=Spline Sans Mono ;fontSource=https%3A%2F%2Ffonts.googleapis.com%2Fcss%3Ffamily%3DSpline%2BSans%2BMono%2B;fontColor=#333E4B;fontStyle=0;labelBackgroundColor=none;" parent="Fx5C9bnQ34uH0TO9ncKX-87" vertex="1">
          <mxGeometry width="60" height="30" as="geometry">
            <mxRectangle width="60" height="30" as="alternateBounds" />
          </mxGeometry>
        </mxCell>
        <mxCell id="Fx5C9bnQ34uH0TO9ncKX-89" value="&lt;span&gt;&lt;/span&gt;&lt;span&gt;&lt;/span&gt;&lt;span&gt;&lt;/span&gt;&lt;span style=&quot;white-space-collapse: preserve;&quot;&gt;quantity&lt;/span&gt;" style="shape=partialRectangle;connectable=0;fillColor=#DEEEEB;top=0;left=0;bottom=0;right=0;align=left;spacingLeft=6;overflow=hidden;html=1;whiteSpace=wrap;strokeColor=inherit;fontFamily=Spline Sans Mono ;fontSource=https%3A%2F%2Ffonts.googleapis.com%2Fcss%3Ffamily%3DSpline%2BSans%2BMono%2B;fontColor=#333E4B;fontStyle=0;labelBackgroundColor=none;" parent="Fx5C9bnQ34uH0TO9ncKX-87" vertex="1">
          <mxGeometry x="60" width="170" height="30" as="geometry">
            <mxRectangle width="170" height="30" as="alternateBounds" />
          </mxGeometry>
        </mxCell>
        <mxCell id="Fx5C9bnQ34uH0TO9ncKX-90" style="shape=tableRow;horizontal=0;startSize=0;swimlaneHead=0;swimlaneBody=0;fillColor=#DEEEEB;collapsible=0;dropTarget=0;points=[[0,0.5],[1,0.5]];portConstraint=eastwest;top=0;left=0;right=0;bottom=0;html=1;strokeColor=inherit;fontFamily=Spline Sans Mono ;fontSource=https%3A%2F%2Ffonts.googleapis.com%2Fcss%3Ffamily%3DSpline%2BSans%2BMono%2B;fontColor=#333E4B;fontStyle=0;labelBackgroundColor=none;" parent="Fx5C9bnQ34uH0TO9ncKX-74" vertex="1">
          <mxGeometry y="180" width="230" height="30" as="geometry" />
        </mxCell>
        <mxCell id="Fx5C9bnQ34uH0TO9ncKX-91" style="shape=partialRectangle;connectable=0;fillColor=#DEEEEB;top=0;left=0;bottom=0;right=0;editable=1;overflow=hidden;html=1;whiteSpace=wrap;strokeColor=inherit;fontFamily=Spline Sans Mono ;fontSource=https%3A%2F%2Ffonts.googleapis.com%2Fcss%3Ffamily%3DSpline%2BSans%2BMono%2B;fontColor=#333E4B;fontStyle=0;labelBackgroundColor=none;" parent="Fx5C9bnQ34uH0TO9ncKX-90" vertex="1">
          <mxGeometry width="60" height="30" as="geometry">
            <mxRectangle width="60" height="30" as="alternateBounds" />
          </mxGeometry>
        </mxCell>
        <mxCell id="Fx5C9bnQ34uH0TO9ncKX-92" value="&lt;span&gt;&lt;/span&gt;&lt;span&gt;&lt;/span&gt;&lt;span style=&quot;white-space-collapse: preserve;&quot;&gt;unit_price&lt;/span&gt;" style="shape=partialRectangle;connectable=0;fillColor=#DEEEEB;top=0;left=0;bottom=0;right=0;align=left;spacingLeft=6;overflow=hidden;html=1;whiteSpace=wrap;strokeColor=inherit;fontFamily=Spline Sans Mono ;fontSource=https%3A%2F%2Ffonts.googleapis.com%2Fcss%3Ffamily%3DSpline%2BSans%2BMono%2B;fontColor=#333E4B;fontStyle=0;labelBackgroundColor=none;" parent="Fx5C9bnQ34uH0TO9ncKX-90" vertex="1">
          <mxGeometry x="60" width="170" height="30" as="geometry">
            <mxRectangle width="170" height="30" as="alternateBounds" />
          </mxGeometry>
        </mxCell>
        <mxCell id="Fx5C9bnQ34uH0TO9ncKX-93" style="shape=tableRow;horizontal=0;startSize=0;swimlaneHead=0;swimlaneBody=0;fillColor=#DEEEEB;collapsible=0;dropTarget=0;points=[[0,0.5],[1,0.5]];portConstraint=eastwest;top=0;left=0;right=0;bottom=0;html=1;strokeColor=inherit;fontFamily=Spline Sans Mono ;fontSource=https%3A%2F%2Ffonts.googleapis.com%2Fcss%3Ffamily%3DSpline%2BSans%2BMono%2B;fontColor=#333E4B;fontStyle=0;labelBackgroundColor=none;" parent="Fx5C9bnQ34uH0TO9ncKX-74" vertex="1">
          <mxGeometry y="210" width="230" height="30" as="geometry" />
        </mxCell>
        <mxCell id="Fx5C9bnQ34uH0TO9ncKX-94" style="shape=partialRectangle;connectable=0;fillColor=#DEEEEB;top=0;left=0;bottom=0;right=0;editable=1;overflow=hidden;html=1;whiteSpace=wrap;strokeColor=inherit;fontFamily=Spline Sans Mono ;fontSource=https%3A%2F%2Ffonts.googleapis.com%2Fcss%3Ffamily%3DSpline%2BSans%2BMono%2B;fontColor=#333E4B;fontStyle=0;labelBackgroundColor=none;" parent="Fx5C9bnQ34uH0TO9ncKX-93" vertex="1">
          <mxGeometry width="60" height="30" as="geometry">
            <mxRectangle width="60" height="30" as="alternateBounds" />
          </mxGeometry>
        </mxCell>
        <mxCell id="Fx5C9bnQ34uH0TO9ncKX-95" value="&lt;span&gt;&lt;/span&gt;&lt;span&gt;&lt;/span&gt;&lt;span style=&quot;white-space-collapse: preserve;&quot;&gt;final_price&lt;/span&gt;" style="shape=partialRectangle;connectable=0;fillColor=#DEEEEB;top=0;left=0;bottom=0;right=0;align=left;spacingLeft=6;overflow=hidden;html=1;whiteSpace=wrap;strokeColor=inherit;fontFamily=Spline Sans Mono ;fontSource=https%3A%2F%2Ffonts.googleapis.com%2Fcss%3Ffamily%3DSpline%2BSans%2BMono%2B;fontColor=#333E4B;fontStyle=0;labelBackgroundColor=none;" parent="Fx5C9bnQ34uH0TO9ncKX-93" vertex="1">
          <mxGeometry x="60" width="170" height="30" as="geometry">
            <mxRectangle width="170" height="30" as="alternateBounds" />
          </mxGeometry>
        </mxCell>
        <mxCell id="Fx5C9bnQ34uH0TO9ncKX-96" value="&lt;span&gt;&lt;/span&gt;&lt;span&gt;&lt;/span&gt;&lt;span&gt;&lt;/span&gt;&lt;span style=&quot;white-space-collapse: preserve;&quot;&gt;&lt;font style=&quot;&quot; data-font-src=&quot;https://fonts.googleapis.com/css?family=Spline+Sans+Mono+SemiBold&quot;&gt;shipments&lt;/font&gt;&lt;/span&gt;" style="shape=table;startSize=30;container=1;collapsible=1;childLayout=tableLayout;fixedRows=1;rowLines=0;fontStyle=1;align=center;resizeLast=1;html=1;whiteSpace=wrap;fillStyle=solid;fillColor=#83C6CC;strokeColor=none;fontFamily=Spline Sans Mono SemiBold;fontSource=https%3A%2F%2Ffonts.googleapis.com%2Fcss%3Ffamily%3DSpline%2BSans%2BMono%2BSemiBold;labelBackgroundColor=none;fontColor=#333E4B;" parent="1" vertex="1">
          <mxGeometry x="335" y="731" width="273" height="240" as="geometry" />
        </mxCell>
        <mxCell id="RcrwvDNwSDzIbEaf6MxV-54" style="shape=tableRow;horizontal=0;startSize=0;swimlaneHead=0;swimlaneBody=0;fillColor=#DEEEEB;collapsible=0;dropTarget=0;points=[[0,0.5],[1,0.5]];portConstraint=eastwest;top=0;left=0;right=0;bottom=0;html=1;strokeColor=inherit;fontFamily=Spline Sans Mono ;fontSource=https%3A%2F%2Ffonts.googleapis.com%2Fcss%3Ffamily%3DSpline%2BSans%2BMono%2B;fontColor=#333E4B;fontStyle=0;labelBackgroundColor=none;" vertex="1" parent="Fx5C9bnQ34uH0TO9ncKX-96">
          <mxGeometry y="30" width="273" height="30" as="geometry" />
        </mxCell>
        <mxCell id="RcrwvDNwSDzIbEaf6MxV-55" value="PK" style="shape=partialRectangle;connectable=0;fillColor=#DEEEEB;top=0;left=0;bottom=0;right=0;fontStyle=0;overflow=hidden;html=1;whiteSpace=wrap;strokeColor=inherit;fontFamily=Spline Sans Mono ;fontSource=https%3A%2F%2Ffonts.googleapis.com%2Fcss%3Ffamily%3DSpline%2BSans%2BMono%2B;fontColor=#333E4B;labelBackgroundColor=none;" vertex="1" parent="RcrwvDNwSDzIbEaf6MxV-54">
          <mxGeometry width="60" height="30" as="geometry">
            <mxRectangle width="60" height="30" as="alternateBounds" />
          </mxGeometry>
        </mxCell>
        <mxCell id="RcrwvDNwSDzIbEaf6MxV-56" value="order_id" style="shape=partialRectangle;connectable=0;fillColor=#DEEEEB;top=0;left=0;bottom=0;right=0;align=left;spacingLeft=6;fontStyle=4;overflow=hidden;html=1;whiteSpace=wrap;strokeColor=inherit;fontFamily=Spline Sans Mono ;fontSource=https%3A%2F%2Ffonts.googleapis.com%2Fcss%3Ffamily%3DSpline%2BSans%2BMono%2B;fontColor=#333E4B;labelBackgroundColor=none;" vertex="1" parent="RcrwvDNwSDzIbEaf6MxV-54">
          <mxGeometry x="60" width="213" height="30" as="geometry">
            <mxRectangle width="213" height="30" as="alternateBounds" />
          </mxGeometry>
        </mxCell>
        <mxCell id="Fx5C9bnQ34uH0TO9ncKX-100" value="" style="shape=tableRow;horizontal=0;startSize=0;swimlaneHead=0;swimlaneBody=0;fillColor=#DEEEEB;collapsible=0;dropTarget=0;points=[[0,0.5],[1,0.5]];portConstraint=eastwest;top=0;left=0;right=0;bottom=0;html=1;strokeColor=inherit;fontFamily=Spline Sans Mono ;fontSource=https%3A%2F%2Ffonts.googleapis.com%2Fcss%3Ffamily%3DSpline%2BSans%2BMono%2B;fontColor=#333E4B;fontStyle=0;labelBackgroundColor=none;" parent="Fx5C9bnQ34uH0TO9ncKX-96" vertex="1">
          <mxGeometry y="60" width="273" height="30" as="geometry" />
        </mxCell>
        <mxCell id="Fx5C9bnQ34uH0TO9ncKX-101" value="" style="shape=partialRectangle;connectable=0;fillColor=#DEEEEB;top=0;left=0;bottom=0;right=0;editable=1;overflow=hidden;html=1;whiteSpace=wrap;strokeColor=inherit;fontFamily=Spline Sans Mono ;fontSource=https%3A%2F%2Ffonts.googleapis.com%2Fcss%3Ffamily%3DSpline%2BSans%2BMono%2B;fontColor=#333E4B;fontStyle=0;labelBackgroundColor=none;" parent="Fx5C9bnQ34uH0TO9ncKX-100" vertex="1">
          <mxGeometry width="60" height="30" as="geometry">
            <mxRectangle width="60" height="30" as="alternateBounds" />
          </mxGeometry>
        </mxCell>
        <mxCell id="Fx5C9bnQ34uH0TO9ncKX-102" value="&lt;span&gt;&lt;/span&gt;&lt;span&gt;&lt;/span&gt;&lt;span style=&quot;white-space-collapse: preserve;&quot;&gt;timestamp&lt;/span&gt;" style="shape=partialRectangle;connectable=0;fillColor=#DEEEEB;top=0;left=0;bottom=0;right=0;align=left;spacingLeft=6;overflow=hidden;html=1;whiteSpace=wrap;strokeColor=inherit;fontFamily=Spline Sans Mono ;fontSource=https%3A%2F%2Ffonts.googleapis.com%2Fcss%3Ffamily%3DSpline%2BSans%2BMono%2B;fontColor=#333E4B;fontStyle=0;labelBackgroundColor=none;" parent="Fx5C9bnQ34uH0TO9ncKX-100" vertex="1">
          <mxGeometry x="60" width="213" height="30" as="geometry">
            <mxRectangle width="213" height="30" as="alternateBounds" />
          </mxGeometry>
        </mxCell>
        <mxCell id="Fx5C9bnQ34uH0TO9ncKX-103" value="" style="shape=tableRow;horizontal=0;startSize=0;swimlaneHead=0;swimlaneBody=0;fillColor=#DEEEEB;collapsible=0;dropTarget=0;points=[[0,0.5],[1,0.5]];portConstraint=eastwest;top=0;left=0;right=0;bottom=1;html=1;strokeColor=inherit;fontFamily=Spline Sans Mono ;fontSource=https%3A%2F%2Ffonts.googleapis.com%2Fcss%3Ffamily%3DSpline%2BSans%2BMono%2B;fontColor=#333E4B;fontStyle=0;labelBackgroundColor=none;" parent="Fx5C9bnQ34uH0TO9ncKX-96" vertex="1">
          <mxGeometry y="90" width="273" height="30" as="geometry" />
        </mxCell>
        <mxCell id="Fx5C9bnQ34uH0TO9ncKX-104" value="FK" style="shape=partialRectangle;connectable=0;fillColor=#DEEEEB;top=0;left=0;bottom=0;right=0;fontStyle=0;overflow=hidden;html=1;whiteSpace=wrap;strokeColor=inherit;fontFamily=Spline Sans Mono ;fontSource=https%3A%2F%2Ffonts.googleapis.com%2Fcss%3Ffamily%3DSpline%2BSans%2BMono%2B;fontColor=#333E4B;labelBackgroundColor=none;" parent="Fx5C9bnQ34uH0TO9ncKX-103" vertex="1">
          <mxGeometry width="60" height="30" as="geometry">
            <mxRectangle width="60" height="30" as="alternateBounds" />
          </mxGeometry>
        </mxCell>
        <mxCell id="Fx5C9bnQ34uH0TO9ncKX-105" value="&lt;span&gt;&lt;/span&gt;&lt;span style=&quot;white-space-collapse: preserve;&quot;&gt;priority_id&lt;/span&gt;" style="shape=partialRectangle;connectable=0;fillColor=#DEEEEB;top=0;left=0;bottom=0;right=0;align=left;spacingLeft=6;fontStyle=4;overflow=hidden;html=1;whiteSpace=wrap;strokeColor=inherit;fontFamily=Spline Sans Mono ;fontSource=https%3A%2F%2Ffonts.googleapis.com%2Fcss%3Ffamily%3DSpline%2BSans%2BMono%2B;fontColor=#333E4B;labelBackgroundColor=none;" parent="Fx5C9bnQ34uH0TO9ncKX-103" vertex="1">
          <mxGeometry x="60" width="213" height="30" as="geometry">
            <mxRectangle width="213" height="30" as="alternateBounds" />
          </mxGeometry>
        </mxCell>
        <mxCell id="Fx5C9bnQ34uH0TO9ncKX-106" style="shape=tableRow;horizontal=0;startSize=0;swimlaneHead=0;swimlaneBody=0;fillColor=#DEEEEB;collapsible=0;dropTarget=0;points=[[0,0.5],[1,0.5]];portConstraint=eastwest;top=0;left=0;right=0;bottom=0;html=1;strokeColor=inherit;fontFamily=Spline Sans Mono ;fontSource=https%3A%2F%2Ffonts.googleapis.com%2Fcss%3Ffamily%3DSpline%2BSans%2BMono%2B;fontColor=#333E4B;fontStyle=0;labelBackgroundColor=none;" parent="Fx5C9bnQ34uH0TO9ncKX-96" vertex="1">
          <mxGeometry y="120" width="273" height="30" as="geometry" />
        </mxCell>
        <mxCell id="Fx5C9bnQ34uH0TO9ncKX-107" value="FK" style="shape=partialRectangle;connectable=0;fillColor=#DEEEEB;top=0;left=0;bottom=0;right=0;fontStyle=0;overflow=hidden;html=1;whiteSpace=wrap;strokeColor=inherit;fontFamily=Spline Sans Mono ;fontSource=https%3A%2F%2Ffonts.googleapis.com%2Fcss%3Ffamily%3DSpline%2BSans%2BMono%2B;fontColor=#333E4B;labelBackgroundColor=none;" parent="Fx5C9bnQ34uH0TO9ncKX-106" vertex="1">
          <mxGeometry width="60" height="30" as="geometry">
            <mxRectangle width="60" height="30" as="alternateBounds" />
          </mxGeometry>
        </mxCell>
        <mxCell id="Fx5C9bnQ34uH0TO9ncKX-108" value="&lt;span&gt;&lt;/span&gt;&lt;span style=&quot;white-space-collapse: preserve;&quot;&gt;carrier_id&lt;/span&gt;" style="shape=partialRectangle;connectable=0;fillColor=#DEEEEB;top=0;left=0;bottom=0;right=0;align=left;spacingLeft=6;fontStyle=4;overflow=hidden;html=1;whiteSpace=wrap;strokeColor=inherit;fontFamily=Spline Sans Mono ;fontSource=https%3A%2F%2Ffonts.googleapis.com%2Fcss%3Ffamily%3DSpline%2BSans%2BMono%2B;fontColor=#333E4B;labelBackgroundColor=none;" parent="Fx5C9bnQ34uH0TO9ncKX-106" vertex="1">
          <mxGeometry x="60" width="213" height="30" as="geometry">
            <mxRectangle width="213" height="30" as="alternateBounds" />
          </mxGeometry>
        </mxCell>
        <mxCell id="Fx5C9bnQ34uH0TO9ncKX-109" value="" style="shape=tableRow;horizontal=0;startSize=0;swimlaneHead=0;swimlaneBody=0;fillColor=#DEEEEB;collapsible=0;dropTarget=0;points=[[0,0.5],[1,0.5]];portConstraint=eastwest;top=0;left=0;right=0;bottom=0;html=1;strokeColor=inherit;fontFamily=Spline Sans Mono ;fontSource=https%3A%2F%2Ffonts.googleapis.com%2Fcss%3Ffamily%3DSpline%2BSans%2BMono%2B;fontColor=#333E4B;fontStyle=0;labelBackgroundColor=none;" parent="Fx5C9bnQ34uH0TO9ncKX-96" vertex="1">
          <mxGeometry y="150" width="273" height="30" as="geometry" />
        </mxCell>
        <mxCell id="Fx5C9bnQ34uH0TO9ncKX-110" value="" style="shape=partialRectangle;connectable=0;fillColor=#DEEEEB;top=0;left=0;bottom=0;right=0;editable=1;overflow=hidden;html=1;whiteSpace=wrap;strokeColor=inherit;fontFamily=Spline Sans Mono ;fontSource=https%3A%2F%2Ffonts.googleapis.com%2Fcss%3Ffamily%3DSpline%2BSans%2BMono%2B;fontColor=#333E4B;fontStyle=0;labelBackgroundColor=none;" parent="Fx5C9bnQ34uH0TO9ncKX-109" vertex="1">
          <mxGeometry width="60" height="30" as="geometry">
            <mxRectangle width="60" height="30" as="alternateBounds" />
          </mxGeometry>
        </mxCell>
        <mxCell id="Fx5C9bnQ34uH0TO9ncKX-111" value="&lt;span&gt;&lt;/span&gt;&lt;span&gt;&lt;/span&gt;&lt;span&gt;&lt;/span&gt;&lt;span style=&quot;white-space-collapse: preserve;&quot;&gt;shipment_status&lt;/span&gt;" style="shape=partialRectangle;connectable=0;fillColor=#DEEEEB;top=0;left=0;bottom=0;right=0;align=left;spacingLeft=6;overflow=hidden;html=1;whiteSpace=wrap;strokeColor=inherit;fontFamily=Spline Sans Mono ;fontSource=https%3A%2F%2Ffonts.googleapis.com%2Fcss%3Ffamily%3DSpline%2BSans%2BMono%2B;fontColor=#333E4B;fontStyle=0;labelBackgroundColor=none;" parent="Fx5C9bnQ34uH0TO9ncKX-109" vertex="1">
          <mxGeometry x="60" width="213" height="30" as="geometry">
            <mxRectangle width="213" height="30" as="alternateBounds" />
          </mxGeometry>
        </mxCell>
        <mxCell id="Fx5C9bnQ34uH0TO9ncKX-112" style="shape=tableRow;horizontal=0;startSize=0;swimlaneHead=0;swimlaneBody=0;fillColor=#DEEEEB;collapsible=0;dropTarget=0;points=[[0,0.5],[1,0.5]];portConstraint=eastwest;top=0;left=0;right=0;bottom=0;html=1;strokeColor=inherit;fontFamily=Spline Sans Mono ;fontSource=https%3A%2F%2Ffonts.googleapis.com%2Fcss%3Ffamily%3DSpline%2BSans%2BMono%2B;fontColor=#333E4B;fontStyle=0;labelBackgroundColor=none;" parent="Fx5C9bnQ34uH0TO9ncKX-96" vertex="1">
          <mxGeometry y="180" width="273" height="30" as="geometry" />
        </mxCell>
        <mxCell id="Fx5C9bnQ34uH0TO9ncKX-113" style="shape=partialRectangle;connectable=0;fillColor=#DEEEEB;top=0;left=0;bottom=0;right=0;editable=1;overflow=hidden;html=1;whiteSpace=wrap;strokeColor=inherit;fontFamily=Spline Sans Mono ;fontSource=https%3A%2F%2Ffonts.googleapis.com%2Fcss%3Ffamily%3DSpline%2BSans%2BMono%2B;fontColor=#333E4B;fontStyle=0;labelBackgroundColor=none;" parent="Fx5C9bnQ34uH0TO9ncKX-112" vertex="1">
          <mxGeometry width="60" height="30" as="geometry">
            <mxRectangle width="60" height="30" as="alternateBounds" />
          </mxGeometry>
        </mxCell>
        <mxCell id="Fx5C9bnQ34uH0TO9ncKX-114" value="&lt;span&gt;&lt;/span&gt;&lt;span style=&quot;white-space-collapse: preserve;&quot;&gt;tracking_number&lt;/span&gt;&amp;nbsp;" style="shape=partialRectangle;connectable=0;fillColor=#DEEEEB;top=0;left=0;bottom=0;right=0;align=left;spacingLeft=6;overflow=hidden;html=1;whiteSpace=wrap;strokeColor=inherit;fontFamily=Spline Sans Mono ;fontSource=https%3A%2F%2Ffonts.googleapis.com%2Fcss%3Ffamily%3DSpline%2BSans%2BMono%2B;fontColor=#333E4B;fontStyle=0;labelBackgroundColor=none;" parent="Fx5C9bnQ34uH0TO9ncKX-112" vertex="1">
          <mxGeometry x="60" width="213" height="30" as="geometry">
            <mxRectangle width="213" height="30" as="alternateBounds" />
          </mxGeometry>
        </mxCell>
        <mxCell id="Fx5C9bnQ34uH0TO9ncKX-115" style="shape=tableRow;horizontal=0;startSize=0;swimlaneHead=0;swimlaneBody=0;fillColor=#DEEEEB;collapsible=0;dropTarget=0;points=[[0,0.5],[1,0.5]];portConstraint=eastwest;top=0;left=0;right=0;bottom=0;html=1;strokeColor=inherit;fontFamily=Spline Sans Mono ;fontSource=https%3A%2F%2Ffonts.googleapis.com%2Fcss%3Ffamily%3DSpline%2BSans%2BMono%2B;fontColor=#333E4B;fontStyle=0;labelBackgroundColor=none;" parent="Fx5C9bnQ34uH0TO9ncKX-96" vertex="1">
          <mxGeometry y="210" width="273" height="30" as="geometry" />
        </mxCell>
        <mxCell id="Fx5C9bnQ34uH0TO9ncKX-116" style="shape=partialRectangle;connectable=0;fillColor=#DEEEEB;top=0;left=0;bottom=0;right=0;editable=1;overflow=hidden;html=1;whiteSpace=wrap;strokeColor=inherit;fontFamily=Spline Sans Mono ;fontSource=https%3A%2F%2Ffonts.googleapis.com%2Fcss%3Ffamily%3DSpline%2BSans%2BMono%2B;fontColor=#333E4B;fontStyle=0;labelBackgroundColor=none;" parent="Fx5C9bnQ34uH0TO9ncKX-115" vertex="1">
          <mxGeometry width="60" height="30" as="geometry">
            <mxRectangle width="60" height="30" as="alternateBounds" />
          </mxGeometry>
        </mxCell>
        <mxCell id="Fx5C9bnQ34uH0TO9ncKX-117" value="&lt;span&gt;&lt;/span&gt;&lt;span style=&quot;white-space-collapse: preserve;&quot;&gt;last_updated_timestamp&lt;/span&gt;&amp;nbsp;" style="shape=partialRectangle;connectable=0;fillColor=#DEEEEB;top=0;left=0;bottom=0;right=0;align=left;spacingLeft=6;overflow=hidden;html=1;whiteSpace=wrap;strokeColor=inherit;fontFamily=Spline Sans Mono ;fontSource=https%3A%2F%2Ffonts.googleapis.com%2Fcss%3Ffamily%3DSpline%2BSans%2BMono%2B;fontColor=#333E4B;fontStyle=0;labelBackgroundColor=none;" parent="Fx5C9bnQ34uH0TO9ncKX-115" vertex="1">
          <mxGeometry x="60" width="213" height="30" as="geometry">
            <mxRectangle width="213" height="30" as="alternateBounds" />
          </mxGeometry>
        </mxCell>
        <mxCell id="RcrwvDNwSDzIbEaf6MxV-1" value="&lt;span&gt;&lt;/span&gt;&lt;span&gt;&lt;/span&gt;&lt;span style=&quot;white-space-collapse: preserve;&quot;&gt;&lt;font data-font-src=&quot;https://fonts.googleapis.com/css?family=Spline+Sans+Mono+SemiBold&quot; style=&quot;&quot;&gt;customer_info&lt;/font&gt;&lt;/span&gt;" style="shape=table;startSize=30;container=1;collapsible=1;childLayout=tableLayout;fixedRows=1;rowLines=0;fontStyle=1;align=center;resizeLast=1;html=1;whiteSpace=wrap;fillStyle=solid;fillColor=#B8BAAA;strokeColor=none;fontFamily=Spline Sans Mono SemiBold;fontSource=https%3A%2F%2Ffonts.googleapis.com%2Fcss%3Ffamily%3DSpline%2BSans%2BMono%2BSemiBold;labelBackgroundColor=none;fontColor=#333E4B;" vertex="1" parent="1">
          <mxGeometry x="-430" y="253" width="270" height="210" as="geometry" />
        </mxCell>
        <mxCell id="RcrwvDNwSDzIbEaf6MxV-2" value="" style="shape=tableRow;horizontal=0;startSize=0;swimlaneHead=0;swimlaneBody=0;fillColor=#F0F2E1;collapsible=0;dropTarget=0;points=[[0,0.5],[1,0.5]];portConstraint=eastwest;top=0;left=0;right=0;bottom=0;html=1;strokeColor=inherit;fontFamily=Spline Sans Mono ;fontSource=https%3A%2F%2Ffonts.googleapis.com%2Fcss%3Ffamily%3DSpline%2BSans%2BMono%2B;fontColor=#333E4B;fontStyle=0;labelBackgroundColor=none;" vertex="1" parent="RcrwvDNwSDzIbEaf6MxV-1">
          <mxGeometry y="30" width="270" height="30" as="geometry" />
        </mxCell>
        <mxCell id="RcrwvDNwSDzIbEaf6MxV-3" value="PK" style="shape=partialRectangle;connectable=0;fillColor=#F0F2E1;top=0;left=0;bottom=0;right=0;fontStyle=0;overflow=hidden;html=1;whiteSpace=wrap;strokeColor=inherit;fontFamily=Spline Sans Mono ;fontSource=https%3A%2F%2Ffonts.googleapis.com%2Fcss%3Ffamily%3DSpline%2BSans%2BMono%2B;fontColor=#333E4B;labelBackgroundColor=none;" vertex="1" parent="RcrwvDNwSDzIbEaf6MxV-2">
          <mxGeometry width="60" height="30" as="geometry">
            <mxRectangle width="60" height="30" as="alternateBounds" />
          </mxGeometry>
        </mxCell>
        <mxCell id="RcrwvDNwSDzIbEaf6MxV-4" value="&lt;span&gt;&lt;/span&gt;&lt;span&gt;&lt;/span&gt;&lt;span style=&quot;white-space-collapse: preserve;&quot;&gt;customer_id&lt;/span&gt;" style="shape=partialRectangle;connectable=0;fillColor=#F0F2E1;top=0;left=0;bottom=0;right=0;align=left;spacingLeft=6;fontStyle=4;overflow=hidden;html=1;whiteSpace=wrap;strokeColor=inherit;fontFamily=Spline Sans Mono ;fontSource=https%3A%2F%2Ffonts.googleapis.com%2Fcss%3Ffamily%3DSpline%2BSans%2BMono%2B;fontColor=#333E4B;labelBackgroundColor=none;" vertex="1" parent="RcrwvDNwSDzIbEaf6MxV-2">
          <mxGeometry x="60" width="210" height="30" as="geometry">
            <mxRectangle width="210" height="30" as="alternateBounds" />
          </mxGeometry>
        </mxCell>
        <mxCell id="RcrwvDNwSDzIbEaf6MxV-5" value="" style="shape=tableRow;horizontal=0;startSize=0;swimlaneHead=0;swimlaneBody=0;fillColor=#F0F2E1;collapsible=0;dropTarget=0;points=[[0,0.5],[1,0.5]];portConstraint=eastwest;top=0;left=0;right=0;bottom=0;html=1;strokeColor=inherit;fontFamily=Spline Sans Mono ;fontSource=https%3A%2F%2Ffonts.googleapis.com%2Fcss%3Ffamily%3DSpline%2BSans%2BMono%2B;fontColor=#333E4B;fontStyle=0;labelBackgroundColor=none;" vertex="1" parent="RcrwvDNwSDzIbEaf6MxV-1">
          <mxGeometry y="60" width="270" height="30" as="geometry" />
        </mxCell>
        <mxCell id="RcrwvDNwSDzIbEaf6MxV-6" value="" style="shape=partialRectangle;connectable=0;fillColor=#F0F2E1;top=0;left=0;bottom=0;right=0;editable=1;overflow=hidden;html=1;whiteSpace=wrap;strokeColor=inherit;fontFamily=Spline Sans Mono ;fontSource=https%3A%2F%2Ffonts.googleapis.com%2Fcss%3Ffamily%3DSpline%2BSans%2BMono%2B;fontColor=#333E4B;fontStyle=0;labelBackgroundColor=none;" vertex="1" parent="RcrwvDNwSDzIbEaf6MxV-5">
          <mxGeometry width="60" height="30" as="geometry">
            <mxRectangle width="60" height="30" as="alternateBounds" />
          </mxGeometry>
        </mxCell>
        <mxCell id="RcrwvDNwSDzIbEaf6MxV-7" value="&lt;span&gt;&lt;/span&gt;&lt;span style=&quot;white-space-collapse: preserve;&quot;&gt;registration_timestamp&lt;/span&gt;" style="shape=partialRectangle;connectable=0;fillColor=#F0F2E1;top=0;left=0;bottom=0;right=0;align=left;spacingLeft=6;overflow=hidden;html=1;whiteSpace=wrap;strokeColor=inherit;fontFamily=Spline Sans Mono ;fontSource=https%3A%2F%2Ffonts.googleapis.com%2Fcss%3Ffamily%3DSpline%2BSans%2BMono%2B;fontColor=#333E4B;fontStyle=0;labelBackgroundColor=none;" vertex="1" parent="RcrwvDNwSDzIbEaf6MxV-5">
          <mxGeometry x="60" width="210" height="30" as="geometry">
            <mxRectangle width="210" height="30" as="alternateBounds" />
          </mxGeometry>
        </mxCell>
        <mxCell id="RcrwvDNwSDzIbEaf6MxV-8" value="" style="shape=tableRow;horizontal=0;startSize=0;swimlaneHead=0;swimlaneBody=0;fillColor=#F0F2E1;collapsible=0;dropTarget=0;points=[[0,0.5],[1,0.5]];portConstraint=eastwest;top=0;left=0;right=0;bottom=1;html=1;strokeColor=inherit;fontFamily=Spline Sans Mono ;fontSource=https%3A%2F%2Ffonts.googleapis.com%2Fcss%3Ffamily%3DSpline%2BSans%2BMono%2B;fontColor=#333E4B;fontStyle=0;labelBackgroundColor=none;" vertex="1" parent="RcrwvDNwSDzIbEaf6MxV-1">
          <mxGeometry y="90" width="270" height="30" as="geometry" />
        </mxCell>
        <mxCell id="RcrwvDNwSDzIbEaf6MxV-9" value="FK" style="shape=partialRectangle;connectable=0;fillColor=#F0F2E1;top=0;left=0;bottom=0;right=0;fontStyle=0;overflow=hidden;html=1;whiteSpace=wrap;strokeColor=inherit;fontFamily=Spline Sans Mono ;fontSource=https%3A%2F%2Ffonts.googleapis.com%2Fcss%3Ffamily%3DSpline%2BSans%2BMono%2B;fontColor=#333E4B;labelBackgroundColor=none;" vertex="1" parent="RcrwvDNwSDzIbEaf6MxV-8">
          <mxGeometry width="60" height="30" as="geometry">
            <mxRectangle width="60" height="30" as="alternateBounds" />
          </mxGeometry>
        </mxCell>
        <mxCell id="RcrwvDNwSDzIbEaf6MxV-10" value="&lt;span&gt;&lt;/span&gt;&lt;span style=&quot;white-space-collapse: preserve;&quot;&gt;loyalty_id&lt;/span&gt;&amp;nbsp;" style="shape=partialRectangle;connectable=0;fillColor=#F0F2E1;top=0;left=0;bottom=0;right=0;align=left;spacingLeft=6;fontStyle=4;overflow=hidden;html=1;whiteSpace=wrap;strokeColor=inherit;fontFamily=Spline Sans Mono ;fontSource=https%3A%2F%2Ffonts.googleapis.com%2Fcss%3Ffamily%3DSpline%2BSans%2BMono%2B;fontColor=#333E4B;labelBackgroundColor=none;" vertex="1" parent="RcrwvDNwSDzIbEaf6MxV-8">
          <mxGeometry x="60" width="210" height="30" as="geometry">
            <mxRectangle width="210" height="30" as="alternateBounds" />
          </mxGeometry>
        </mxCell>
        <mxCell id="RcrwvDNwSDzIbEaf6MxV-11" style="shape=tableRow;horizontal=0;startSize=0;swimlaneHead=0;swimlaneBody=0;fillColor=#F0F2E1;collapsible=0;dropTarget=0;points=[[0,0.5],[1,0.5]];portConstraint=eastwest;top=0;left=0;right=0;bottom=0;html=1;strokeColor=inherit;fontFamily=Spline Sans Mono ;fontSource=https%3A%2F%2Ffonts.googleapis.com%2Fcss%3Ffamily%3DSpline%2BSans%2BMono%2B;fontColor=#333E4B;fontStyle=0;labelBackgroundColor=none;" vertex="1" parent="RcrwvDNwSDzIbEaf6MxV-1">
          <mxGeometry y="120" width="270" height="30" as="geometry" />
        </mxCell>
        <mxCell id="RcrwvDNwSDzIbEaf6MxV-12" value="FK" style="shape=partialRectangle;connectable=0;fillColor=#F0F2E1;top=0;left=0;bottom=0;right=0;fontStyle=0;overflow=hidden;html=1;whiteSpace=wrap;strokeColor=inherit;fontFamily=Spline Sans Mono ;fontSource=https%3A%2F%2Ffonts.googleapis.com%2Fcss%3Ffamily%3DSpline%2BSans%2BMono%2B;fontColor=#333E4B;labelBackgroundColor=none;" vertex="1" parent="RcrwvDNwSDzIbEaf6MxV-11">
          <mxGeometry width="60" height="30" as="geometry">
            <mxRectangle width="60" height="30" as="alternateBounds" />
          </mxGeometry>
        </mxCell>
        <mxCell id="RcrwvDNwSDzIbEaf6MxV-13" value="&lt;span&gt;&lt;/span&gt;&lt;span style=&quot;white-space-collapse: preserve;&quot;&gt;location_id&lt;/span&gt;" style="shape=partialRectangle;connectable=0;fillColor=#F0F2E1;top=0;left=0;bottom=0;right=0;align=left;spacingLeft=6;fontStyle=4;overflow=hidden;html=1;whiteSpace=wrap;strokeColor=inherit;fontFamily=Spline Sans Mono ;fontSource=https%3A%2F%2Ffonts.googleapis.com%2Fcss%3Ffamily%3DSpline%2BSans%2BMono%2B;fontColor=#333E4B;labelBackgroundColor=none;" vertex="1" parent="RcrwvDNwSDzIbEaf6MxV-11">
          <mxGeometry x="60" width="210" height="30" as="geometry">
            <mxRectangle width="210" height="30" as="alternateBounds" />
          </mxGeometry>
        </mxCell>
        <mxCell id="RcrwvDNwSDzIbEaf6MxV-177" style="shape=tableRow;horizontal=0;startSize=0;swimlaneHead=0;swimlaneBody=0;fillColor=#F0F2E1;collapsible=0;dropTarget=0;points=[[0,0.5],[1,0.5]];portConstraint=eastwest;top=0;left=0;right=0;bottom=0;html=1;strokeColor=inherit;fontFamily=Spline Sans Mono ;fontSource=https%3A%2F%2Ffonts.googleapis.com%2Fcss%3Ffamily%3DSpline%2BSans%2BMono%2B;fontColor=#333E4B;fontStyle=0;labelBackgroundColor=none;" vertex="1" parent="RcrwvDNwSDzIbEaf6MxV-1">
          <mxGeometry y="150" width="270" height="30" as="geometry" />
        </mxCell>
        <mxCell id="RcrwvDNwSDzIbEaf6MxV-178" style="shape=partialRectangle;connectable=0;fillColor=#F0F2E1;top=0;left=0;bottom=0;right=0;editable=1;overflow=hidden;html=1;whiteSpace=wrap;strokeColor=inherit;fontFamily=Spline Sans Mono ;fontSource=https%3A%2F%2Ffonts.googleapis.com%2Fcss%3Ffamily%3DSpline%2BSans%2BMono%2B;fontColor=#333E4B;fontStyle=0;labelBackgroundColor=none;" vertex="1" parent="RcrwvDNwSDzIbEaf6MxV-177">
          <mxGeometry width="60" height="30" as="geometry">
            <mxRectangle width="60" height="30" as="alternateBounds" />
          </mxGeometry>
        </mxCell>
        <mxCell id="RcrwvDNwSDzIbEaf6MxV-179" value="customer_segment" style="shape=partialRectangle;connectable=0;fillColor=#F0F2E1;top=0;left=0;bottom=0;right=0;align=left;spacingLeft=6;overflow=hidden;html=1;whiteSpace=wrap;strokeColor=inherit;fontFamily=Spline Sans Mono ;fontSource=https%3A%2F%2Ffonts.googleapis.com%2Fcss%3Ffamily%3DSpline%2BSans%2BMono%2B;fontColor=#333E4B;fontStyle=0;labelBackgroundColor=none;" vertex="1" parent="RcrwvDNwSDzIbEaf6MxV-177">
          <mxGeometry x="60" width="210" height="30" as="geometry">
            <mxRectangle width="210" height="30" as="alternateBounds" />
          </mxGeometry>
        </mxCell>
        <mxCell id="RcrwvDNwSDzIbEaf6MxV-26" value="" style="shape=tableRow;horizontal=0;startSize=0;swimlaneHead=0;swimlaneBody=0;fillColor=#F0F2E1;collapsible=0;dropTarget=0;points=[[0,0.5],[1,0.5]];portConstraint=eastwest;top=0;left=0;right=0;bottom=0;html=1;strokeColor=inherit;fontFamily=Spline Sans Mono ;fontSource=https%3A%2F%2Ffonts.googleapis.com%2Fcss%3Ffamily%3DSpline%2BSans%2BMono%2B;fontColor=#333E4B;fontStyle=0;labelBackgroundColor=none;" vertex="1" parent="RcrwvDNwSDzIbEaf6MxV-1">
          <mxGeometry y="180" width="270" height="30" as="geometry" />
        </mxCell>
        <mxCell id="RcrwvDNwSDzIbEaf6MxV-27" value="" style="shape=partialRectangle;connectable=0;fillColor=#F0F2E1;top=0;left=0;bottom=0;right=0;editable=1;overflow=hidden;html=1;whiteSpace=wrap;strokeColor=inherit;fontFamily=Spline Sans Mono ;fontSource=https%3A%2F%2Ffonts.googleapis.com%2Fcss%3Ffamily%3DSpline%2BSans%2BMono%2B;fontColor=#333E4B;fontStyle=0;labelBackgroundColor=none;" vertex="1" parent="RcrwvDNwSDzIbEaf6MxV-26">
          <mxGeometry width="60" height="30" as="geometry">
            <mxRectangle width="60" height="30" as="alternateBounds" />
          </mxGeometry>
        </mxCell>
        <mxCell id="RcrwvDNwSDzIbEaf6MxV-28" value="&lt;span&gt;&lt;/span&gt;&lt;span style=&quot;white-space-collapse: preserve;&quot;&gt;email&lt;/span&gt;" style="shape=partialRectangle;connectable=0;fillColor=#F0F2E1;top=0;left=0;bottom=0;right=0;align=left;spacingLeft=6;overflow=hidden;html=1;whiteSpace=wrap;strokeColor=inherit;fontFamily=Spline Sans Mono ;fontSource=https%3A%2F%2Ffonts.googleapis.com%2Fcss%3Ffamily%3DSpline%2BSans%2BMono%2B;fontColor=#333E4B;fontStyle=0;labelBackgroundColor=none;" vertex="1" parent="RcrwvDNwSDzIbEaf6MxV-26">
          <mxGeometry x="60" width="210" height="30" as="geometry">
            <mxRectangle width="210" height="30" as="alternateBounds" />
          </mxGeometry>
        </mxCell>
        <mxCell id="RcrwvDNwSDzIbEaf6MxV-31" value="fed by a script that reads newlt created orders and randomly updates status" style="verticalLabelPosition=middle;verticalAlign=middle;shape=mxgraph.basic.patternFillRect;fillStyle=diag;step=5;fillStrokeWidth=0.2;fillStrokeColor=#dddddd;fillColor=#ffe6cc;strokeColor=#d79b00;align=center;html=1;whiteSpace=wrap;labelPosition=center;" vertex="1" parent="1">
          <mxGeometry x="974" y="774" width="159" height="58" as="geometry" />
        </mxCell>
        <mxCell id="RcrwvDNwSDzIbEaf6MxV-33" value="" style="edgeStyle=entityRelationEdgeStyle;fontSize=12;html=1;endArrow=ERmandOne;startArrow=ERoneToMany;rounded=0;flowAnimation=1;dashed=1;strokeWidth=2;strokeColor=#324B4D;exitX=0;exitY=0.5;exitDx=0;exitDy=0;entryX=1;entryY=0.5;entryDx=0;entryDy=0;endFill=0;startFill=0;" edge="1" parent="1" source="Fx5C9bnQ34uH0TO9ncKX-31" target="RcrwvDNwSDzIbEaf6MxV-2">
          <mxGeometry width="100" height="100" relative="1" as="geometry">
            <mxPoint x="-198" y="413" as="sourcePoint" />
            <mxPoint x="-179" y="322" as="targetPoint" />
            <Array as="points">
              <mxPoint x="-184" y="335" />
            </Array>
          </mxGeometry>
        </mxCell>
        <mxCell id="RcrwvDNwSDzIbEaf6MxV-34" value="" style="edgeStyle=entityRelationEdgeStyle;fontSize=12;html=1;endArrow=ERoneToMany;startArrow=ERmandOne;rounded=0;flowAnimation=1;dashed=1;strokeWidth=2;strokeColor=#324B4D;entryX=0;entryY=0.5;entryDx=0;entryDy=0;endFill=0;" edge="1" parent="1" source="Fx5C9bnQ34uH0TO9ncKX-4" target="Fx5C9bnQ34uH0TO9ncKX-81">
          <mxGeometry width="100" height="100" relative="1" as="geometry">
            <mxPoint x="-150" y="726" as="sourcePoint" />
            <mxPoint x="235" y="297" as="targetPoint" />
            <Array as="points">
              <mxPoint x="-52" y="733" />
            </Array>
          </mxGeometry>
        </mxCell>
        <mxCell id="RcrwvDNwSDzIbEaf6MxV-57" style="edgeStyle=orthogonalEdgeStyle;rounded=0;orthogonalLoop=1;jettySize=auto;html=1;fillColor=#ffe6cc;strokeColor=#d79b00;exitX=0.5;exitY=1;exitDx=0;exitDy=0;exitPerimeter=0;elbow=vertical;curved=1;" edge="1" parent="1" source="RcrwvDNwSDzIbEaf6MxV-58" target="RcrwvDNwSDzIbEaf6MxV-1">
          <mxGeometry relative="1" as="geometry">
            <mxPoint x="-333" y="366" as="sourcePoint" />
            <mxPoint x="-460" y="582" as="targetPoint" />
          </mxGeometry>
        </mxCell>
        <mxCell id="RcrwvDNwSDzIbEaf6MxV-58" value="automatically registered at first purchase or volunteer at POS" style="verticalLabelPosition=middle;verticalAlign=middle;shape=mxgraph.basic.patternFillRect;fillStyle=diag;step=5;fillStrokeWidth=0.2;fillStrokeColor=#dddddd;fillColor=#ffe6cc;strokeColor=#d79b00;align=center;html=1;whiteSpace=wrap;labelPosition=center;" vertex="1" parent="1">
          <mxGeometry x="-462" y="158" width="159" height="58" as="geometry" />
        </mxCell>
        <mxCell id="RcrwvDNwSDzIbEaf6MxV-59" value="only for shop_ids that are online and have delivery option" style="verticalLabelPosition=middle;verticalAlign=middle;shape=mxgraph.basic.patternFillRect;fillStyle=diag;step=5;fillStrokeWidth=0.2;fillStrokeColor=#dddddd;fillColor=#ffe6cc;strokeColor=#d79b00;align=center;html=1;whiteSpace=wrap;labelPosition=center;" vertex="1" parent="1">
          <mxGeometry x="646" y="725" width="159" height="58" as="geometry" />
        </mxCell>
        <mxCell id="RcrwvDNwSDzIbEaf6MxV-60" style="edgeStyle=orthogonalEdgeStyle;rounded=0;orthogonalLoop=1;jettySize=auto;html=1;fillColor=#ffe6cc;strokeColor=#d79b00;exitX=0.5;exitY=1;exitDx=0;exitDy=0;exitPerimeter=0;entryX=0.986;entryY=0.081;entryDx=0;entryDy=0;entryPerimeter=0;curved=1;" edge="1" parent="1" source="RcrwvDNwSDzIbEaf6MxV-59" target="Fx5C9bnQ34uH0TO9ncKX-96">
          <mxGeometry relative="1" as="geometry">
            <mxPoint x="238" y="986" as="sourcePoint" />
            <mxPoint x="505" y="640" as="targetPoint" />
          </mxGeometry>
        </mxCell>
        <mxCell id="RcrwvDNwSDzIbEaf6MxV-64" value="" style="edgeStyle=entityRelationEdgeStyle;fontSize=12;html=1;endArrow=ERmandOne;startArrow=ERoneToMany;rounded=0;flowAnimation=1;dashed=1;strokeWidth=2;strokeColor=#324B4D;entryX=0;entryY=0.5;entryDx=0;entryDy=0;exitX=1;exitY=0.5;exitDx=0;exitDy=0;endFill=0;startFill=0;" edge="1" parent="1" source="Fx5C9bnQ34uH0TO9ncKX-7" target="RcrwvDNwSDzIbEaf6MxV-54">
          <mxGeometry width="100" height="100" relative="1" as="geometry">
            <mxPoint x="133" y="526" as="sourcePoint" />
            <mxPoint x="261" y="193" as="targetPoint" />
            <Array as="points">
              <mxPoint x="-42" y="743" />
            </Array>
          </mxGeometry>
        </mxCell>
        <mxCell id="RcrwvDNwSDzIbEaf6MxV-65" value="&lt;span&gt;&lt;/span&gt;&lt;span&gt;&lt;/span&gt;&lt;span style=&quot;white-space-collapse: preserve;&quot;&gt;&lt;font data-font-src=&quot;https://fonts.googleapis.com/css?family=Spline+Sans+Mono+SemiBold&quot; style=&quot;&quot;&gt;product_info&lt;/font&gt;&lt;/span&gt;" style="shape=table;startSize=30;container=1;collapsible=1;childLayout=tableLayout;fixedRows=1;rowLines=0;fontStyle=1;align=center;resizeLast=1;html=1;whiteSpace=wrap;fillStyle=solid;fillColor=#B8BAAA;strokeColor=none;fontFamily=Spline Sans Mono SemiBold;fontSource=https%3A%2F%2Ffonts.googleapis.com%2Fcss%3Ffamily%3DSpline%2BSans%2BMono%2BSemiBold;labelBackgroundColor=none;fontColor=#333E4B;" vertex="1" parent="1">
          <mxGeometry x="961" y="-58" width="270" height="150" as="geometry" />
        </mxCell>
        <mxCell id="RcrwvDNwSDzIbEaf6MxV-66" value="" style="shape=tableRow;horizontal=0;startSize=0;swimlaneHead=0;swimlaneBody=0;fillColor=#F0F2E1;collapsible=0;dropTarget=0;points=[[0,0.5],[1,0.5]];portConstraint=eastwest;top=0;left=0;right=0;bottom=0;html=1;strokeColor=inherit;fontFamily=Spline Sans Mono ;fontSource=https%3A%2F%2Ffonts.googleapis.com%2Fcss%3Ffamily%3DSpline%2BSans%2BMono%2B;fontColor=#333E4B;fontStyle=0;labelBackgroundColor=none;" vertex="1" parent="RcrwvDNwSDzIbEaf6MxV-65">
          <mxGeometry y="30" width="270" height="30" as="geometry" />
        </mxCell>
        <mxCell id="RcrwvDNwSDzIbEaf6MxV-67" value="PK" style="shape=partialRectangle;connectable=0;fillColor=#F0F2E1;top=0;left=0;bottom=0;right=0;fontStyle=0;overflow=hidden;html=1;whiteSpace=wrap;strokeColor=inherit;fontFamily=Spline Sans Mono ;fontSource=https%3A%2F%2Ffonts.googleapis.com%2Fcss%3Ffamily%3DSpline%2BSans%2BMono%2B;fontColor=#333E4B;labelBackgroundColor=none;" vertex="1" parent="RcrwvDNwSDzIbEaf6MxV-66">
          <mxGeometry width="60" height="30" as="geometry">
            <mxRectangle width="60" height="30" as="alternateBounds" />
          </mxGeometry>
        </mxCell>
        <mxCell id="RcrwvDNwSDzIbEaf6MxV-68" value="&lt;span&gt;&lt;/span&gt;&lt;span&gt;&lt;/span&gt;&lt;span style=&quot;white-space-collapse: preserve;&quot;&gt;product_id&lt;/span&gt;" style="shape=partialRectangle;connectable=0;fillColor=#F0F2E1;top=0;left=0;bottom=0;right=0;align=left;spacingLeft=6;fontStyle=4;overflow=hidden;html=1;whiteSpace=wrap;strokeColor=inherit;fontFamily=Spline Sans Mono ;fontSource=https%3A%2F%2Ffonts.googleapis.com%2Fcss%3Ffamily%3DSpline%2BSans%2BMono%2B;fontColor=#333E4B;labelBackgroundColor=none;" vertex="1" parent="RcrwvDNwSDzIbEaf6MxV-66">
          <mxGeometry x="60" width="210" height="30" as="geometry">
            <mxRectangle width="210" height="30" as="alternateBounds" />
          </mxGeometry>
        </mxCell>
        <mxCell id="RcrwvDNwSDzIbEaf6MxV-69" value="" style="shape=tableRow;horizontal=0;startSize=0;swimlaneHead=0;swimlaneBody=0;fillColor=#F0F2E1;collapsible=0;dropTarget=0;points=[[0,0.5],[1,0.5]];portConstraint=eastwest;top=0;left=0;right=0;bottom=0;html=1;strokeColor=inherit;fontFamily=Spline Sans Mono ;fontSource=https%3A%2F%2Ffonts.googleapis.com%2Fcss%3Ffamily%3DSpline%2BSans%2BMono%2B;fontColor=#333E4B;fontStyle=0;labelBackgroundColor=none;" vertex="1" parent="RcrwvDNwSDzIbEaf6MxV-65">
          <mxGeometry y="60" width="270" height="30" as="geometry" />
        </mxCell>
        <mxCell id="RcrwvDNwSDzIbEaf6MxV-70" value="" style="shape=partialRectangle;connectable=0;fillColor=#F0F2E1;top=0;left=0;bottom=0;right=0;editable=1;overflow=hidden;html=1;whiteSpace=wrap;strokeColor=inherit;fontFamily=Spline Sans Mono ;fontSource=https%3A%2F%2Ffonts.googleapis.com%2Fcss%3Ffamily%3DSpline%2BSans%2BMono%2B;fontColor=#333E4B;fontStyle=0;labelBackgroundColor=none;" vertex="1" parent="RcrwvDNwSDzIbEaf6MxV-69">
          <mxGeometry width="60" height="30" as="geometry">
            <mxRectangle width="60" height="30" as="alternateBounds" />
          </mxGeometry>
        </mxCell>
        <mxCell id="RcrwvDNwSDzIbEaf6MxV-71" value="&lt;span&gt;&lt;/span&gt;&lt;span style=&quot;white-space-collapse: preserve;&quot;&gt;category&lt;/span&gt;" style="shape=partialRectangle;connectable=0;fillColor=#F0F2E1;top=0;left=0;bottom=0;right=0;align=left;spacingLeft=6;overflow=hidden;html=1;whiteSpace=wrap;strokeColor=inherit;fontFamily=Spline Sans Mono ;fontSource=https%3A%2F%2Ffonts.googleapis.com%2Fcss%3Ffamily%3DSpline%2BSans%2BMono%2B;fontColor=#333E4B;fontStyle=0;labelBackgroundColor=none;" vertex="1" parent="RcrwvDNwSDzIbEaf6MxV-69">
          <mxGeometry x="60" width="210" height="30" as="geometry">
            <mxRectangle width="210" height="30" as="alternateBounds" />
          </mxGeometry>
        </mxCell>
        <mxCell id="RcrwvDNwSDzIbEaf6MxV-174" style="shape=tableRow;horizontal=0;startSize=0;swimlaneHead=0;swimlaneBody=0;fillColor=#F0F2E1;collapsible=0;dropTarget=0;points=[[0,0.5],[1,0.5]];portConstraint=eastwest;top=0;left=0;right=0;bottom=0;html=1;strokeColor=inherit;fontFamily=Spline Sans Mono ;fontSource=https%3A%2F%2Ffonts.googleapis.com%2Fcss%3Ffamily%3DSpline%2BSans%2BMono%2B;fontColor=#333E4B;fontStyle=0;labelBackgroundColor=none;" vertex="1" parent="RcrwvDNwSDzIbEaf6MxV-65">
          <mxGeometry y="90" width="270" height="30" as="geometry" />
        </mxCell>
        <mxCell id="RcrwvDNwSDzIbEaf6MxV-175" style="shape=partialRectangle;connectable=0;fillColor=#F0F2E1;top=0;left=0;bottom=0;right=0;editable=1;overflow=hidden;html=1;whiteSpace=wrap;strokeColor=inherit;fontFamily=Spline Sans Mono ;fontSource=https%3A%2F%2Ffonts.googleapis.com%2Fcss%3Ffamily%3DSpline%2BSans%2BMono%2B;fontColor=#333E4B;fontStyle=0;labelBackgroundColor=none;" vertex="1" parent="RcrwvDNwSDzIbEaf6MxV-174">
          <mxGeometry width="60" height="30" as="geometry">
            <mxRectangle width="60" height="30" as="alternateBounds" />
          </mxGeometry>
        </mxCell>
        <mxCell id="RcrwvDNwSDzIbEaf6MxV-176" value="sub_category" style="shape=partialRectangle;connectable=0;fillColor=#F0F2E1;top=0;left=0;bottom=0;right=0;align=left;spacingLeft=6;overflow=hidden;html=1;whiteSpace=wrap;strokeColor=inherit;fontFamily=Spline Sans Mono ;fontSource=https%3A%2F%2Ffonts.googleapis.com%2Fcss%3Ffamily%3DSpline%2BSans%2BMono%2B;fontColor=#333E4B;fontStyle=0;labelBackgroundColor=none;" vertex="1" parent="RcrwvDNwSDzIbEaf6MxV-174">
          <mxGeometry x="60" width="210" height="30" as="geometry">
            <mxRectangle width="210" height="30" as="alternateBounds" />
          </mxGeometry>
        </mxCell>
        <mxCell id="RcrwvDNwSDzIbEaf6MxV-171" style="shape=tableRow;horizontal=0;startSize=0;swimlaneHead=0;swimlaneBody=0;fillColor=#F0F2E1;collapsible=0;dropTarget=0;points=[[0,0.5],[1,0.5]];portConstraint=eastwest;top=0;left=0;right=0;bottom=0;html=1;strokeColor=inherit;fontFamily=Spline Sans Mono ;fontSource=https%3A%2F%2Ffonts.googleapis.com%2Fcss%3Ffamily%3DSpline%2BSans%2BMono%2B;fontColor=#333E4B;fontStyle=0;labelBackgroundColor=none;" vertex="1" parent="RcrwvDNwSDzIbEaf6MxV-65">
          <mxGeometry y="120" width="270" height="30" as="geometry" />
        </mxCell>
        <mxCell id="RcrwvDNwSDzIbEaf6MxV-172" style="shape=partialRectangle;connectable=0;fillColor=#F0F2E1;top=0;left=0;bottom=0;right=0;editable=1;overflow=hidden;html=1;whiteSpace=wrap;strokeColor=inherit;fontFamily=Spline Sans Mono ;fontSource=https%3A%2F%2Ffonts.googleapis.com%2Fcss%3Ffamily%3DSpline%2BSans%2BMono%2B;fontColor=#333E4B;fontStyle=0;labelBackgroundColor=none;" vertex="1" parent="RcrwvDNwSDzIbEaf6MxV-171">
          <mxGeometry width="60" height="30" as="geometry">
            <mxRectangle width="60" height="30" as="alternateBounds" />
          </mxGeometry>
        </mxCell>
        <mxCell id="RcrwvDNwSDzIbEaf6MxV-173" value="product_name" style="shape=partialRectangle;connectable=0;fillColor=#F0F2E1;top=0;left=0;bottom=0;right=0;align=left;spacingLeft=6;overflow=hidden;html=1;whiteSpace=wrap;strokeColor=inherit;fontFamily=Spline Sans Mono ;fontSource=https%3A%2F%2Ffonts.googleapis.com%2Fcss%3Ffamily%3DSpline%2BSans%2BMono%2B;fontColor=#333E4B;fontStyle=0;labelBackgroundColor=none;" vertex="1" parent="RcrwvDNwSDzIbEaf6MxV-171">
          <mxGeometry x="60" width="210" height="30" as="geometry">
            <mxRectangle width="210" height="30" as="alternateBounds" />
          </mxGeometry>
        </mxCell>
        <mxCell id="RcrwvDNwSDzIbEaf6MxV-81" value="" style="edgeStyle=entityRelationEdgeStyle;fontSize=12;html=1;endArrow=ERmandOne;startArrow=ERoneToMany;rounded=0;flowAnimation=1;dashed=1;strokeWidth=2;strokeColor=#324B4D;exitX=1;exitY=0.5;exitDx=0;exitDy=0;endFill=0;startFill=0;" edge="1" parent="1" source="Fx5C9bnQ34uH0TO9ncKX-84" target="RcrwvDNwSDzIbEaf6MxV-66">
          <mxGeometry width="100" height="100" relative="1" as="geometry">
            <mxPoint x="531" y="240" as="sourcePoint" />
            <mxPoint x="663" y="563" as="targetPoint" />
            <Array as="points">
              <mxPoint x="389" y="614" />
            </Array>
          </mxGeometry>
        </mxCell>
        <mxCell id="RcrwvDNwSDzIbEaf6MxV-104" value="" style="edgeStyle=entityRelationEdgeStyle;fontSize=12;html=1;endArrow=ERoneToMany;startArrow=ERmandOne;rounded=0;flowAnimation=1;dashed=1;strokeWidth=2;strokeColor=#324B4D;exitX=0;exitY=0.5;exitDx=0;exitDy=0;entryX=1;entryY=0.5;entryDx=0;entryDy=0;endFill=0;startFill=0;" edge="1" parent="1" source="RcrwvDNwSDzIbEaf6MxV-85" target="Fx5C9bnQ34uH0TO9ncKX-103">
          <mxGeometry width="100" height="100" relative="1" as="geometry">
            <mxPoint x="524.0000000000005" y="863" as="sourcePoint" />
            <mxPoint x="456" y="911" as="targetPoint" />
            <Array as="points">
              <mxPoint x="24" y="664" />
            </Array>
          </mxGeometry>
        </mxCell>
        <mxCell id="RcrwvDNwSDzIbEaf6MxV-108" value="&lt;span&gt;&lt;/span&gt;&lt;span style=&quot;white-space-collapse: preserve;&quot;&gt;shop_info&lt;/span&gt;" style="shape=table;startSize=30;container=1;collapsible=1;childLayout=tableLayout;fixedRows=1;rowLines=0;fontStyle=1;align=center;resizeLast=1;html=1;whiteSpace=wrap;fillStyle=solid;fillColor=#B8BAAA;strokeColor=none;fontFamily=Spline Sans Mono SemiBold;fontSource=https%3A%2F%2Ffonts.googleapis.com%2Fcss%3Ffamily%3DSpline%2BSans%2BMono%2BSemiBold;labelBackgroundColor=none;fontColor=#333E4B;" vertex="1" parent="1">
          <mxGeometry x="-427" y="524" width="270" height="210" as="geometry" />
        </mxCell>
        <mxCell id="RcrwvDNwSDzIbEaf6MxV-109" value="" style="shape=tableRow;horizontal=0;startSize=0;swimlaneHead=0;swimlaneBody=0;fillColor=#F0F2E1;collapsible=0;dropTarget=0;points=[[0,0.5],[1,0.5]];portConstraint=eastwest;top=0;left=0;right=0;bottom=0;html=1;strokeColor=inherit;fontFamily=Spline Sans Mono ;fontSource=https%3A%2F%2Ffonts.googleapis.com%2Fcss%3Ffamily%3DSpline%2BSans%2BMono%2B;fontColor=#333E4B;fontStyle=0;labelBackgroundColor=none;" vertex="1" parent="RcrwvDNwSDzIbEaf6MxV-108">
          <mxGeometry y="30" width="270" height="30" as="geometry" />
        </mxCell>
        <mxCell id="RcrwvDNwSDzIbEaf6MxV-110" value="PK" style="shape=partialRectangle;connectable=0;fillColor=#F0F2E1;top=0;left=0;bottom=0;right=0;fontStyle=0;overflow=hidden;html=1;whiteSpace=wrap;strokeColor=inherit;fontFamily=Spline Sans Mono ;fontSource=https%3A%2F%2Ffonts.googleapis.com%2Fcss%3Ffamily%3DSpline%2BSans%2BMono%2B;fontColor=#333E4B;labelBackgroundColor=none;" vertex="1" parent="RcrwvDNwSDzIbEaf6MxV-109">
          <mxGeometry width="60" height="30" as="geometry">
            <mxRectangle width="60" height="30" as="alternateBounds" />
          </mxGeometry>
        </mxCell>
        <mxCell id="RcrwvDNwSDzIbEaf6MxV-111" value="&lt;span&gt;&lt;/span&gt;&lt;span&gt;&lt;/span&gt;&lt;span style=&quot;white-space-collapse: preserve;&quot;&gt;shop_id&lt;/span&gt;" style="shape=partialRectangle;connectable=0;fillColor=#F0F2E1;top=0;left=0;bottom=0;right=0;align=left;spacingLeft=6;fontStyle=4;overflow=hidden;html=1;whiteSpace=wrap;strokeColor=inherit;fontFamily=Spline Sans Mono ;fontSource=https%3A%2F%2Ffonts.googleapis.com%2Fcss%3Ffamily%3DSpline%2BSans%2BMono%2B;fontColor=#333E4B;labelBackgroundColor=none;" vertex="1" parent="RcrwvDNwSDzIbEaf6MxV-109">
          <mxGeometry x="60" width="210" height="30" as="geometry">
            <mxRectangle width="210" height="30" as="alternateBounds" />
          </mxGeometry>
        </mxCell>
        <mxCell id="RcrwvDNwSDzIbEaf6MxV-112" value="" style="shape=tableRow;horizontal=0;startSize=0;swimlaneHead=0;swimlaneBody=0;fillColor=#F0F2E1;collapsible=0;dropTarget=0;points=[[0,0.5],[1,0.5]];portConstraint=eastwest;top=0;left=0;right=0;bottom=0;html=1;strokeColor=inherit;fontFamily=Spline Sans Mono ;fontSource=https%3A%2F%2Ffonts.googleapis.com%2Fcss%3Ffamily%3DSpline%2BSans%2BMono%2B;fontColor=#333E4B;fontStyle=0;labelBackgroundColor=none;" vertex="1" parent="RcrwvDNwSDzIbEaf6MxV-108">
          <mxGeometry y="60" width="270" height="30" as="geometry" />
        </mxCell>
        <mxCell id="RcrwvDNwSDzIbEaf6MxV-113" value="" style="shape=partialRectangle;connectable=0;fillColor=#F0F2E1;top=0;left=0;bottom=0;right=0;editable=1;overflow=hidden;html=1;whiteSpace=wrap;strokeColor=inherit;fontFamily=Spline Sans Mono ;fontSource=https%3A%2F%2Ffonts.googleapis.com%2Fcss%3Ffamily%3DSpline%2BSans%2BMono%2B;fontColor=#333E4B;fontStyle=0;labelBackgroundColor=none;" vertex="1" parent="RcrwvDNwSDzIbEaf6MxV-112">
          <mxGeometry width="60" height="30" as="geometry">
            <mxRectangle width="60" height="30" as="alternateBounds" />
          </mxGeometry>
        </mxCell>
        <mxCell id="RcrwvDNwSDzIbEaf6MxV-114" value="&lt;span&gt;&lt;/span&gt;&lt;span style=&quot;white-space-collapse: preserve;&quot;&gt;registration_timestamp&lt;/span&gt;" style="shape=partialRectangle;connectable=0;fillColor=#F0F2E1;top=0;left=0;bottom=0;right=0;align=left;spacingLeft=6;overflow=hidden;html=1;whiteSpace=wrap;strokeColor=inherit;fontFamily=Spline Sans Mono ;fontSource=https%3A%2F%2Ffonts.googleapis.com%2Fcss%3Ffamily%3DSpline%2BSans%2BMono%2B;fontColor=#333E4B;fontStyle=0;labelBackgroundColor=none;" vertex="1" parent="RcrwvDNwSDzIbEaf6MxV-112">
          <mxGeometry x="60" width="210" height="30" as="geometry">
            <mxRectangle width="210" height="30" as="alternateBounds" />
          </mxGeometry>
        </mxCell>
        <mxCell id="RcrwvDNwSDzIbEaf6MxV-115" value="" style="shape=tableRow;horizontal=0;startSize=0;swimlaneHead=0;swimlaneBody=0;fillColor=#F0F2E1;collapsible=0;dropTarget=0;points=[[0,0.5],[1,0.5]];portConstraint=eastwest;top=0;left=0;right=0;bottom=1;html=1;strokeColor=inherit;fontFamily=Spline Sans Mono ;fontSource=https%3A%2F%2Ffonts.googleapis.com%2Fcss%3Ffamily%3DSpline%2BSans%2BMono%2B;fontColor=#333E4B;fontStyle=0;labelBackgroundColor=none;" vertex="1" parent="RcrwvDNwSDzIbEaf6MxV-108">
          <mxGeometry y="90" width="270" height="30" as="geometry" />
        </mxCell>
        <mxCell id="RcrwvDNwSDzIbEaf6MxV-116" value="FK" style="shape=partialRectangle;connectable=0;fillColor=#F0F2E1;top=0;left=0;bottom=0;right=0;fontStyle=0;overflow=hidden;html=1;whiteSpace=wrap;strokeColor=inherit;fontFamily=Spline Sans Mono ;fontSource=https%3A%2F%2Ffonts.googleapis.com%2Fcss%3Ffamily%3DSpline%2BSans%2BMono%2B;fontColor=#333E4B;labelBackgroundColor=none;" vertex="1" parent="RcrwvDNwSDzIbEaf6MxV-115">
          <mxGeometry width="60" height="30" as="geometry">
            <mxRectangle width="60" height="30" as="alternateBounds" />
          </mxGeometry>
        </mxCell>
        <mxCell id="RcrwvDNwSDzIbEaf6MxV-117" value="&lt;span&gt;&lt;/span&gt;&lt;span style=&quot;white-space-collapse: preserve;&quot;&gt;loyalty_id&lt;/span&gt;&amp;nbsp;" style="shape=partialRectangle;connectable=0;fillColor=#F0F2E1;top=0;left=0;bottom=0;right=0;align=left;spacingLeft=6;fontStyle=4;overflow=hidden;html=1;whiteSpace=wrap;strokeColor=inherit;fontFamily=Spline Sans Mono ;fontSource=https%3A%2F%2Ffonts.googleapis.com%2Fcss%3Ffamily%3DSpline%2BSans%2BMono%2B;fontColor=#333E4B;labelBackgroundColor=none;" vertex="1" parent="RcrwvDNwSDzIbEaf6MxV-115">
          <mxGeometry x="60" width="210" height="30" as="geometry">
            <mxRectangle width="210" height="30" as="alternateBounds" />
          </mxGeometry>
        </mxCell>
        <mxCell id="RcrwvDNwSDzIbEaf6MxV-118" style="shape=tableRow;horizontal=0;startSize=0;swimlaneHead=0;swimlaneBody=0;fillColor=#F0F2E1;collapsible=0;dropTarget=0;points=[[0,0.5],[1,0.5]];portConstraint=eastwest;top=0;left=0;right=0;bottom=0;html=1;strokeColor=inherit;fontFamily=Spline Sans Mono ;fontSource=https%3A%2F%2Ffonts.googleapis.com%2Fcss%3Ffamily%3DSpline%2BSans%2BMono%2B;fontColor=#333E4B;fontStyle=0;labelBackgroundColor=none;" vertex="1" parent="RcrwvDNwSDzIbEaf6MxV-108">
          <mxGeometry y="120" width="270" height="30" as="geometry" />
        </mxCell>
        <mxCell id="RcrwvDNwSDzIbEaf6MxV-119" value="FK" style="shape=partialRectangle;connectable=0;fillColor=#F0F2E1;top=0;left=0;bottom=0;right=0;fontStyle=0;overflow=hidden;html=1;whiteSpace=wrap;strokeColor=inherit;fontFamily=Spline Sans Mono ;fontSource=https%3A%2F%2Ffonts.googleapis.com%2Fcss%3Ffamily%3DSpline%2BSans%2BMono%2B;fontColor=#333E4B;labelBackgroundColor=none;" vertex="1" parent="RcrwvDNwSDzIbEaf6MxV-118">
          <mxGeometry width="60" height="30" as="geometry">
            <mxRectangle width="60" height="30" as="alternateBounds" />
          </mxGeometry>
        </mxCell>
        <mxCell id="RcrwvDNwSDzIbEaf6MxV-120" value="&lt;span&gt;&lt;/span&gt;&lt;span style=&quot;white-space-collapse: preserve;&quot;&gt;location_id&lt;/span&gt;" style="shape=partialRectangle;connectable=0;fillColor=#F0F2E1;top=0;left=0;bottom=0;right=0;align=left;spacingLeft=6;fontStyle=4;overflow=hidden;html=1;whiteSpace=wrap;strokeColor=inherit;fontFamily=Spline Sans Mono ;fontSource=https%3A%2F%2Ffonts.googleapis.com%2Fcss%3Ffamily%3DSpline%2BSans%2BMono%2B;fontColor=#333E4B;labelBackgroundColor=none;" vertex="1" parent="RcrwvDNwSDzIbEaf6MxV-118">
          <mxGeometry x="60" width="210" height="30" as="geometry">
            <mxRectangle width="210" height="30" as="alternateBounds" />
          </mxGeometry>
        </mxCell>
        <mxCell id="RcrwvDNwSDzIbEaf6MxV-121" value="" style="shape=tableRow;horizontal=0;startSize=0;swimlaneHead=0;swimlaneBody=0;fillColor=#F0F2E1;collapsible=0;dropTarget=0;points=[[0,0.5],[1,0.5]];portConstraint=eastwest;top=0;left=0;right=0;bottom=0;html=1;strokeColor=inherit;fontFamily=Spline Sans Mono ;fontSource=https%3A%2F%2Ffonts.googleapis.com%2Fcss%3Ffamily%3DSpline%2BSans%2BMono%2B;fontColor=#333E4B;fontStyle=0;labelBackgroundColor=none;" vertex="1" parent="RcrwvDNwSDzIbEaf6MxV-108">
          <mxGeometry y="150" width="270" height="30" as="geometry" />
        </mxCell>
        <mxCell id="RcrwvDNwSDzIbEaf6MxV-122" value="" style="shape=partialRectangle;connectable=0;fillColor=#F0F2E1;top=0;left=0;bottom=0;right=0;editable=1;overflow=hidden;html=1;whiteSpace=wrap;strokeColor=inherit;fontFamily=Spline Sans Mono ;fontSource=https%3A%2F%2Ffonts.googleapis.com%2Fcss%3Ffamily%3DSpline%2BSans%2BMono%2B;fontColor=#333E4B;fontStyle=0;labelBackgroundColor=none;" vertex="1" parent="RcrwvDNwSDzIbEaf6MxV-121">
          <mxGeometry width="60" height="30" as="geometry">
            <mxRectangle width="60" height="30" as="alternateBounds" />
          </mxGeometry>
        </mxCell>
        <mxCell id="RcrwvDNwSDzIbEaf6MxV-123" value="&lt;span&gt;&lt;/span&gt;&lt;span style=&quot;white-space-collapse: preserve;&quot;&gt;email&lt;/span&gt;" style="shape=partialRectangle;connectable=0;fillColor=#F0F2E1;top=0;left=0;bottom=0;right=0;align=left;spacingLeft=6;overflow=hidden;html=1;whiteSpace=wrap;strokeColor=inherit;fontFamily=Spline Sans Mono ;fontSource=https%3A%2F%2Ffonts.googleapis.com%2Fcss%3Ffamily%3DSpline%2BSans%2BMono%2B;fontColor=#333E4B;fontStyle=0;labelBackgroundColor=none;" vertex="1" parent="RcrwvDNwSDzIbEaf6MxV-121">
          <mxGeometry x="60" width="210" height="30" as="geometry">
            <mxRectangle width="210" height="30" as="alternateBounds" />
          </mxGeometry>
        </mxCell>
        <mxCell id="RcrwvDNwSDzIbEaf6MxV-124" style="shape=tableRow;horizontal=0;startSize=0;swimlaneHead=0;swimlaneBody=0;fillColor=#F0F2E1;collapsible=0;dropTarget=0;points=[[0,0.5],[1,0.5]];portConstraint=eastwest;top=0;left=0;right=0;bottom=0;html=1;strokeColor=inherit;fontFamily=Spline Sans Mono ;fontSource=https%3A%2F%2Ffonts.googleapis.com%2Fcss%3Ffamily%3DSpline%2BSans%2BMono%2B;fontColor=#333E4B;fontStyle=0;labelBackgroundColor=none;" vertex="1" parent="RcrwvDNwSDzIbEaf6MxV-108">
          <mxGeometry y="180" width="270" height="30" as="geometry" />
        </mxCell>
        <mxCell id="RcrwvDNwSDzIbEaf6MxV-125" style="shape=partialRectangle;connectable=0;fillColor=#F0F2E1;top=0;left=0;bottom=0;right=0;editable=1;overflow=hidden;html=1;whiteSpace=wrap;strokeColor=inherit;fontFamily=Spline Sans Mono ;fontSource=https%3A%2F%2Ffonts.googleapis.com%2Fcss%3Ffamily%3DSpline%2BSans%2BMono%2B;fontColor=#333E4B;fontStyle=0;labelBackgroundColor=none;" vertex="1" parent="RcrwvDNwSDzIbEaf6MxV-124">
          <mxGeometry width="60" height="30" as="geometry">
            <mxRectangle width="60" height="30" as="alternateBounds" />
          </mxGeometry>
        </mxCell>
        <mxCell id="RcrwvDNwSDzIbEaf6MxV-126" value="tier" style="shape=partialRectangle;connectable=0;fillColor=#F0F2E1;top=0;left=0;bottom=0;right=0;align=left;spacingLeft=6;overflow=hidden;html=1;whiteSpace=wrap;strokeColor=inherit;fontFamily=Spline Sans Mono ;fontSource=https%3A%2F%2Ffonts.googleapis.com%2Fcss%3Ffamily%3DSpline%2BSans%2BMono%2B;fontColor=#333E4B;fontStyle=0;labelBackgroundColor=none;" vertex="1" parent="RcrwvDNwSDzIbEaf6MxV-124">
          <mxGeometry x="60" width="210" height="30" as="geometry">
            <mxRectangle width="210" height="30" as="alternateBounds" />
          </mxGeometry>
        </mxCell>
        <mxCell id="RcrwvDNwSDzIbEaf6MxV-127" value="&lt;span&gt;&lt;/span&gt;&lt;span&gt;&lt;/span&gt;&lt;span style=&quot;white-space-collapse: preserve;&quot;&gt;&lt;font data-font-src=&quot;https://fonts.googleapis.com/css?family=Spline+Sans+Mono+SemiBold&quot; style=&quot;&quot;&gt;locations&lt;/font&gt;&lt;/span&gt;" style="shape=table;startSize=30;container=1;collapsible=1;childLayout=tableLayout;fixedRows=1;rowLines=0;fontStyle=1;align=center;resizeLast=1;html=1;whiteSpace=wrap;fillStyle=solid;fillColor=#7FD1AE;strokeColor=none;fontFamily=Spline Sans Mono SemiBold;fontSource=https%3A%2F%2Ffonts.googleapis.com%2Fcss%3Ffamily%3DSpline%2BSans%2BMono%2BSemiBold;labelBackgroundColor=none;fontColor=#333E4B;" vertex="1" parent="1">
          <mxGeometry x="-815" y="386" width="270" height="150" as="geometry" />
        </mxCell>
        <mxCell id="RcrwvDNwSDzIbEaf6MxV-128" value="" style="shape=tableRow;horizontal=0;startSize=0;swimlaneHead=0;swimlaneBody=0;fillColor=#E6F4F1;collapsible=0;dropTarget=0;points=[[0,0.5],[1,0.5]];portConstraint=eastwest;top=0;left=0;right=0;bottom=0;html=1;strokeColor=inherit;fontFamily=Spline Sans Mono ;fontSource=https%3A%2F%2Ffonts.googleapis.com%2Fcss%3Ffamily%3DSpline%2BSans%2BMono%2B;fontColor=#333E4B;fontStyle=0;labelBackgroundColor=none;" vertex="1" parent="RcrwvDNwSDzIbEaf6MxV-127">
          <mxGeometry y="30" width="270" height="30" as="geometry" />
        </mxCell>
        <mxCell id="RcrwvDNwSDzIbEaf6MxV-129" value="PK" style="shape=partialRectangle;connectable=0;fillColor=#E6F4F1;top=0;left=0;bottom=0;right=0;fontStyle=0;overflow=hidden;html=1;whiteSpace=wrap;strokeColor=inherit;fontFamily=Spline Sans Mono ;fontSource=https%3A%2F%2Ffonts.googleapis.com%2Fcss%3Ffamily%3DSpline%2BSans%2BMono%2B;fontColor=#333E4B;labelBackgroundColor=none;" vertex="1" parent="RcrwvDNwSDzIbEaf6MxV-128">
          <mxGeometry width="60" height="30" as="geometry">
            <mxRectangle width="60" height="30" as="alternateBounds" />
          </mxGeometry>
        </mxCell>
        <mxCell id="RcrwvDNwSDzIbEaf6MxV-130" value="&lt;span&gt;&lt;/span&gt;&lt;span&gt;&lt;/span&gt;&lt;span style=&quot;white-space-collapse: preserve;&quot;&gt;location_id&lt;/span&gt;" style="shape=partialRectangle;connectable=0;fillColor=#E6F4F1;top=0;left=0;bottom=0;right=0;align=left;spacingLeft=6;fontStyle=4;overflow=hidden;html=1;whiteSpace=wrap;strokeColor=inherit;fontFamily=Spline Sans Mono ;fontSource=https%3A%2F%2Ffonts.googleapis.com%2Fcss%3Ffamily%3DSpline%2BSans%2BMono%2B;fontColor=#333E4B;labelBackgroundColor=none;" vertex="1" parent="RcrwvDNwSDzIbEaf6MxV-128">
          <mxGeometry x="60" width="210" height="30" as="geometry">
            <mxRectangle width="210" height="30" as="alternateBounds" />
          </mxGeometry>
        </mxCell>
        <mxCell id="RcrwvDNwSDzIbEaf6MxV-131" value="" style="shape=tableRow;horizontal=0;startSize=0;swimlaneHead=0;swimlaneBody=0;fillColor=#E6F4F1;collapsible=0;dropTarget=0;points=[[0,0.5],[1,0.5]];portConstraint=eastwest;top=0;left=0;right=0;bottom=0;html=1;strokeColor=inherit;fontFamily=Spline Sans Mono ;fontSource=https%3A%2F%2Ffonts.googleapis.com%2Fcss%3Ffamily%3DSpline%2BSans%2BMono%2B;fontColor=#333E4B;fontStyle=0;labelBackgroundColor=none;" vertex="1" parent="RcrwvDNwSDzIbEaf6MxV-127">
          <mxGeometry y="60" width="270" height="30" as="geometry" />
        </mxCell>
        <mxCell id="RcrwvDNwSDzIbEaf6MxV-132" value="" style="shape=partialRectangle;connectable=0;fillColor=#E6F4F1;top=0;left=0;bottom=0;right=0;editable=1;overflow=hidden;html=1;whiteSpace=wrap;strokeColor=inherit;fontFamily=Spline Sans Mono ;fontSource=https%3A%2F%2Ffonts.googleapis.com%2Fcss%3Ffamily%3DSpline%2BSans%2BMono%2B;fontColor=#333E4B;fontStyle=0;labelBackgroundColor=none;" vertex="1" parent="RcrwvDNwSDzIbEaf6MxV-131">
          <mxGeometry width="60" height="30" as="geometry">
            <mxRectangle width="60" height="30" as="alternateBounds" />
          </mxGeometry>
        </mxCell>
        <mxCell id="RcrwvDNwSDzIbEaf6MxV-133" value="region" style="shape=partialRectangle;connectable=0;fillColor=#E6F4F1;top=0;left=0;bottom=0;right=0;align=left;spacingLeft=6;overflow=hidden;html=1;whiteSpace=wrap;strokeColor=inherit;fontFamily=Spline Sans Mono ;fontSource=https%3A%2F%2Ffonts.googleapis.com%2Fcss%3Ffamily%3DSpline%2BSans%2BMono%2B;fontColor=#333E4B;fontStyle=0;labelBackgroundColor=none;" vertex="1" parent="RcrwvDNwSDzIbEaf6MxV-131">
          <mxGeometry x="60" width="210" height="30" as="geometry">
            <mxRectangle width="210" height="30" as="alternateBounds" />
          </mxGeometry>
        </mxCell>
        <mxCell id="RcrwvDNwSDzIbEaf6MxV-186" style="shape=tableRow;horizontal=0;startSize=0;swimlaneHead=0;swimlaneBody=0;fillColor=#E6F4F1;collapsible=0;dropTarget=0;points=[[0,0.5],[1,0.5]];portConstraint=eastwest;top=0;left=0;right=0;bottom=0;html=1;strokeColor=inherit;fontFamily=Spline Sans Mono ;fontSource=https%3A%2F%2Ffonts.googleapis.com%2Fcss%3Ffamily%3DSpline%2BSans%2BMono%2B;fontColor=#333E4B;fontStyle=0;labelBackgroundColor=none;" vertex="1" parent="RcrwvDNwSDzIbEaf6MxV-127">
          <mxGeometry y="90" width="270" height="30" as="geometry" />
        </mxCell>
        <mxCell id="RcrwvDNwSDzIbEaf6MxV-187" style="shape=partialRectangle;connectable=0;fillColor=#E6F4F1;top=0;left=0;bottom=0;right=0;editable=1;overflow=hidden;html=1;whiteSpace=wrap;strokeColor=inherit;fontFamily=Spline Sans Mono ;fontSource=https%3A%2F%2Ffonts.googleapis.com%2Fcss%3Ffamily%3DSpline%2BSans%2BMono%2B;fontColor=#333E4B;fontStyle=0;labelBackgroundColor=none;" vertex="1" parent="RcrwvDNwSDzIbEaf6MxV-186">
          <mxGeometry width="60" height="30" as="geometry">
            <mxRectangle width="60" height="30" as="alternateBounds" />
          </mxGeometry>
        </mxCell>
        <mxCell id="RcrwvDNwSDzIbEaf6MxV-188" value="country" style="shape=partialRectangle;connectable=0;fillColor=#E6F4F1;top=0;left=0;bottom=0;right=0;align=left;spacingLeft=6;overflow=hidden;html=1;whiteSpace=wrap;strokeColor=inherit;fontFamily=Spline Sans Mono ;fontSource=https%3A%2F%2Ffonts.googleapis.com%2Fcss%3Ffamily%3DSpline%2BSans%2BMono%2B;fontColor=#333E4B;fontStyle=0;labelBackgroundColor=none;" vertex="1" parent="RcrwvDNwSDzIbEaf6MxV-186">
          <mxGeometry x="60" width="210" height="30" as="geometry">
            <mxRectangle width="210" height="30" as="alternateBounds" />
          </mxGeometry>
        </mxCell>
        <mxCell id="RcrwvDNwSDzIbEaf6MxV-183" style="shape=tableRow;horizontal=0;startSize=0;swimlaneHead=0;swimlaneBody=0;fillColor=#E6F4F1;collapsible=0;dropTarget=0;points=[[0,0.5],[1,0.5]];portConstraint=eastwest;top=0;left=0;right=0;bottom=0;html=1;strokeColor=inherit;fontFamily=Spline Sans Mono ;fontSource=https%3A%2F%2Ffonts.googleapis.com%2Fcss%3Ffamily%3DSpline%2BSans%2BMono%2B;fontColor=#333E4B;fontStyle=0;labelBackgroundColor=none;" vertex="1" parent="RcrwvDNwSDzIbEaf6MxV-127">
          <mxGeometry y="120" width="270" height="30" as="geometry" />
        </mxCell>
        <mxCell id="RcrwvDNwSDzIbEaf6MxV-184" style="shape=partialRectangle;connectable=0;fillColor=#E6F4F1;top=0;left=0;bottom=0;right=0;editable=1;overflow=hidden;html=1;whiteSpace=wrap;strokeColor=inherit;fontFamily=Spline Sans Mono ;fontSource=https%3A%2F%2Ffonts.googleapis.com%2Fcss%3Ffamily%3DSpline%2BSans%2BMono%2B;fontColor=#333E4B;fontStyle=0;labelBackgroundColor=none;" vertex="1" parent="RcrwvDNwSDzIbEaf6MxV-183">
          <mxGeometry width="60" height="30" as="geometry">
            <mxRectangle width="60" height="30" as="alternateBounds" />
          </mxGeometry>
        </mxCell>
        <mxCell id="RcrwvDNwSDzIbEaf6MxV-185" value="city" style="shape=partialRectangle;connectable=0;fillColor=#E6F4F1;top=0;left=0;bottom=0;right=0;align=left;spacingLeft=6;overflow=hidden;html=1;whiteSpace=wrap;strokeColor=inherit;fontFamily=Spline Sans Mono ;fontSource=https%3A%2F%2Ffonts.googleapis.com%2Fcss%3Ffamily%3DSpline%2BSans%2BMono%2B;fontColor=#333E4B;fontStyle=0;labelBackgroundColor=none;" vertex="1" parent="RcrwvDNwSDzIbEaf6MxV-183">
          <mxGeometry x="60" width="210" height="30" as="geometry">
            <mxRectangle width="210" height="30" as="alternateBounds" />
          </mxGeometry>
        </mxCell>
        <mxCell id="RcrwvDNwSDzIbEaf6MxV-146" value="" style="edgeStyle=entityRelationEdgeStyle;fontSize=12;html=1;endArrow=ERmandOne;startArrow=ERoneToMany;rounded=0;flowAnimation=1;dashed=1;strokeWidth=2;strokeColor=#324B4D;entryX=1;entryY=0.5;entryDx=0;entryDy=0;endFill=0;startFill=0;" edge="1" parent="1" source="Fx5C9bnQ34uH0TO9ncKX-25" target="RcrwvDNwSDzIbEaf6MxV-109">
          <mxGeometry width="100" height="100" relative="1" as="geometry">
            <mxPoint x="-140" y="325" as="sourcePoint" />
            <mxPoint x="-173" y="530" as="targetPoint" />
            <Array as="points">
              <mxPoint x="-174" y="345" />
            </Array>
          </mxGeometry>
        </mxCell>
        <mxCell id="RcrwvDNwSDzIbEaf6MxV-170" value="" style="edgeStyle=entityRelationEdgeStyle;fontSize=12;html=1;endArrow=ERmandOne;startArrow=ERoneToMany;rounded=0;flowAnimation=1;dashed=1;strokeWidth=2;strokeColor=#00A9BE;endFill=0;startFill=0;entryX=0;entryY=0.5;entryDx=0;entryDy=0;" edge="1" parent="1" source="RcrwvDNwSDzIbEaf6MxV-151" target="Fx5C9bnQ34uH0TO9ncKX-19">
          <mxGeometry width="100" height="100" relative="1" as="geometry">
            <mxPoint x="15" y="776" as="sourcePoint" />
            <mxPoint x="-49" y="698" as="targetPoint" />
            <Array as="points">
              <mxPoint x="-158" y="942" />
            </Array>
          </mxGeometry>
        </mxCell>
        <mxCell id="RcrwvDNwSDzIbEaf6MxV-189" value="" style="edgeStyle=entityRelationEdgeStyle;fontSize=12;html=1;endArrow=ERoneToMany;startArrow=ERmandOne;rounded=0;flowAnimation=1;dashed=1;strokeWidth=2;strokeColor=#324B4D;entryX=0;entryY=0.5;entryDx=0;entryDy=0;endFill=0;startFill=0;exitX=1;exitY=0.5;exitDx=0;exitDy=0;" edge="1" parent="1" source="RcrwvDNwSDzIbEaf6MxV-128" target="RcrwvDNwSDzIbEaf6MxV-11">
          <mxGeometry width="100" height="100" relative="1" as="geometry">
            <mxPoint x="-508" y="559" as="sourcePoint" />
            <mxPoint x="-147" y="579" as="targetPoint" />
            <Array as="points">
              <mxPoint x="-164" y="355" />
            </Array>
          </mxGeometry>
        </mxCell>
        <mxCell id="RcrwvDNwSDzIbEaf6MxV-190" value="" style="edgeStyle=entityRelationEdgeStyle;fontSize=12;html=1;endArrow=ERoneToMany;startArrow=ERmandOne;rounded=0;flowAnimation=1;dashed=1;strokeWidth=2;strokeColor=#324B4D;entryX=0;entryY=0.5;entryDx=0;entryDy=0;endFill=0;startFill=0;exitX=1;exitY=0.5;exitDx=0;exitDy=0;" edge="1" parent="1" source="RcrwvDNwSDzIbEaf6MxV-128" target="RcrwvDNwSDzIbEaf6MxV-118">
          <mxGeometry width="100" height="100" relative="1" as="geometry">
            <mxPoint x="-535" y="441" as="sourcePoint" />
            <mxPoint x="-420" y="398" as="targetPoint" />
            <Array as="points">
              <mxPoint x="-154" y="365" />
            </Array>
          </mxGeometry>
        </mxCell>
        <mxCell id="RcrwvDNwSDzIbEaf6MxV-215" value="&lt;span&gt;&lt;/span&gt;&lt;span&gt;&lt;/span&gt;&lt;span style=&quot;white-space-collapse: preserve;&quot;&gt;&lt;font data-font-src=&quot;https://fonts.googleapis.com/css?family=Spline+Sans+Mono+SemiBold&quot; style=&quot;&quot;&gt;customer_loyality&lt;/font&gt;&lt;/span&gt;" style="shape=table;startSize=30;container=1;collapsible=1;childLayout=tableLayout;fixedRows=1;rowLines=0;fontStyle=1;align=center;resizeLast=1;html=1;whiteSpace=wrap;fillStyle=solid;fillColor=#7FD1AE;strokeColor=none;fontFamily=Spline Sans Mono SemiBold;fontSource=https%3A%2F%2Ffonts.googleapis.com%2Fcss%3Ffamily%3DSpline%2BSans%2BMono%2BSemiBold;labelBackgroundColor=none;fontColor=#333E4B;" vertex="1" parent="1">
          <mxGeometry x="-815" y="142" width="270" height="90" as="geometry" />
        </mxCell>
        <mxCell id="RcrwvDNwSDzIbEaf6MxV-216" value="" style="shape=tableRow;horizontal=0;startSize=0;swimlaneHead=0;swimlaneBody=0;fillColor=#E6F4F1;collapsible=0;dropTarget=0;points=[[0,0.5],[1,0.5]];portConstraint=eastwest;top=0;left=0;right=0;bottom=0;html=1;strokeColor=inherit;fontFamily=Spline Sans Mono ;fontSource=https%3A%2F%2Ffonts.googleapis.com%2Fcss%3Ffamily%3DSpline%2BSans%2BMono%2B;fontColor=#333E4B;fontStyle=0;labelBackgroundColor=none;" vertex="1" parent="RcrwvDNwSDzIbEaf6MxV-215">
          <mxGeometry y="30" width="270" height="30" as="geometry" />
        </mxCell>
        <mxCell id="RcrwvDNwSDzIbEaf6MxV-217" value="PK" style="shape=partialRectangle;connectable=0;fillColor=#E6F4F1;top=0;left=0;bottom=0;right=0;fontStyle=0;overflow=hidden;html=1;whiteSpace=wrap;strokeColor=inherit;fontFamily=Spline Sans Mono ;fontSource=https%3A%2F%2Ffonts.googleapis.com%2Fcss%3Ffamily%3DSpline%2BSans%2BMono%2B;fontColor=#333E4B;labelBackgroundColor=none;" vertex="1" parent="RcrwvDNwSDzIbEaf6MxV-216">
          <mxGeometry width="60" height="30" as="geometry">
            <mxRectangle width="60" height="30" as="alternateBounds" />
          </mxGeometry>
        </mxCell>
        <mxCell id="RcrwvDNwSDzIbEaf6MxV-218" value="&lt;span&gt;&lt;/span&gt;&lt;span style=&quot;white-space-collapse: preserve;&quot;&gt;loyalty_id&lt;/span&gt;" style="shape=partialRectangle;connectable=0;fillColor=#E6F4F1;top=0;left=0;bottom=0;right=0;align=left;spacingLeft=6;fontStyle=4;overflow=hidden;html=1;whiteSpace=wrap;strokeColor=inherit;fontFamily=Spline Sans Mono ;fontSource=https%3A%2F%2Ffonts.googleapis.com%2Fcss%3Ffamily%3DSpline%2BSans%2BMono%2B;fontColor=#333E4B;labelBackgroundColor=none;" vertex="1" parent="RcrwvDNwSDzIbEaf6MxV-216">
          <mxGeometry x="60" width="210" height="30" as="geometry">
            <mxRectangle width="210" height="30" as="alternateBounds" />
          </mxGeometry>
        </mxCell>
        <mxCell id="RcrwvDNwSDzIbEaf6MxV-219" value="" style="shape=tableRow;horizontal=0;startSize=0;swimlaneHead=0;swimlaneBody=0;fillColor=#E6F4F1;collapsible=0;dropTarget=0;points=[[0,0.5],[1,0.5]];portConstraint=eastwest;top=0;left=0;right=0;bottom=0;html=1;strokeColor=inherit;fontFamily=Spline Sans Mono ;fontSource=https%3A%2F%2Ffonts.googleapis.com%2Fcss%3Ffamily%3DSpline%2BSans%2BMono%2B;fontColor=#333E4B;fontStyle=0;labelBackgroundColor=none;" vertex="1" parent="RcrwvDNwSDzIbEaf6MxV-215">
          <mxGeometry y="60" width="270" height="30" as="geometry" />
        </mxCell>
        <mxCell id="RcrwvDNwSDzIbEaf6MxV-220" value="" style="shape=partialRectangle;connectable=0;fillColor=#E6F4F1;top=0;left=0;bottom=0;right=0;editable=1;overflow=hidden;html=1;whiteSpace=wrap;strokeColor=inherit;fontFamily=Spline Sans Mono ;fontSource=https%3A%2F%2Ffonts.googleapis.com%2Fcss%3Ffamily%3DSpline%2BSans%2BMono%2B;fontColor=#333E4B;fontStyle=0;labelBackgroundColor=none;" vertex="1" parent="RcrwvDNwSDzIbEaf6MxV-219">
          <mxGeometry width="60" height="30" as="geometry">
            <mxRectangle width="60" height="30" as="alternateBounds" />
          </mxGeometry>
        </mxCell>
        <mxCell id="RcrwvDNwSDzIbEaf6MxV-221" value="tier" style="shape=partialRectangle;connectable=0;fillColor=#E6F4F1;top=0;left=0;bottom=0;right=0;align=left;spacingLeft=6;overflow=hidden;html=1;whiteSpace=wrap;strokeColor=inherit;fontFamily=Spline Sans Mono ;fontSource=https%3A%2F%2Ffonts.googleapis.com%2Fcss%3Ffamily%3DSpline%2BSans%2BMono%2B;fontColor=#333E4B;fontStyle=0;labelBackgroundColor=none;" vertex="1" parent="RcrwvDNwSDzIbEaf6MxV-219">
          <mxGeometry x="60" width="210" height="30" as="geometry">
            <mxRectangle width="210" height="30" as="alternateBounds" />
          </mxGeometry>
        </mxCell>
        <mxCell id="RcrwvDNwSDzIbEaf6MxV-228" value="" style="edgeStyle=entityRelationEdgeStyle;fontSize=12;html=1;endArrow=ERmandOne;startArrow=ERoneToMany;rounded=0;flowAnimation=1;dashed=1;strokeWidth=2;strokeColor=#324B4D;exitX=0;exitY=0.5;exitDx=0;exitDy=0;entryX=1;entryY=0.5;entryDx=0;entryDy=0;endFill=0;startFill=0;" edge="1" parent="1" source="RcrwvDNwSDzIbEaf6MxV-1" target="RcrwvDNwSDzIbEaf6MxV-215">
          <mxGeometry width="100" height="100" relative="1" as="geometry">
            <mxPoint x="-31" y="546" as="sourcePoint" />
            <mxPoint x="-150" y="308" as="targetPoint" />
            <Array as="points">
              <mxPoint x="-174" y="345" />
            </Array>
          </mxGeometry>
        </mxCell>
        <mxCell id="RcrwvDNwSDzIbEaf6MxV-231" value="&lt;span&gt;&lt;/span&gt;&lt;span&gt;&lt;/span&gt;&lt;span&gt;&lt;/span&gt;&lt;span style=&quot;white-space-collapse: preserve;&quot;&gt;&lt;font style=&quot;&quot; data-font-src=&quot;https://fonts.googleapis.com/css?family=Spline+Sans+Mono+SemiBold&quot;&gt;product_restocks&lt;/font&gt;&lt;/span&gt;" style="shape=table;startSize=30;container=1;collapsible=1;childLayout=tableLayout;fixedRows=1;rowLines=0;fontStyle=1;align=center;resizeLast=1;html=1;whiteSpace=wrap;fillStyle=solid;fillColor=#83C6CC;strokeColor=none;fontFamily=Spline Sans Mono SemiBold;fontSource=https%3A%2F%2Ffonts.googleapis.com%2Fcss%3Ffamily%3DSpline%2BSans%2BMono%2BSemiBold;labelBackgroundColor=none;fontColor=#333E4B;" vertex="1" parent="1">
          <mxGeometry x="1277" y="-62" width="230" height="240" as="geometry" />
        </mxCell>
        <mxCell id="RcrwvDNwSDzIbEaf6MxV-232" value="" style="shape=tableRow;horizontal=0;startSize=0;swimlaneHead=0;swimlaneBody=0;fillColor=#DEEEEB;collapsible=0;dropTarget=0;points=[[0,0.5],[1,0.5]];portConstraint=eastwest;top=0;left=0;right=0;bottom=0;html=1;strokeColor=inherit;fontFamily=Spline Sans Mono ;fontSource=https%3A%2F%2Ffonts.googleapis.com%2Fcss%3Ffamily%3DSpline%2BSans%2BMono%2B;fontColor=#333E4B;fontStyle=0;labelBackgroundColor=none;" vertex="1" parent="RcrwvDNwSDzIbEaf6MxV-231">
          <mxGeometry y="30" width="230" height="30" as="geometry" />
        </mxCell>
        <mxCell id="RcrwvDNwSDzIbEaf6MxV-233" value="PK" style="shape=partialRectangle;connectable=0;fillColor=#DEEEEB;top=0;left=0;bottom=0;right=0;fontStyle=0;overflow=hidden;html=1;whiteSpace=wrap;strokeColor=inherit;fontFamily=Spline Sans Mono ;fontSource=https%3A%2F%2Ffonts.googleapis.com%2Fcss%3Ffamily%3DSpline%2BSans%2BMono%2B;fontColor=#333E4B;labelBackgroundColor=none;" vertex="1" parent="RcrwvDNwSDzIbEaf6MxV-232">
          <mxGeometry width="60" height="30" as="geometry">
            <mxRectangle width="60" height="30" as="alternateBounds" />
          </mxGeometry>
        </mxCell>
        <mxCell id="RcrwvDNwSDzIbEaf6MxV-234" value="&lt;span&gt;&lt;/span&gt;&lt;span style=&quot;white-space-collapse: preserve;&quot;&gt;restock_id&lt;/span&gt;" style="shape=partialRectangle;connectable=0;fillColor=#DEEEEB;top=0;left=0;bottom=0;right=0;align=left;spacingLeft=6;fontStyle=4;overflow=hidden;html=1;whiteSpace=wrap;strokeColor=inherit;fontFamily=Spline Sans Mono ;fontSource=https%3A%2F%2Ffonts.googleapis.com%2Fcss%3Ffamily%3DSpline%2BSans%2BMono%2B;fontColor=#333E4B;labelBackgroundColor=none;" vertex="1" parent="RcrwvDNwSDzIbEaf6MxV-232">
          <mxGeometry x="60" width="170" height="30" as="geometry">
            <mxRectangle width="170" height="30" as="alternateBounds" />
          </mxGeometry>
        </mxCell>
        <mxCell id="RcrwvDNwSDzIbEaf6MxV-235" value="" style="shape=tableRow;horizontal=0;startSize=0;swimlaneHead=0;swimlaneBody=0;fillColor=#DEEEEB;collapsible=0;dropTarget=0;points=[[0,0.5],[1,0.5]];portConstraint=eastwest;top=0;left=0;right=0;bottom=0;html=1;strokeColor=inherit;fontFamily=Spline Sans Mono ;fontSource=https%3A%2F%2Ffonts.googleapis.com%2Fcss%3Ffamily%3DSpline%2BSans%2BMono%2B;fontColor=#333E4B;fontStyle=0;labelBackgroundColor=none;" vertex="1" parent="RcrwvDNwSDzIbEaf6MxV-231">
          <mxGeometry y="60" width="230" height="30" as="geometry" />
        </mxCell>
        <mxCell id="RcrwvDNwSDzIbEaf6MxV-236" value="" style="shape=partialRectangle;connectable=0;fillColor=#DEEEEB;top=0;left=0;bottom=0;right=0;editable=1;overflow=hidden;html=1;whiteSpace=wrap;strokeColor=inherit;fontFamily=Spline Sans Mono ;fontSource=https%3A%2F%2Ffonts.googleapis.com%2Fcss%3Ffamily%3DSpline%2BSans%2BMono%2B;fontColor=#333E4B;fontStyle=0;labelBackgroundColor=none;" vertex="1" parent="RcrwvDNwSDzIbEaf6MxV-235">
          <mxGeometry width="60" height="30" as="geometry">
            <mxRectangle width="60" height="30" as="alternateBounds" />
          </mxGeometry>
        </mxCell>
        <mxCell id="RcrwvDNwSDzIbEaf6MxV-237" value="&lt;span&gt;&lt;/span&gt;&lt;span&gt;&lt;/span&gt;&lt;span style=&quot;white-space-collapse: preserve;&quot;&gt;restock_timestamp&lt;/span&gt;" style="shape=partialRectangle;connectable=0;fillColor=#DEEEEB;top=0;left=0;bottom=0;right=0;align=left;spacingLeft=6;overflow=hidden;html=1;whiteSpace=wrap;strokeColor=inherit;fontFamily=Spline Sans Mono ;fontSource=https%3A%2F%2Ffonts.googleapis.com%2Fcss%3Ffamily%3DSpline%2BSans%2BMono%2B;fontColor=#333E4B;fontStyle=0;labelBackgroundColor=none;" vertex="1" parent="RcrwvDNwSDzIbEaf6MxV-235">
          <mxGeometry x="60" width="170" height="30" as="geometry">
            <mxRectangle width="170" height="30" as="alternateBounds" />
          </mxGeometry>
        </mxCell>
        <mxCell id="RcrwvDNwSDzIbEaf6MxV-238" value="" style="shape=tableRow;horizontal=0;startSize=0;swimlaneHead=0;swimlaneBody=0;fillColor=#DEEEEB;collapsible=0;dropTarget=0;points=[[0,0.5],[1,0.5]];portConstraint=eastwest;top=0;left=0;right=0;bottom=1;html=1;strokeColor=inherit;fontFamily=Spline Sans Mono ;fontSource=https%3A%2F%2Ffonts.googleapis.com%2Fcss%3Ffamily%3DSpline%2BSans%2BMono%2B;fontColor=#333E4B;fontStyle=0;labelBackgroundColor=none;" vertex="1" parent="RcrwvDNwSDzIbEaf6MxV-231">
          <mxGeometry y="90" width="230" height="30" as="geometry" />
        </mxCell>
        <mxCell id="RcrwvDNwSDzIbEaf6MxV-239" value="FK" style="shape=partialRectangle;connectable=0;fillColor=#DEEEEB;top=0;left=0;bottom=0;right=0;fontStyle=0;overflow=hidden;html=1;whiteSpace=wrap;strokeColor=inherit;fontFamily=Spline Sans Mono ;fontSource=https%3A%2F%2Ffonts.googleapis.com%2Fcss%3Ffamily%3DSpline%2BSans%2BMono%2B;fontColor=#333E4B;labelBackgroundColor=none;" vertex="1" parent="RcrwvDNwSDzIbEaf6MxV-238">
          <mxGeometry width="60" height="30" as="geometry">
            <mxRectangle width="60" height="30" as="alternateBounds" />
          </mxGeometry>
        </mxCell>
        <mxCell id="RcrwvDNwSDzIbEaf6MxV-240" value="&lt;span&gt;&lt;/span&gt;&lt;span style=&quot;white-space-collapse: preserve;&quot;&gt;store_id&lt;/span&gt;&amp;nbsp;" style="shape=partialRectangle;connectable=0;fillColor=#DEEEEB;top=0;left=0;bottom=0;right=0;align=left;spacingLeft=6;fontStyle=4;overflow=hidden;html=1;whiteSpace=wrap;strokeColor=inherit;fontFamily=Spline Sans Mono ;fontSource=https%3A%2F%2Ffonts.googleapis.com%2Fcss%3Ffamily%3DSpline%2BSans%2BMono%2B;fontColor=#333E4B;labelBackgroundColor=none;" vertex="1" parent="RcrwvDNwSDzIbEaf6MxV-238">
          <mxGeometry x="60" width="170" height="30" as="geometry">
            <mxRectangle width="170" height="30" as="alternateBounds" />
          </mxGeometry>
        </mxCell>
        <mxCell id="RcrwvDNwSDzIbEaf6MxV-241" style="shape=tableRow;horizontal=0;startSize=0;swimlaneHead=0;swimlaneBody=0;fillColor=#DEEEEB;collapsible=0;dropTarget=0;points=[[0,0.5],[1,0.5]];portConstraint=eastwest;top=0;left=0;right=0;bottom=0;html=1;strokeColor=inherit;fontFamily=Spline Sans Mono ;fontSource=https%3A%2F%2Ffonts.googleapis.com%2Fcss%3Ffamily%3DSpline%2BSans%2BMono%2B;fontColor=#333E4B;fontStyle=0;labelBackgroundColor=none;" vertex="1" parent="RcrwvDNwSDzIbEaf6MxV-231">
          <mxGeometry y="120" width="230" height="30" as="geometry" />
        </mxCell>
        <mxCell id="RcrwvDNwSDzIbEaf6MxV-242" value="FK" style="shape=partialRectangle;connectable=0;fillColor=#DEEEEB;top=0;left=0;bottom=0;right=0;fontStyle=0;overflow=hidden;html=1;whiteSpace=wrap;strokeColor=inherit;fontFamily=Spline Sans Mono ;fontSource=https%3A%2F%2Ffonts.googleapis.com%2Fcss%3Ffamily%3DSpline%2BSans%2BMono%2B;fontColor=#333E4B;labelBackgroundColor=none;" vertex="1" parent="RcrwvDNwSDzIbEaf6MxV-241">
          <mxGeometry width="60" height="30" as="geometry">
            <mxRectangle width="60" height="30" as="alternateBounds" />
          </mxGeometry>
        </mxCell>
        <mxCell id="RcrwvDNwSDzIbEaf6MxV-243" value="&lt;span&gt;&lt;/span&gt;&lt;span&gt;&lt;/span&gt;&lt;span&gt;&lt;/span&gt;&lt;span style=&quot;white-space-collapse: preserve;&quot;&gt;product_id&lt;/span&gt;" style="shape=partialRectangle;connectable=0;fillColor=#DEEEEB;top=0;left=0;bottom=0;right=0;align=left;spacingLeft=6;fontStyle=4;overflow=hidden;html=1;whiteSpace=wrap;strokeColor=inherit;fontFamily=Spline Sans Mono ;fontSource=https%3A%2F%2Ffonts.googleapis.com%2Fcss%3Ffamily%3DSpline%2BSans%2BMono%2B;fontColor=#333E4B;labelBackgroundColor=none;" vertex="1" parent="RcrwvDNwSDzIbEaf6MxV-241">
          <mxGeometry x="60" width="170" height="30" as="geometry">
            <mxRectangle width="170" height="30" as="alternateBounds" />
          </mxGeometry>
        </mxCell>
        <mxCell id="RcrwvDNwSDzIbEaf6MxV-250" value="" style="shape=tableRow;horizontal=0;startSize=0;swimlaneHead=0;swimlaneBody=0;fillColor=#DEEEEB;collapsible=0;dropTarget=0;points=[[0,0.5],[1,0.5]];portConstraint=eastwest;top=0;left=0;right=0;bottom=0;html=1;strokeColor=inherit;fontFamily=Spline Sans Mono ;fontSource=https%3A%2F%2Ffonts.googleapis.com%2Fcss%3Ffamily%3DSpline%2BSans%2BMono%2B;fontColor=#333E4B;fontStyle=0;labelBackgroundColor=none;" vertex="1" parent="RcrwvDNwSDzIbEaf6MxV-231">
          <mxGeometry y="150" width="230" height="30" as="geometry" />
        </mxCell>
        <mxCell id="RcrwvDNwSDzIbEaf6MxV-251" value="" style="shape=partialRectangle;connectable=0;fillColor=#DEEEEB;top=0;left=0;bottom=0;right=0;editable=1;overflow=hidden;html=1;whiteSpace=wrap;strokeColor=inherit;fontFamily=Spline Sans Mono ;fontSource=https%3A%2F%2Ffonts.googleapis.com%2Fcss%3Ffamily%3DSpline%2BSans%2BMono%2B;fontColor=#333E4B;fontStyle=0;labelBackgroundColor=none;" vertex="1" parent="RcrwvDNwSDzIbEaf6MxV-250">
          <mxGeometry width="60" height="30" as="geometry">
            <mxRectangle width="60" height="30" as="alternateBounds" />
          </mxGeometry>
        </mxCell>
        <mxCell id="RcrwvDNwSDzIbEaf6MxV-252" value="&lt;span&gt;&lt;/span&gt;&lt;span style=&quot;white-space-collapse: preserve;&quot;&gt;quantity_change&lt;/span&gt;&amp;nbsp;" style="shape=partialRectangle;connectable=0;fillColor=#DEEEEB;top=0;left=0;bottom=0;right=0;align=left;spacingLeft=6;overflow=hidden;html=1;whiteSpace=wrap;strokeColor=inherit;fontFamily=Spline Sans Mono ;fontSource=https%3A%2F%2Ffonts.googleapis.com%2Fcss%3Ffamily%3DSpline%2BSans%2BMono%2B;fontColor=#333E4B;fontStyle=0;labelBackgroundColor=none;" vertex="1" parent="RcrwvDNwSDzIbEaf6MxV-250">
          <mxGeometry x="60" width="170" height="30" as="geometry">
            <mxRectangle width="170" height="30" as="alternateBounds" />
          </mxGeometry>
        </mxCell>
        <mxCell id="RcrwvDNwSDzIbEaf6MxV-272" style="shape=tableRow;horizontal=0;startSize=0;swimlaneHead=0;swimlaneBody=0;fillColor=#DEEEEB;collapsible=0;dropTarget=0;points=[[0,0.5],[1,0.5]];portConstraint=eastwest;top=0;left=0;right=0;bottom=0;html=1;strokeColor=inherit;fontFamily=Spline Sans Mono ;fontSource=https%3A%2F%2Ffonts.googleapis.com%2Fcss%3Ffamily%3DSpline%2BSans%2BMono%2B;fontColor=#333E4B;fontStyle=0;labelBackgroundColor=none;" vertex="1" parent="RcrwvDNwSDzIbEaf6MxV-231">
          <mxGeometry y="180" width="230" height="30" as="geometry" />
        </mxCell>
        <mxCell id="RcrwvDNwSDzIbEaf6MxV-273" style="shape=partialRectangle;connectable=0;fillColor=#DEEEEB;top=0;left=0;bottom=0;right=0;editable=1;overflow=hidden;html=1;whiteSpace=wrap;strokeColor=inherit;fontFamily=Spline Sans Mono ;fontSource=https%3A%2F%2Ffonts.googleapis.com%2Fcss%3Ffamily%3DSpline%2BSans%2BMono%2B;fontColor=#333E4B;fontStyle=0;labelBackgroundColor=none;" vertex="1" parent="RcrwvDNwSDzIbEaf6MxV-272">
          <mxGeometry width="60" height="30" as="geometry">
            <mxRectangle width="60" height="30" as="alternateBounds" />
          </mxGeometry>
        </mxCell>
        <mxCell id="RcrwvDNwSDzIbEaf6MxV-274" value="unit_cost" style="shape=partialRectangle;connectable=0;fillColor=#DEEEEB;top=0;left=0;bottom=0;right=0;align=left;spacingLeft=6;overflow=hidden;html=1;whiteSpace=wrap;strokeColor=inherit;fontFamily=Spline Sans Mono ;fontSource=https%3A%2F%2Ffonts.googleapis.com%2Fcss%3Ffamily%3DSpline%2BSans%2BMono%2B;fontColor=#333E4B;fontStyle=0;labelBackgroundColor=none;" vertex="1" parent="RcrwvDNwSDzIbEaf6MxV-272">
          <mxGeometry x="60" width="170" height="30" as="geometry">
            <mxRectangle width="170" height="30" as="alternateBounds" />
          </mxGeometry>
        </mxCell>
        <mxCell id="RcrwvDNwSDzIbEaf6MxV-269" style="shape=tableRow;horizontal=0;startSize=0;swimlaneHead=0;swimlaneBody=0;fillColor=#DEEEEB;collapsible=0;dropTarget=0;points=[[0,0.5],[1,0.5]];portConstraint=eastwest;top=0;left=0;right=0;bottom=0;html=1;strokeColor=inherit;fontFamily=Spline Sans Mono ;fontSource=https%3A%2F%2Ffonts.googleapis.com%2Fcss%3Ffamily%3DSpline%2BSans%2BMono%2B;fontColor=#333E4B;fontStyle=0;labelBackgroundColor=none;" vertex="1" parent="RcrwvDNwSDzIbEaf6MxV-231">
          <mxGeometry y="210" width="230" height="30" as="geometry" />
        </mxCell>
        <mxCell id="RcrwvDNwSDzIbEaf6MxV-270" style="shape=partialRectangle;connectable=0;fillColor=#DEEEEB;top=0;left=0;bottom=0;right=0;editable=1;overflow=hidden;html=1;whiteSpace=wrap;strokeColor=inherit;fontFamily=Spline Sans Mono ;fontSource=https%3A%2F%2Ffonts.googleapis.com%2Fcss%3Ffamily%3DSpline%2BSans%2BMono%2B;fontColor=#333E4B;fontStyle=0;labelBackgroundColor=none;" vertex="1" parent="RcrwvDNwSDzIbEaf6MxV-269">
          <mxGeometry width="60" height="30" as="geometry">
            <mxRectangle width="60" height="30" as="alternateBounds" />
          </mxGeometry>
        </mxCell>
        <mxCell id="RcrwvDNwSDzIbEaf6MxV-271" value="total_cost" style="shape=partialRectangle;connectable=0;fillColor=#DEEEEB;top=0;left=0;bottom=0;right=0;align=left;spacingLeft=6;overflow=hidden;html=1;whiteSpace=wrap;strokeColor=inherit;fontFamily=Spline Sans Mono ;fontSource=https%3A%2F%2Ffonts.googleapis.com%2Fcss%3Ffamily%3DSpline%2BSans%2BMono%2B;fontColor=#333E4B;fontStyle=0;labelBackgroundColor=none;" vertex="1" parent="RcrwvDNwSDzIbEaf6MxV-269">
          <mxGeometry x="60" width="170" height="30" as="geometry">
            <mxRectangle width="170" height="30" as="alternateBounds" />
          </mxGeometry>
        </mxCell>
        <mxCell id="RcrwvDNwSDzIbEaf6MxV-253" value="&lt;span&gt;&lt;/span&gt;&lt;span&gt;&lt;/span&gt;&lt;span&gt;&lt;/span&gt;&lt;span style=&quot;white-space-collapse: preserve;&quot;&gt;&lt;font style=&quot;&quot; data-font-src=&quot;https://fonts.googleapis.com/css?family=Spline+Sans+Mono+SemiBold&quot;&gt;product_restocks&lt;/font&gt;&lt;/span&gt;" style="shape=table;startSize=30;container=1;collapsible=1;childLayout=tableLayout;fixedRows=1;rowLines=0;fontStyle=1;align=center;resizeLast=1;html=1;whiteSpace=wrap;fillStyle=solid;fillColor=#83C6CC;strokeColor=none;fontFamily=Spline Sans Mono SemiBold;fontSource=https%3A%2F%2Ffonts.googleapis.com%2Fcss%3Ffamily%3DSpline%2BSans%2BMono%2BSemiBold;labelBackgroundColor=none;fontColor=#333E4B;" vertex="1" parent="1">
          <mxGeometry x="1520" y="146" width="230" height="180" as="geometry" />
        </mxCell>
        <mxCell id="RcrwvDNwSDzIbEaf6MxV-254" value="" style="shape=tableRow;horizontal=0;startSize=0;swimlaneHead=0;swimlaneBody=0;fillColor=#DEEEEB;collapsible=0;dropTarget=0;points=[[0,0.5],[1,0.5]];portConstraint=eastwest;top=0;left=0;right=0;bottom=0;html=1;strokeColor=inherit;fontFamily=Spline Sans Mono ;fontSource=https%3A%2F%2Ffonts.googleapis.com%2Fcss%3Ffamily%3DSpline%2BSans%2BMono%2B;fontColor=#333E4B;fontStyle=0;labelBackgroundColor=none;" vertex="1" parent="RcrwvDNwSDzIbEaf6MxV-253">
          <mxGeometry y="30" width="230" height="30" as="geometry" />
        </mxCell>
        <mxCell id="RcrwvDNwSDzIbEaf6MxV-255" value="PK" style="shape=partialRectangle;connectable=0;fillColor=#DEEEEB;top=0;left=0;bottom=0;right=0;fontStyle=0;overflow=hidden;html=1;whiteSpace=wrap;strokeColor=inherit;fontFamily=Spline Sans Mono ;fontSource=https%3A%2F%2Ffonts.googleapis.com%2Fcss%3Ffamily%3DSpline%2BSans%2BMono%2B;fontColor=#333E4B;labelBackgroundColor=none;" vertex="1" parent="RcrwvDNwSDzIbEaf6MxV-254">
          <mxGeometry width="60" height="30" as="geometry">
            <mxRectangle width="60" height="30" as="alternateBounds" />
          </mxGeometry>
        </mxCell>
        <mxCell id="RcrwvDNwSDzIbEaf6MxV-256" value="&lt;span&gt;&lt;/span&gt;&lt;span style=&quot;white-space-collapse: preserve;&quot;&gt;restock_id&lt;/span&gt;" style="shape=partialRectangle;connectable=0;fillColor=#DEEEEB;top=0;left=0;bottom=0;right=0;align=left;spacingLeft=6;fontStyle=4;overflow=hidden;html=1;whiteSpace=wrap;strokeColor=inherit;fontFamily=Spline Sans Mono ;fontSource=https%3A%2F%2Ffonts.googleapis.com%2Fcss%3Ffamily%3DSpline%2BSans%2BMono%2B;fontColor=#333E4B;labelBackgroundColor=none;" vertex="1" parent="RcrwvDNwSDzIbEaf6MxV-254">
          <mxGeometry x="60" width="170" height="30" as="geometry">
            <mxRectangle width="170" height="30" as="alternateBounds" />
          </mxGeometry>
        </mxCell>
        <mxCell id="RcrwvDNwSDzIbEaf6MxV-257" value="" style="shape=tableRow;horizontal=0;startSize=0;swimlaneHead=0;swimlaneBody=0;fillColor=#DEEEEB;collapsible=0;dropTarget=0;points=[[0,0.5],[1,0.5]];portConstraint=eastwest;top=0;left=0;right=0;bottom=0;html=1;strokeColor=inherit;fontFamily=Spline Sans Mono ;fontSource=https%3A%2F%2Ffonts.googleapis.com%2Fcss%3Ffamily%3DSpline%2BSans%2BMono%2B;fontColor=#333E4B;fontStyle=0;labelBackgroundColor=none;" vertex="1" parent="RcrwvDNwSDzIbEaf6MxV-253">
          <mxGeometry y="60" width="230" height="30" as="geometry" />
        </mxCell>
        <mxCell id="RcrwvDNwSDzIbEaf6MxV-258" value="" style="shape=partialRectangle;connectable=0;fillColor=#DEEEEB;top=0;left=0;bottom=0;right=0;editable=1;overflow=hidden;html=1;whiteSpace=wrap;strokeColor=inherit;fontFamily=Spline Sans Mono ;fontSource=https%3A%2F%2Ffonts.googleapis.com%2Fcss%3Ffamily%3DSpline%2BSans%2BMono%2B;fontColor=#333E4B;fontStyle=0;labelBackgroundColor=none;" vertex="1" parent="RcrwvDNwSDzIbEaf6MxV-257">
          <mxGeometry width="60" height="30" as="geometry">
            <mxRectangle width="60" height="30" as="alternateBounds" />
          </mxGeometry>
        </mxCell>
        <mxCell id="RcrwvDNwSDzIbEaf6MxV-259" value="&lt;span&gt;&lt;/span&gt;&lt;span&gt;&lt;/span&gt;&lt;span style=&quot;white-space-collapse: preserve;&quot;&gt;restock_timestamp&lt;/span&gt;" style="shape=partialRectangle;connectable=0;fillColor=#DEEEEB;top=0;left=0;bottom=0;right=0;align=left;spacingLeft=6;overflow=hidden;html=1;whiteSpace=wrap;strokeColor=inherit;fontFamily=Spline Sans Mono ;fontSource=https%3A%2F%2Ffonts.googleapis.com%2Fcss%3Ffamily%3DSpline%2BSans%2BMono%2B;fontColor=#333E4B;fontStyle=0;labelBackgroundColor=none;" vertex="1" parent="RcrwvDNwSDzIbEaf6MxV-257">
          <mxGeometry x="60" width="170" height="30" as="geometry">
            <mxRectangle width="170" height="30" as="alternateBounds" />
          </mxGeometry>
        </mxCell>
        <mxCell id="RcrwvDNwSDzIbEaf6MxV-260" value="" style="shape=tableRow;horizontal=0;startSize=0;swimlaneHead=0;swimlaneBody=0;fillColor=#DEEEEB;collapsible=0;dropTarget=0;points=[[0,0.5],[1,0.5]];portConstraint=eastwest;top=0;left=0;right=0;bottom=1;html=1;strokeColor=inherit;fontFamily=Spline Sans Mono ;fontSource=https%3A%2F%2Ffonts.googleapis.com%2Fcss%3Ffamily%3DSpline%2BSans%2BMono%2B;fontColor=#333E4B;fontStyle=0;labelBackgroundColor=none;" vertex="1" parent="RcrwvDNwSDzIbEaf6MxV-253">
          <mxGeometry y="90" width="230" height="30" as="geometry" />
        </mxCell>
        <mxCell id="RcrwvDNwSDzIbEaf6MxV-261" value="FK" style="shape=partialRectangle;connectable=0;fillColor=#DEEEEB;top=0;left=0;bottom=0;right=0;fontStyle=0;overflow=hidden;html=1;whiteSpace=wrap;strokeColor=inherit;fontFamily=Spline Sans Mono ;fontSource=https%3A%2F%2Ffonts.googleapis.com%2Fcss%3Ffamily%3DSpline%2BSans%2BMono%2B;fontColor=#333E4B;labelBackgroundColor=none;" vertex="1" parent="RcrwvDNwSDzIbEaf6MxV-260">
          <mxGeometry width="60" height="30" as="geometry">
            <mxRectangle width="60" height="30" as="alternateBounds" />
          </mxGeometry>
        </mxCell>
        <mxCell id="RcrwvDNwSDzIbEaf6MxV-262" value="&lt;span&gt;&lt;/span&gt;&lt;span style=&quot;white-space-collapse: preserve;&quot;&gt;store_id&lt;/span&gt;&amp;nbsp;" style="shape=partialRectangle;connectable=0;fillColor=#DEEEEB;top=0;left=0;bottom=0;right=0;align=left;spacingLeft=6;fontStyle=4;overflow=hidden;html=1;whiteSpace=wrap;strokeColor=inherit;fontFamily=Spline Sans Mono ;fontSource=https%3A%2F%2Ffonts.googleapis.com%2Fcss%3Ffamily%3DSpline%2BSans%2BMono%2B;fontColor=#333E4B;labelBackgroundColor=none;" vertex="1" parent="RcrwvDNwSDzIbEaf6MxV-260">
          <mxGeometry x="60" width="170" height="30" as="geometry">
            <mxRectangle width="170" height="30" as="alternateBounds" />
          </mxGeometry>
        </mxCell>
        <mxCell id="RcrwvDNwSDzIbEaf6MxV-263" style="shape=tableRow;horizontal=0;startSize=0;swimlaneHead=0;swimlaneBody=0;fillColor=#DEEEEB;collapsible=0;dropTarget=0;points=[[0,0.5],[1,0.5]];portConstraint=eastwest;top=0;left=0;right=0;bottom=0;html=1;strokeColor=inherit;fontFamily=Spline Sans Mono ;fontSource=https%3A%2F%2Ffonts.googleapis.com%2Fcss%3Ffamily%3DSpline%2BSans%2BMono%2B;fontColor=#333E4B;fontStyle=0;labelBackgroundColor=none;" vertex="1" parent="RcrwvDNwSDzIbEaf6MxV-253">
          <mxGeometry y="120" width="230" height="30" as="geometry" />
        </mxCell>
        <mxCell id="RcrwvDNwSDzIbEaf6MxV-264" value="FK" style="shape=partialRectangle;connectable=0;fillColor=#DEEEEB;top=0;left=0;bottom=0;right=0;fontStyle=0;overflow=hidden;html=1;whiteSpace=wrap;strokeColor=inherit;fontFamily=Spline Sans Mono ;fontSource=https%3A%2F%2Ffonts.googleapis.com%2Fcss%3Ffamily%3DSpline%2BSans%2BMono%2B;fontColor=#333E4B;labelBackgroundColor=none;" vertex="1" parent="RcrwvDNwSDzIbEaf6MxV-263">
          <mxGeometry width="60" height="30" as="geometry">
            <mxRectangle width="60" height="30" as="alternateBounds" />
          </mxGeometry>
        </mxCell>
        <mxCell id="RcrwvDNwSDzIbEaf6MxV-265" value="&lt;span&gt;&lt;/span&gt;&lt;span&gt;&lt;/span&gt;&lt;span&gt;&lt;/span&gt;&lt;span style=&quot;white-space-collapse: preserve;&quot;&gt;product_id&lt;/span&gt;" style="shape=partialRectangle;connectable=0;fillColor=#DEEEEB;top=0;left=0;bottom=0;right=0;align=left;spacingLeft=6;fontStyle=4;overflow=hidden;html=1;whiteSpace=wrap;strokeColor=inherit;fontFamily=Spline Sans Mono ;fontSource=https%3A%2F%2Ffonts.googleapis.com%2Fcss%3Ffamily%3DSpline%2BSans%2BMono%2B;fontColor=#333E4B;labelBackgroundColor=none;" vertex="1" parent="RcrwvDNwSDzIbEaf6MxV-263">
          <mxGeometry x="60" width="170" height="30" as="geometry">
            <mxRectangle width="170" height="30" as="alternateBounds" />
          </mxGeometry>
        </mxCell>
        <mxCell id="RcrwvDNwSDzIbEaf6MxV-266" value="" style="shape=tableRow;horizontal=0;startSize=0;swimlaneHead=0;swimlaneBody=0;fillColor=#DEEEEB;collapsible=0;dropTarget=0;points=[[0,0.5],[1,0.5]];portConstraint=eastwest;top=0;left=0;right=0;bottom=0;html=1;strokeColor=inherit;fontFamily=Spline Sans Mono ;fontSource=https%3A%2F%2Ffonts.googleapis.com%2Fcss%3Ffamily%3DSpline%2BSans%2BMono%2B;fontColor=#333E4B;fontStyle=0;labelBackgroundColor=none;" vertex="1" parent="RcrwvDNwSDzIbEaf6MxV-253">
          <mxGeometry y="150" width="230" height="30" as="geometry" />
        </mxCell>
        <mxCell id="RcrwvDNwSDzIbEaf6MxV-267" value="" style="shape=partialRectangle;connectable=0;fillColor=#DEEEEB;top=0;left=0;bottom=0;right=0;editable=1;overflow=hidden;html=1;whiteSpace=wrap;strokeColor=inherit;fontFamily=Spline Sans Mono ;fontSource=https%3A%2F%2Ffonts.googleapis.com%2Fcss%3Ffamily%3DSpline%2BSans%2BMono%2B;fontColor=#333E4B;fontStyle=0;labelBackgroundColor=none;" vertex="1" parent="RcrwvDNwSDzIbEaf6MxV-266">
          <mxGeometry width="60" height="30" as="geometry">
            <mxRectangle width="60" height="30" as="alternateBounds" />
          </mxGeometry>
        </mxCell>
        <mxCell id="RcrwvDNwSDzIbEaf6MxV-268" value="&lt;span&gt;&lt;/span&gt;&lt;span style=&quot;white-space-collapse: preserve;&quot;&gt;quantity_change&lt;/span&gt;&amp;nbsp;" style="shape=partialRectangle;connectable=0;fillColor=#DEEEEB;top=0;left=0;bottom=0;right=0;align=left;spacingLeft=6;overflow=hidden;html=1;whiteSpace=wrap;strokeColor=inherit;fontFamily=Spline Sans Mono ;fontSource=https%3A%2F%2Ffonts.googleapis.com%2Fcss%3Ffamily%3DSpline%2BSans%2BMono%2B;fontColor=#333E4B;fontStyle=0;labelBackgroundColor=none;" vertex="1" parent="RcrwvDNwSDzIbEaf6MxV-266">
          <mxGeometry x="60" width="170" height="30" as="geometry">
            <mxRectangle width="170" height="30" as="alternateBounds" />
          </mxGeometry>
        </mxCell>
        <mxCell id="RcrwvDNwSDzIbEaf6MxV-280" value="" style="edgeStyle=orthogonalEdgeStyle;rounded=0;orthogonalLoop=1;jettySize=auto;html=1;fillColor=#ffe6cc;strokeColor=#d79b00;exitX=0.5;exitY=1;exitDx=0;exitDy=0;exitPerimeter=0;curved=1;" edge="1" parent="1" source="RcrwvDNwSDzIbEaf6MxV-31" target="RcrwvDNwSDzIbEaf6MxV-84">
          <mxGeometry relative="1" as="geometry">
            <mxPoint x="795" y="1053" as="sourcePoint" />
            <mxPoint x="567" y="984" as="targetPoint" />
          </mxGeometry>
        </mxCell>
        <mxCell id="RcrwvDNwSDzIbEaf6MxV-84" value="&lt;span&gt;&lt;/span&gt;&lt;span&gt;&lt;/span&gt;&lt;span style=&quot;white-space-collapse: preserve;&quot;&gt;&lt;font data-font-src=&quot;https://fonts.googleapis.com/css?family=Spline+Sans+Mono+SemiBold&quot; style=&quot;&quot;&gt;shipment_priority&lt;/font&gt;&lt;/span&gt;" style="shape=table;startSize=30;container=1;collapsible=1;childLayout=tableLayout;fixedRows=1;rowLines=0;fontStyle=1;align=center;resizeLast=1;html=1;whiteSpace=wrap;fillStyle=solid;fillColor=#B8BAAA;strokeColor=none;fontFamily=Spline Sans Mono SemiBold;fontSource=https%3A%2F%2Ffonts.googleapis.com%2Fcss%3Ffamily%3DSpline%2BSans%2BMono%2BSemiBold;labelBackgroundColor=none;fontColor=#333E4B;" vertex="1" parent="1">
          <mxGeometry x="679" y="832" width="270" height="120" as="geometry" />
        </mxCell>
        <mxCell id="RcrwvDNwSDzIbEaf6MxV-85" value="" style="shape=tableRow;horizontal=0;startSize=0;swimlaneHead=0;swimlaneBody=0;fillColor=#F0F2E1;collapsible=0;dropTarget=0;points=[[0,0.5],[1,0.5]];portConstraint=eastwest;top=0;left=0;right=0;bottom=0;html=1;strokeColor=inherit;fontFamily=Spline Sans Mono ;fontSource=https%3A%2F%2Ffonts.googleapis.com%2Fcss%3Ffamily%3DSpline%2BSans%2BMono%2B;fontColor=#333E4B;fontStyle=0;labelBackgroundColor=none;" vertex="1" parent="RcrwvDNwSDzIbEaf6MxV-84">
          <mxGeometry y="30" width="270" height="30" as="geometry" />
        </mxCell>
        <mxCell id="RcrwvDNwSDzIbEaf6MxV-86" value="PK" style="shape=partialRectangle;connectable=0;fillColor=#F0F2E1;top=0;left=0;bottom=0;right=0;fontStyle=0;overflow=hidden;html=1;whiteSpace=wrap;strokeColor=inherit;fontFamily=Spline Sans Mono ;fontSource=https%3A%2F%2Ffonts.googleapis.com%2Fcss%3Ffamily%3DSpline%2BSans%2BMono%2B;fontColor=#333E4B;labelBackgroundColor=none;" vertex="1" parent="RcrwvDNwSDzIbEaf6MxV-85">
          <mxGeometry width="60" height="30" as="geometry">
            <mxRectangle width="60" height="30" as="alternateBounds" />
          </mxGeometry>
        </mxCell>
        <mxCell id="RcrwvDNwSDzIbEaf6MxV-87" value="&lt;span&gt;&lt;/span&gt;&lt;span&gt;&lt;/span&gt;&lt;span style=&quot;white-space-collapse: preserve;&quot;&gt;priority_id&lt;/span&gt;" style="shape=partialRectangle;connectable=0;fillColor=#F0F2E1;top=0;left=0;bottom=0;right=0;align=left;spacingLeft=6;fontStyle=4;overflow=hidden;html=1;whiteSpace=wrap;strokeColor=inherit;fontFamily=Spline Sans Mono ;fontSource=https%3A%2F%2Ffonts.googleapis.com%2Fcss%3Ffamily%3DSpline%2BSans%2BMono%2B;fontColor=#333E4B;labelBackgroundColor=none;" vertex="1" parent="RcrwvDNwSDzIbEaf6MxV-85">
          <mxGeometry x="60" width="210" height="30" as="geometry">
            <mxRectangle width="210" height="30" as="alternateBounds" />
          </mxGeometry>
        </mxCell>
        <mxCell id="RcrwvDNwSDzIbEaf6MxV-88" value="" style="shape=tableRow;horizontal=0;startSize=0;swimlaneHead=0;swimlaneBody=0;fillColor=#F0F2E1;collapsible=0;dropTarget=0;points=[[0,0.5],[1,0.5]];portConstraint=eastwest;top=0;left=0;right=0;bottom=0;html=1;strokeColor=inherit;fontFamily=Spline Sans Mono ;fontSource=https%3A%2F%2Ffonts.googleapis.com%2Fcss%3Ffamily%3DSpline%2BSans%2BMono%2B;fontColor=#333E4B;fontStyle=0;labelBackgroundColor=none;" vertex="1" parent="RcrwvDNwSDzIbEaf6MxV-84">
          <mxGeometry y="60" width="270" height="30" as="geometry" />
        </mxCell>
        <mxCell id="RcrwvDNwSDzIbEaf6MxV-89" value="" style="shape=partialRectangle;connectable=0;fillColor=#F0F2E1;top=0;left=0;bottom=0;right=0;editable=1;overflow=hidden;html=1;whiteSpace=wrap;strokeColor=inherit;fontFamily=Spline Sans Mono ;fontSource=https%3A%2F%2Ffonts.googleapis.com%2Fcss%3Ffamily%3DSpline%2BSans%2BMono%2B;fontColor=#333E4B;fontStyle=0;labelBackgroundColor=none;" vertex="1" parent="RcrwvDNwSDzIbEaf6MxV-88">
          <mxGeometry width="60" height="30" as="geometry">
            <mxRectangle width="60" height="30" as="alternateBounds" />
          </mxGeometry>
        </mxCell>
        <mxCell id="RcrwvDNwSDzIbEaf6MxV-90" value="&lt;span&gt;&lt;/span&gt;&lt;span style=&quot;white-space-collapse: preserve;&quot;&gt;priority&lt;/span&gt;" style="shape=partialRectangle;connectable=0;fillColor=#F0F2E1;top=0;left=0;bottom=0;right=0;align=left;spacingLeft=6;overflow=hidden;html=1;whiteSpace=wrap;strokeColor=inherit;fontFamily=Spline Sans Mono ;fontSource=https%3A%2F%2Ffonts.googleapis.com%2Fcss%3Ffamily%3DSpline%2BSans%2BMono%2B;fontColor=#333E4B;fontStyle=0;labelBackgroundColor=none;" vertex="1" parent="RcrwvDNwSDzIbEaf6MxV-88">
          <mxGeometry x="60" width="210" height="30" as="geometry">
            <mxRectangle width="210" height="30" as="alternateBounds" />
          </mxGeometry>
        </mxCell>
        <mxCell id="RcrwvDNwSDzIbEaf6MxV-101" style="shape=tableRow;horizontal=0;startSize=0;swimlaneHead=0;swimlaneBody=0;fillColor=#F0F2E1;collapsible=0;dropTarget=0;points=[[0,0.5],[1,0.5]];portConstraint=eastwest;top=0;left=0;right=0;bottom=0;html=1;strokeColor=inherit;fontFamily=Spline Sans Mono ;fontSource=https%3A%2F%2Ffonts.googleapis.com%2Fcss%3Ffamily%3DSpline%2BSans%2BMono%2B;fontColor=#333E4B;fontStyle=0;labelBackgroundColor=none;" vertex="1" parent="RcrwvDNwSDzIbEaf6MxV-84">
          <mxGeometry y="90" width="270" height="30" as="geometry" />
        </mxCell>
        <mxCell id="RcrwvDNwSDzIbEaf6MxV-102" style="shape=partialRectangle;connectable=0;fillColor=#F0F2E1;top=0;left=0;bottom=0;right=0;editable=1;overflow=hidden;html=1;whiteSpace=wrap;strokeColor=inherit;fontFamily=Spline Sans Mono ;fontSource=https%3A%2F%2Ffonts.googleapis.com%2Fcss%3Ffamily%3DSpline%2BSans%2BMono%2B;fontColor=#333E4B;fontStyle=0;labelBackgroundColor=none;" vertex="1" parent="RcrwvDNwSDzIbEaf6MxV-101">
          <mxGeometry width="60" height="30" as="geometry">
            <mxRectangle width="60" height="30" as="alternateBounds" />
          </mxGeometry>
        </mxCell>
        <mxCell id="RcrwvDNwSDzIbEaf6MxV-103" value="estimated_delivery_date&amp;nbsp;" style="shape=partialRectangle;connectable=0;fillColor=#F0F2E1;top=0;left=0;bottom=0;right=0;align=left;spacingLeft=6;overflow=hidden;html=1;whiteSpace=wrap;strokeColor=inherit;fontFamily=Spline Sans Mono ;fontSource=https%3A%2F%2Ffonts.googleapis.com%2Fcss%3Ffamily%3DSpline%2BSans%2BMono%2B;fontColor=#333E4B;fontStyle=0;labelBackgroundColor=none;" vertex="1" parent="RcrwvDNwSDzIbEaf6MxV-101">
          <mxGeometry x="60" width="210" height="30" as="geometry">
            <mxRectangle width="210" height="30" as="alternateBounds" />
          </mxGeometry>
        </mxCell>
        <mxCell id="RcrwvDNwSDzIbEaf6MxV-281" value="" style="edgeStyle=entityRelationEdgeStyle;fontSize=12;html=1;endArrow=ERmandOne;startArrow=ERoneToMany;rounded=0;flowAnimation=1;dashed=1;strokeWidth=2;strokeColor=#324B4D;exitX=1;exitY=0.5;exitDx=0;exitDy=0;endFill=0;startFill=0;entryX=0;entryY=0.5;entryDx=0;entryDy=0;" edge="1" parent="1" source="RcrwvDNwSDzIbEaf6MxV-54" target="RcrwvDNwSDzIbEaf6MxV-194">
          <mxGeometry width="100" height="100" relative="1" as="geometry">
            <mxPoint x="562" y="530" as="sourcePoint" />
            <mxPoint x="938" y="370" as="targetPoint" />
            <Array as="points">
              <mxPoint x="381" y="1009" />
            </Array>
          </mxGeometry>
        </mxCell>
        <mxCell id="RcrwvDNwSDzIbEaf6MxV-282" value="" style="edgeStyle=entityRelationEdgeStyle;fontSize=12;html=1;endArrow=ERmandOne;startArrow=ERoneToMany;rounded=0;flowAnimation=1;dashed=1;strokeWidth=2;strokeColor=#324B4D;endFill=0;startFill=0;" edge="1" parent="1" source="RcrwvDNwSDzIbEaf6MxV-232" target="RcrwvDNwSDzIbEaf6MxV-194">
          <mxGeometry width="100" height="100" relative="1" as="geometry">
            <mxPoint x="1182" y="233" as="sourcePoint" />
            <mxPoint x="1288" y="397" as="targetPoint" />
            <Array as="points">
              <mxPoint x="391" y="1019" />
            </Array>
          </mxGeometry>
        </mxCell>
        <mxCell id="RcrwvDNwSDzIbEaf6MxV-283" value="" style="edgeStyle=entityRelationEdgeStyle;fontSize=12;html=1;endArrow=ERmandOne;startArrow=ERoneToMany;rounded=0;flowAnimation=1;dashed=1;strokeWidth=2;strokeColor=#324B4D;endFill=0;startFill=0;exitX=1;exitY=0.5;exitDx=0;exitDy=0;" edge="1" parent="1" source="Fx5C9bnQ34uH0TO9ncKX-81" target="RcrwvDNwSDzIbEaf6MxV-194">
          <mxGeometry width="100" height="100" relative="1" as="geometry">
            <mxPoint x="703" y="209" as="sourcePoint" />
            <mxPoint x="813" y="382" as="targetPoint" />
            <Array as="points">
              <mxPoint x="-90" y="997" />
            </Array>
          </mxGeometry>
        </mxCell>
      </root>
    </mxGraphModel>
  </diagram>
</mxfile>
